<svg xmlns="http://www.w3.org/2000/svg" viewBox="0 0 527.3 543.91"><defs><style>.cls-1{fill:#8bf62a;}.cls-2{fill:#fefffe;}.cls-3{fill:#61de20;}.cls-4{fill:#2d890d;}.cls-5{fill:#439e17;}.cls-6{fill:#318d0e;}.cls-7{fill:#fcfefc;}.cls-8{fill:#2c880c;}.cls-9{fill:#2b870b;}.cls-10{fill:#308c0e;}.cls-11{fill:#2e890d;}.cls-12{fill:#3a9b15;}.cls-13{fill:#318d12;}.cls-14{fill:#308817;}</style></defs><g id="hole1"><path class="cls-1" d="M763,538.51V534.2c1.7.2,1.22-1.1,1.28-1.93.43-6.38.77-12.76,1.25-19.13a18.34,18.34,0,0,0-.77-7.72,5.71,5.71,0,0,1-.22-2.6,32.89,32.89,0,0,1,.91-4.39,42.47,42.47,0,0,1,1.63-5.17c.89-2.15,2.21-4.06,2.84-6.4,1-3.78,2.69-7.37,3.91-11.1,1.4-4.27,2.38-8.66,3.46-13,.84-3.4.83-6.95,2.13-10.28,1-2.49,1.51-5.14,2.37-7.67a26.6,26.6,0,0,0,1.48-5.45,10.48,10.48,0,0,1,1.41-4.48c1.61-2.47,2-5.27,2.62-8,.72-3.37,2.51-6.53,2.09-10.13,0-.26.29-.54.42-.83a13.25,13.25,0,0,0,1.62-6.62c-.09-1.25-.23-2.6,1.4-3.2.3-.12.38-.82.57-1.24,1.45-3,2.06-6.5,4.51-9.05.31-.32.36-.88.56-1.31.75-1.63.86-3.41,2.35-4.9s1.94-3.86,2.9-5.82a15.68,15.68,0,0,1,2.21-4.06c1.08-1.22,1.18-3.33,1.77-5.24a3,3,0,0,0,1.95-1.83,34.77,34.77,0,0,1,3.14-4.81,44.06,44.06,0,0,1,3.33-4.91c1-1.19,1-3,2.11-3.87,1.78-1.44,1.92-3.67,3-5.43,1.53-2.45,1.7-5.58,3.94-7.86,1.11-1.12,1.57-3,2.09-4.56a14.14,14.14,0,0,1,4.31-6.43c1.54-1.29,2.59-2.95,4.2-4.26,2.48-.22,2.48-.22,3.9-1.71L853,327.62c.39,0,.94,0,1.13-.22,1-1.27,2.44-1,3.77-1,2.08,0,4.17-.17,6.24,0,3.39.28,6.27-1.31,9.33-2.25.15,0,.36-.13.4-.24.54-1.5,2.78-1.29,3.09-3.07,0-.21.64-.35,1-.47s.9-.08,1.12-.32c.91-1,1.72-2.05,2.6-3.05a1.29,1.29,0,0,1,.78-.44,1.45,1.45,0,0,0,1.37-1.1c.18-.46.71-.78,1.07-1.17l3.31-3.67a4.26,4.26,0,0,0,1.82-.92c1.13-1.38,1.89-3.12,3.93-3.46a.5.5,0,0,0,.34-.31c.13-1.27,1.09-1.37,2.05-1.57a1.23,1.23,0,0,0,.8-.77c.17-.88.71-1.1,1.49-1.27.49-.1,1.18-.42,1.33-.81.33-.86.94-1,1.66-1.1.39-.07,1-.19,1.08-.42.55-1.82,2.09-1.29,3.34-1.54,1.06-.21,2.47-.34,3-1.06a3.05,3.05,0,0,1,2.13-1.14,2.53,2.53,0,0,0,1.46-.68c.9-1.3,2.18-1.1,3.44-1.12h3c.38-1.73,1.65-1.94,3.11-1.92a46.86,46.86,0,0,0,5-.11c.91-.09,2.14-.26,2.62-.87,1-1.24,2.16-1.13,3.39-1.12a6.15,6.15,0,0,0,4-1.29,2.82,2.82,0,0,1,1.71-.61c2.69.13,4.61-1.95,7.11-2.35a.57.57,0,0,0,.37-.27c.78-1.48,2.13-1.72,3.68-1.64.53-1.53,1.64-1.92,3.16-1.93,2.06,0,3.58-1.42,5-2.66a3.59,3.59,0,0,1,2.66-1.28,3.25,3.25,0,0,0,2.77-1.11,3.42,3.42,0,0,1,1.91-.73c1-.15,2.08,0,3.1-.2a4.33,4.33,0,0,0,2.41-.8,4.1,4.1,0,0,1,2.55-1.05c1.23-.29,2.71-.42,3.53-1.19a3.14,3.14,0,0,1,2.24-.94l2.38-.14a15.18,15.18,0,0,1,4.44-3.54,3.76,3.76,0,0,0,2-2.08,7.07,7.07,0,0,0,3.84-1.69c1.2-1,2.24-2.84,4.41-2.36a2.05,2.05,0,0,0,2.7-1.75,30.94,30.94,0,0,0,5.71-1.61,4.47,4.47,0,0,1,2.34-.71c3.65.25,7.34-.67,11,.9,2,.85,4.36.71,6.55,1,.38.06,1,.13,1.07.37.7,1.46,2.08,1.25,3.3,1.45l2.7.47c.21,1,.39,1.79.64,3l1-1.64c2.74.18,5.36.31,8,.54.59.05,1.14.49,1.74.59,1,.16,2.13.54,3,.21,2.93-1.2,5.7-1.55,8.49.29a3.93,3.93,0,0,0,1.59.52c1.32.2,2.58.31,3.39,1.7.24.43,1.27.42,2,.56s1.78,0,2.27.45a6.81,6.81,0,0,0,4.32,1.55c.54.05,1.38,0,1.55.33.93,1.62,2.51,1.5,4.06,1.69.55,1.58,1.85,2,3.36,2,1.19.07,2.62-.14,3.51.44,1.64,1.08,3.41,1.19,5.2,1.51a16.08,16.08,0,0,1,2,.49,12,12,0,0,0,2.17.77c2.61.29,5.24.52,7.87.66,1.29.08,2.51.06,3.43,1.22a2.46,2.46,0,0,0,1.45.73c2.11.36,4.26.11,6.37,1.09,1.72.8,3.84.74,5.77,1.06.24,0,.61.06.67.2,1.07,2.16,3.1,1.48,4.84,1.69.51.06,1.27.16,1.46.5.67,1.19,1.83,1.27,2.88,1.4,1.74.22,3.51.18,5.26.3,1.94.13,4-.46,5.74.92.26.21.78.09,1.18.12q7,.44,14.11.89c.48,0,1.13,0,1.38.25,1.41,1.54,3.28,1.43,5.09,1.57a1.93,1.93,0,0,1,1.92,1.09c.65,1.33,2.67,1.24,3.2,2.83,0,.13.6.11.91.14l2.06.17c.06,1.39,1.38,1.44,2.1,2.13s1,1.56,2.19,1.9c.92.27,1.62,1.28,2.42,1.94s1.27,1.41,2,1.54c2,.36,2.87,2.08,4.15,3.16a41.74,41.74,0,0,1,3.58,3c1,1.13,1.84,2.68,3.72,2.71,0,0,.09.11.13.18a6.74,6.74,0,0,0,4.86,3.48c-.11,2.15,2.15,2.14,3,3.52.75,1.2,2.44,1.81,4,2.88.26.35.73,1,1.26,1.69,1.43,1.76,3.54,2.95,4.3,5.29a2.94,2.94,0,0,0,2.12,2c.65.19,1.13,1,1.67,1.52,1,1,1.91,2,2.89,3,1.82,1.78,4.22,3,5.1,5.66a3.43,3.43,0,0,0,2,2.12c1.43.29,1.71,1.25,2.19,2.23a11.7,11.7,0,0,0,1.08,2.08c1.22,1.56,2.63,3,2.71,5.15a.79.79,0,0,0,.33.58c1.27.7,1.5,2,1.85,3.21a38.12,38.12,0,0,0,3.19,7.18,12.14,12.14,0,0,1,1.5,3,21.7,21.7,0,0,0,2.39,6,46.22,46.22,0,0,0,6.13,8.69c.51.56.83,1.75,1.32,1.79,1.74.15,2.37,1.73,3.49,2.57.92.7,2.33,1.3,2.71,2.3.5,1.31,2,1.16,2.36,2.09.52,1.59,2,1.05,2.83,1.52.14.22.23.35.3.49.83,1.66,1.43,3.55,3.84,3.5a1.08,1.08,0,0,1,.71.53c1.51,2.67,4,4.62,5.52,7.24.9,1.54,2.13,3.19,2.21,4.84a101.06,101.06,0,0,1-.1,15.07,114.52,114.52,0,0,0-.45,19.59,12,12,0,0,0,.62,2.55c.72,2.27,2.41,3.95,3.71,5.87.87,1.28,1.9,2.46,3,3.92,1.56-.14,2.2,1.48,3.18,2.68.38.46.76,1.09,1.27,1.24a3.69,3.69,0,0,1,1.87,1.53,20.68,20.68,0,0,0,2.52,2.52c1.31,1.17,3,1.89,3.68,3.72.06.18.38.26.55.42,1.25,1.19,2.75,2.06,3.61,3.77s2.89,6.16,2.86,8.06a28.37,28.37,0,0,1-.41,4c-.25,1.47-.65,2.92-1,4.38a12.32,12.32,0,0,1-.73,3.21c-1.42,2.57-2,5.51-3.85,7.92-1.55,2-1.95,4.7-2.89,7.07a24.52,24.52,0,0,0-1.42,12c.43,3.63.65,7.34,2.22,10.69a26.34,26.34,0,0,1,2.36,7.83,4,4,0,0,0,1,2.32A4.8,4.8,0,0,1,1287,541a13.32,13.32,0,0,0,.49,2.82,23.82,23.82,0,0,1,1.34,7.92c-.09,10.86,0,21.73,0,32.6a12.83,12.83,0,0,1-.43,2.81c-.47,2-1,4-1.51,6a2.76,2.76,0,0,1-.77,1.32c-1.58,1.36-2.62,2.93-2.32,4.82a14.06,14.06,0,0,1-2.27,2.33c-1,.64-1,2.07-1.89,2.54-1.18.65-1.47,2.56-3.28,2.28-.11,0-.29.5-.47.75-.7,1-1.21,2.57-2.16,2.91-2,.71-2.46,2.2-3.08,3.8l-2,.57c-.87,1.57-1.1,3.54-3.29,3.93-.25.05-.46.59-.59.93-.67,1.84-1.19,3.74-2,5.51a24.78,24.78,0,0,0-2.11,7.93c-.41,4.18-1.09,8.32-1.66,12.48a4.58,4.58,0,0,1-.22.92,24.6,24.6,0,0,0-1.8,8,2.5,2.5,0,0,1-.46,1.73,4.2,4.2,0,0,0-1.37,3.64c.07,1.67-.56,2.56-2,2.73-.37.9-.66,1.61-1,2.31a4.34,4.34,0,0,1-1.14,2c-.62.52-.76,1.65-1.06,2.53a21.69,21.69,0,0,1-2.42,5.34c-1,1.53-1.11,3.58-2,5.32-.7,1.37-1.39,2.77-2.14,4.12-.45.83-.85,1.68-1.27,2.52-.34.68-.65,1.38-1,2.06-.93,1.81-1.87,3.62-2.93,5.69-.92-.06-1.52.84-2,1.89a6.84,6.84,0,0,1-.79,1.46c-.72.9-1.48,2.4-2.31,2.46-1.68.11-1.67,1.69-2.71,2.23s-1.57,2.23-3.2,2.13c-.12,0-.25.36-.38.55a19.84,19.84,0,0,1-3.12,3.49c-1,1-1.87,1.91-3.33,2.05-.11,0-.25.2-.3.34-1,2.52-4,3-5.31,5.17-2,0-2,2.75-4,2.78a10.65,10.65,0,0,1-5.05,3.94c-.43.15-.64.86-1.06,1.15-1,.72-1.09,2.62-2.87,2.45a5.79,5.79,0,0,1-3.52,2.32c-.17,0-.22.42-.4.57a10.19,10.19,0,0,1-1.41,1.14c-1.41.87-2.5,2.41-4.48,2.18-.2,0-.43.61-.72.86-1.09.95-2.1,2.43-3.36,2.69-2,.42-2.84,2.74-5,2.53a2.66,2.66,0,0,1-2.57,1.69c-.2,0-.47.44-.53.72-.19,1-1,1.15-1.77,1.3a5.71,5.71,0,0,0-3.66,2,5.11,5.11,0,0,1-2.5,1.72,3.41,3.41,0,0,0-2.31,2.21c-2.83-.68-4.26,2.63-7,2.27-.1,0-.28.18-.33.31-.48,1.17-1.46,1.24-2.54,1.37a3.83,3.83,0,0,0-2.37.92c-1.31,1.62-3.91.89-4.92,2.89a7.82,7.82,0,0,0-5.09,2c-.74.72-2.43.41-3,1.88-.11.27-.88.47-1.29.39-2.47-.45-3.69,1.67-5.3,2.75A5.31,5.31,0,0,1,1135,764c-.86,0-2.27,0-2.47.4-.66,1.43-2.24,1.47-3,2.36-1.1,1.25-2.3,1.26-3.63,1.31s-2.39,0-3,1.41c-.17.37-1,.45-1.47.66-.67.27-1.67.36-1.92.85-.7,1.31-1.82,1-2.86,1.15-.58.1-1.43.28-1.61.68-.57,1.23-1.55,1.19-2.6,1.24a4.9,4.9,0,0,0-1.58.4c-1.4.61-2.61,1.63-4.29,1.6-.46,0-1,.71-1.4,1.11-1.08.94-2,2.38-3.24,2.72-1.66.46-2.1,2.09-3.46,2.66-.46,2.08-2.24,2.77-3.81,3.72a5.22,5.22,0,0,0-2,1.93c-1.31,2.71-3.82,4.08-6,5.83-1.1.88-1.69,2.48-3.48,2.42-.12,0-.22.59-.42.82a1.88,1.88,0,0,1-.9.67c-1.61.36-3.25.64-4.87.93-.47.08-1.17-.05-1.38.22-.85,1.11-2,.73-3.06.82-1.52.14-2.83-.61-4.23-.89-3.19-.66-6.45-.94-9.6-2-1.91-.66-4-.65-6.09-1-.31,0-.76,0-.91-.18-1.56-1.94-4.08-.8-5.9-1.87-4.56,0-9.12-.05-13.67.06-1.24,0-2.82.21-3.6,1a3.53,3.53,0,0,1-2.71,1c-1.45.05-2.85.15-3.86,1.47-.22.29-.82.36-1.27.41a12.86,12.86,0,0,1-2.63.08,2.67,2.67,0,0,0-3.12,1.78c-.63,0-1.11.06-1.59.07-3.6.1-7.19.13-10.79.31-.91,0-2.21.25-2.61.85-1,1.56-2.34,1.39-3.78,1.28-1.27-.1-2.55-.17-3.83-.24-.88,0-1.66-.09-2.13-1.14-.38-.86-1.36-.94-2.28-1a9.58,9.58,0,0,1-2.48-.55,12.39,12.39,0,0,1-3.14-1.48c-1.39-1-2.74-2-4.59-2-.05,0-.13-.09-.15-.15-.58-1.49-2-1.31-3.2-1.7-.59-.2-1.46-.27-1.71-.69-.83-1.38-2.1-1.22-3.35-1.36-.65-.07-1.69-.26-1.83-.65-.45-1.25-1.36-1.18-2.31-1.22a13.72,13.72,0,0,0-2.64,0c-2.38.44-3.23-2.58-5.5-2.35-.18,0-.47-.38-.59-.64a1.92,1.92,0,0,0-2-1.05c-1,0-1.91-.1-3-.16-.31-1-.67-2-2-1.93-.26,0-.52-.52-.79-.78-.49-.46-1-.88-1.48-1.37a6,6,0,0,0-3.79-2c-.25,0-.45-.43-.7-.62a30.76,30.76,0,0,1-3.89-3.48,5.33,5.33,0,0,0-3.64-1.78c-.22,0-.59-.16-.61-.3-.3-1.68-1.62-1.43-2.77-1.55-.38,0-1-.15-1.07-.39-.73-1.91-2.41-1.51-3.86-1.72a4.91,4.91,0,0,1-2.27-.53,7.22,7.22,0,0,0-4.73-1.33c-5.67,0-11.35,0-17-.09a7.44,7.44,0,0,1-2.1-.34c-1.11-.36-2.16-.93-3.29-1.23-.91-.25-2-.06-2.83-.38a13.59,13.59,0,0,1-2.44-1.56,5.73,5.73,0,0,0-1.07-.48,10.89,10.89,0,0,1-1.56-.48c-1.95-1.08-3.86-2.22-5.79-3.33-.33-.2-.93-.31-1-.56-.35-1.57-1.53-1.62-2.76-1.7a1.34,1.34,0,0,1-.85-.36,12.22,12.22,0,0,0-4.95-3.6,1.21,1.21,0,0,1-.67-.62c-.46-1.67-2.81-1.42-3.18-3.16,0-.07-.29-.11-.45-.12-2-.21-2.84-1.82-4-3.08a4.43,4.43,0,0,0-.78-.83c-2-1.24-4.28-2.12-5.83-4-1-1.2-2.68-1.61-3.47-2.6-1-1.29-2.17-1.39-3.61-1.65a1.77,1.77,0,0,0-2-1.8c-.27,0-.71-.21-.77-.4-.41-1.41-1.63-1.37-2.7-1.58a5.28,5.28,0,0,1-2.7-1.32,9.88,9.88,0,0,0-4.37-2.66c-1.57-.38-2.28-2.46-4.19-2.51-.08,0-.09-.52-.25-.63a5.36,5.36,0,0,0-1.58-.88,5.85,5.85,0,0,0-1.48-.15c-1-.94-1.76-1.64-2.73-2.56l-.31-2c-1.14-.45-2.42-.58-3-1.28-1.09-1.39-3-1.84-3.75-3.59a3.9,3.9,0,0,0-1.63-2.11c-1.1-.44-1.36-1.77-2.09-2-1.34-.4-1.18-1.53-1.75-2.27a35.65,35.65,0,0,1-3.07-4c-.85-1.53-2.4-2.33-3.33-3.81-1.18-1.87-3.18-3.19-4.1-5.33a2,2,0,0,0-.53-.76c-2.4-1.91-3.29-5-5.29-7.16a5.1,5.1,0,0,1-1.06-1.48c-1.14-2.91-2.31-5.81-3.3-8.77-.8-2.41-1.43-4.87-2-7.34-.47-2.08-.68-4.21-1.1-6.31a6.34,6.34,0,0,0-.94-2.88,4,4,0,0,1-.82-2.62c-.1-1.1.1-2.5-.49-3.24-1.74-2.2-2.18-5-3.64-7.26-1.6-2.5-1.45-5.66-3-8.18a7.51,7.51,0,0,1-.91-1.84c-1.06-3.54-2-7.11-3.09-10.65-.89-3-1.87-5.88-2.78-8.83a50.65,50.65,0,0,1-2.12-7.41c-.52-3.62-.62-7.3-.81-11-.16-3.27.14-6.6-.38-9.8A58.76,58.76,0,0,1,773,578.38,15.49,15.49,0,0,0,771.6,572c-.86-2.35-1.64-4.74-2.28-7.15-.81-3-1.35-6.11-3-8.86a7.44,7.44,0,0,1-.94-2.65c-.44-3-.76-6-1.1-8.93-.17-1.43-.23-2.87-.47-4.29A6,6,0,0,0,763,538.51Zm355.78,226.13-.16-.74-3,2.29-.49-1a4.41,4.41,0,0,1,1-.32C1117,764.73,1117.89,764.7,1118.78,764.64Z" transform="translate(-763 -258.45)"/><path class="cls-2" d="M1118.78,764.64c-.89.06-1.77.09-2.66.19a4.41,4.41,0,0,0-1,.32l.49,1,3-2.29Z" transform="translate(-763 -258.45)"/></g><g id="hole2"><path class="cls-3" d="M1105.06,568.07c1.83-.35,2.44-.53,3.06-.57,1.76-.11,3.53-.18,5.29-.26-.54,2-.53,4.47-1.72,6-8.78,10.95-20.34,18-33.29,23-2.18.84-4.47,1.39-7.2,2.22l2.94,5.83c-4.1.68-7.82,1.78-11.54,1.81-13.39.11-25.78-3.15-36-12.3-1.27-1.15-1.5-3.46-2.22-5.23,1.7-.47,3.43-1.42,5.1-1.31,15.1.94,29.53-1.49,42.76-9,22.37-12.71,35.89-31.61,38.1-57.57,2.54-29.9-8-55.79-25.75-79.16-8.91-11.75-18-23.39-30-32.3-30.87-23-65.22-33.92-103.84-29-13.43,1.72-25.45,7.86-37.39,13.94-24,12.21-40.32,31.41-52.37,55.2a189.37,189.37,0,0,0-18.65,57.91c-2.77,18.52-3.39,37.15,1,55.57.51,2.13,2.27,4,3.45,5.93.36-2.14,1.06-4.29,1-6.43-.31-16.15-.61-32.3-1.2-48.45-.53-14.22,4.06-27.12,9.07-40.09,2.57-6.66,8.29-9.64,12.71-14.16l1.66.79c-1,3.56-1.81,7.2-3.07,10.67-10.36,28.4-14.43,57.77-8.82,87.4,6.24,33,21.43,62.07,44.9,86.48,11.74,12.21,24.76,22.65,40.84,28.56a26,26,0,0,0,10.48,1.31c4.27-.29,4.71-1.77,2.6-5.45-1.84-3.19-3.66-6.4-5.49-9.6l.87-1.11a24.15,24.15,0,0,1,3.55,1c7.57,3.47,15,7.15,22.68,10.45a26.46,26.46,0,0,0,7.77,1.51c.89.09,2.56-.7,2.68-1.32a4.14,4.14,0,0,0-1.1-3.16c-2.52-2.59-5.34-4.88-7.89-7.44-1.79-1.8-3.32-3.87-5-5.82l.9-1.39,8.62,2.74c-1.14-1.82-1.57-3-2.42-3.78-3.42-3-6.57-7.43-10.55-8.43-9.65-2.41-15.59-9.8-23.25-14.82-.67-.44-1.69-.33-3.09-.57l1.29,8.59c-2.45-.8-4.44-1.07-6-2-17.49-10.63-29.65-25.65-36-45.12-2.91-9-5.14-18.14-7.46-27.28-1-4-2.43-7.17-6.37-9.3-7.82-4.23-8.61-12.11-8.43-19.69.81-35.16,13.26-65.21,40.19-88.55,9.33-8.08,18.22-17,28.61-23.45,28.58-17.76,68.11-14.83,94.13,6.38,14,11.45,23.1,26.67,29.8,43.38a153.72,153.72,0,0,1,10.11,40.58,5.33,5.33,0,0,0,.24,1.39c5.93,15.59-2.26,26.15-12.77,35.88a24.9,24.9,0,0,0-3.71,3.9c13.11-3.06,17.17-14.87,23.68-24.54.61,7.14-2,13.26-5.6,18.81-10.28,15.59-32.54,24.33-50.73,20.2-8.41-1.9-14.64-6.86-19.28-14-3.42-5.25-6.74-10.56-10.47-15.58-1.12-1.5-3.48-2.08-5.27-3.08-1,1.87-2.35,3.64-2.89,5.63s-.28,4.3-.38,6.77c-4.2-.92-4.24,1.39-3,4.22,1.61,3.58,3.6,7,5.18,10.58.49,1.1.16,2.57.2,3.87-1.2,0-2.66.5-3.57,0C985.76,559,976.76,551,979.57,536.17a80.8,80.8,0,0,1,2.51-9.55c2.79-8.72,8.6-13.08,17.78-13.26a40.65,40.65,0,0,1,9.36.69c1.95.43,3.64,2,5.45,3.11-1,1.64-2,3.32-3.07,4.92a10,10,0,0,1-1.86,1.46c6,6.82,11.77,13.56,17.85,20,.71.77,3.66.6,4.63-.23,4.42-3.78,6.89-17.25,4.46-22.59-.17-.37-.69-.58-1.4-1.14-.65,2-1.22,3.77-2.25,7a51.52,51.52,0,0,1-3-5.6c-6.54-17.51-19.92-24.2-37.76-24.68-21.13-.56-29,16.22-30.71,31.85-.07.57,0,1.48.37,1.74,6.56,4.67,4.64,11.49,4.1,17.63-.75,8.61-.6,17,3,24.93,1.35,2.94,3.93,5.32,6,7.94a44.1,44.1,0,0,1,4,5.13c4,7.06,8.67,13.44,15.69,17.77,1.64,1,3.45,1.75,5.18,2.62l1.18-1.11-7.89-13.49,1.23-1.19c3.57,2.6,7.3,5,10.68,7.85,6.18,5.18,10,12,12.74,19.49,2,5.61,0,7.71-5.85,6.9-17.15-2.34-29.84-12-40-25.2-4.15-5.44-7.13-11.78-10.65-17.7-1.18-2-2.39-3.94-3.71-6.12a14,14,0,0,0-2.75,1.73c-2.33,2.56-4.33,1.75-5.48-.86-2.46-5.59-4.28-11.46-6.87-17q-6.64-14.22-14-28.1a10.78,10.78,0,0,1-.47-10.3c2.2-4.7,5.13-9.13,6.74-14,1.27-3.84,2.13-8.47,1.17-12.23-1.63-6.35-.06-11.44,3.34-16.39,12.94-18.83,31-27.21,53.65-26.13,13.72.66,27.32,2,39,10.46,6.47,4.69,12.42,9.86,15.58,17.85-12-6.47-22.53-16-37.12-16.1-.09.37-.3.77-.19.92,4.08,5.39,4,5.32-1.87,9.49-.6.42-.65,3-.06,3.46,1.93,1.54,4.31,2.51,6.44,3.83,15.29,9.47,28.65,20.86,36.67,37.41,1.42,3,2.1,6.26,3.32,9.33,1.14,2.86,2.84,3.56,5.27,1.06,9.09-9.38,13.42-20.28,10.93-33.43-3.45-18.24-15.38-30.37-29.36-41.11-9.07-7-19.82-9.14-30.61-11.4-3.15-.66-6.2-1.82-10.27-3,3-3.2,5.25-5.62,8.75-9.37-1.95-.33-3-.48-4.11-.7-17.25-3.52-33.72-3.08-48.24,8.75-9.6,7.83-20.15,14.65-29,23.27-14.61,14.3-22.69,32.16-24,52.76-.22,3.58-1,7.92,5.31,7.63,1,0,2.7,3.53,3.08,5.61,1.47,8,2.48,16.13,3.77,24.19,2.4,15.14,10.77,27.22,20,38.83a10.73,10.73,0,0,0,1.89,1.38l5.4-11.35c2.84,5.21,5.27,9.28,7.33,13.52A65.79,65.79,0,0,0,978,624.62c23,13,47.32,21.82,74.16,22a24.54,24.54,0,0,0,3.74-.2,20.88,20.88,0,0,0,3.21-1.14c-2.54-1.41-4.44-2.28-6.11-3.46-1.31-.93-3.31-2.32-3.24-3.4.08-1.32,1.77-3,3.17-3.69,6.45-3.31,13.45-3.54,19.31.41,9.33,6.29,18.93,4.84,28.49,2.25,12.13-3.29,24-7.48,36-11.23,2-.64,4.18-1,6.27-1.49l.7,1c-1,.95-1.78,2.19-2.93,2.82-6.46,3.53-12.84,7.28-19.56,10.26-8.89,4-18.09,7.23-27.12,10.91a58.79,58.79,0,0,0-5.94,3.21l.33,1.53,29.12-.22.34,1a41,41,0,0,1-5.85,2.76c-9.21,2.67-18.49,5.08-27.69,7.77-3.09.91-6,2.37-9,3.58-.09.63-.19,1.26-.28,1.89l15.16,6.44c0,.57.14,1,0,1.15-11.82,13.85-26.52,21.45-45,21.13-5.73-.1-11.48.46-17.22.72l-.24,1.15,8.73,7.16-.27,1.24L1010,713c-4.24-4.67-6.17-4.75-12.31.3-.56.46-1.53,1-2,.86-4.87-2-10-3.49-14.39-6.28-3.08-2-4.9-5.84-7.56-8.59s-4.71-.51-6.91,1c-.92.66-2.55,1.44-3.28,1.06-12.19-6.44-24.65-12.45-36.28-19.79-9.78-6.19-18.54-14-27.8-21-1.85-1.4-3.92-2.5-7-4.42,2.75,6.87,10.56,10.78,5.95,18.57-7.63-2.47-13.41-8.36-18.86-14.3a179.08,179.08,0,0,1-15.89-20.09c-15.42-22.57-27.79-46.58-32.8-73.82a54,54,0,0,0-1.74-5.78l-1.57.25,4.35,37.56c-7-5.1-14.16-49-13.5-80.45.53-25.2,11-71.76,21.31-76.84l-12.29,36.51,1.67.9c1.46-2.42,3.11-4.74,4.36-7.27q9.54-19.31,18.9-38.71A68.94,68.94,0,0,0,855.9,424a49.26,49.26,0,0,1,16.46-23.14A170.5,170.5,0,0,1,899.29,383c18.37-9.72,37.56-17.47,58.59-19.54,29.28-2.89,56.16,5,81.95,17.95,3.5,1.75,6.73,4,10.05,6.11.49.3.79.91,1.5,1.77L1045,390c6.9,6.08,13.55,11.29,19.43,17.26,19.69,20,36.91,41.94,49.12,67.36,9.55,19.89,9.19,40.87,3.84,61.74-2.16,8.45-6.13,16.42-9.31,24.6C1107.22,563.06,1106.29,565.15,1105.06,568.07Z" transform="translate(-763 -258.45)"/><path class="cls-3" d="M1077.68,728.71c2.54-1.23,5-2.64,7.63-3.63,8-3,15.6-6.41,22.29-12,3.56-3,8.19-4.59,12.27-6.94,1.94-1.12,3.73-2.52,6.35-4.31a51.22,51.22,0,0,1-4.46-2.62c-1-.78-2.69-1.89-2.61-2.7.13-1.23,1.41-2.46,2.45-3.41a15.78,15.78,0,0,1,3.28-1.82c5.33-2.76,9.85-6,13.28-11.42,3.07-4.85,8.22-8.39,13.37-13.4l-27.7,4.79-.42-1.08c5.33-2.6,10.58-5.37,16-7.75,8-3.53,16.52-6.17,24.23-10.29s14.88-9.69,22.28-14.62c2.85-1.9,5.82-3.65,5.24-7.94-.12-.89.82-2,1.45-2.9,9-12.84,17.71-25.87,27.11-38.4,6.58-8.77,11-18.5,15-28.49a44.42,44.42,0,0,0,1.87-7.28q7.13-33.33,14.24-66.68a24.14,24.14,0,0,1,1.26-3.41l1.38-.2c1,4.26,2.67,8.48,2.92,12.78a327.43,327.43,0,0,1-3.49,70.31c-1.69,10.77-3,21.21-8.28,30.83a213.29,213.29,0,0,1-33.14,44.46c-1.19,1.25-1.34,3.51-2,5.3a8.69,8.69,0,0,1-.94,2.5c-10.1,13-18.32,27.32-30.94,38.39-17.87,15.68-68.11,49.47-90.58,58.12-11.58,4.46,8.41-11.7-4.15-12a24.14,24.14,0,0,0-3.6-.86C1076.7,731.91,1076.62,730.62,1077.68,728.71Z" transform="translate(-763 -258.45)"/><path class="cls-3" d="M960.59,342a62.54,62.54,0,0,0,6.27-1.22c6.17-1.8,12.33-3.19,19-2.65,3.55.29,7.08-.84,10.64-1.21,1.69-.18,3.42-.09,5.85-.13a40.16,40.16,0,0,0-1.34,3.94c-.22,1-.66,2.6-.21,3.11a5.12,5.12,0,0,0,3.11,1.14,10.16,10.16,0,0,0,2.83-.35,23,23,0,0,1,13.42,1.37c4.19,1.81,9,1.73,14.45,2.66l-18.66,10.16.28.93c4.41-.81,8.87-1.46,13.23-2.46,6.47-1.5,12.76-3.81,19.32-4.73s13.52-.6,20.29-.82c2.62-.08,5.22-.33,7,2.88.37.66,1.47,1,2.27,1.28,11.59,4.4,23.13,9.07,34.81,13.06,8.18,2.8,15.54,7.31,22.82,12.17a37.83,37.83,0,0,1,4.67,4.06q20.57,19.29,41.11,38.61a20.75,20.75,0,0,0,2.42,1.72l.91-.53c-1.5-3.4-2.59-7.09-4.55-10.14a300.89,300.89,0,0,0-36.55-46.3c-6.29-6.53-12.17-13-20-17a163.06,163.06,0,0,0-41.33-14.28c-1.32-.28-2.51-1.75-3.76-2.66a7.64,7.64,0,0,0-1.78-1.26c-12.31-4-24.19-9.76-37.06-11.2-18.21-2-64.38-.75-81.87,4.24-9,2.57,10.7,3.91,3.43,10.17a17.47,17.47,0,0,1-1.71,2.33C958.44,340.26,959,341.18,960.59,342Z" transform="translate(-763 -258.45)"/><path class="cls-3" d="M944.3,729.87a.49.49,0,0,1-.69-.34c.17-.94.33-1.89.5-2.83l-2.06,2-3.45-1.81,1.32-2.53-.75-.42-3,1.71-1.78-1-1.73-.88-2.09-1.07-1.65-1-4.27-2.41-1.11-.74-.74-1.33c.05-.28.09-.55.13-.82l-.3.73.14.3-1.34-.21-2.9-2.26c.64-.76,1.28-1.52,2.28-2.73l-4.86.73-1.55-1.22a15.31,15.31,0,0,0,.5-4.09c-.13-1.06-1.36-2.94-1.61-2.86-5.09,1.56-6.2-3.5-9.24-5.3l-3.16,2.27a.45.45,0,0,1-.56-.48l-2.74-2.33.06,0-1-.82-.09-.11c-.25-.18-.49-.38-.74-.57l-.7-.69-1-.82L891,693.21l-1.07-.91-.15-.13-.77-.55-7.09-5.72.9-7.42v0c-.3,5.24,4.5,6.43,7.39,9.28l2.59-2.49h0l1.18.71h0l2.46,1.21,2.22,1.12,7.17,2.85c-.43,2.63-1.52,5.85,3.43,5.81l.57-3.48,1.28-.21c.68,2.23.92,4.76,2.14,6.65,2.49,3.86,3.95-2.67,6.44-1l.14.24,1.29,1.21,0,0c1.85,4.81,2.84,9.73,7.38,13.55,2.65,2.23,4.54,4.36,8.2,5.29s6.87,1.63,10.3-.15l.72.45,2.13.75,1.25.58c-2.1.76-5.18,1.11-4.09,4.26.71,2,2.86,3.56,3.91,4.78l5.36-6.59a.39.39,0,0,1,.57.3l1.83.75,1.51.55c.36,1.26.71,2.53,1.06,3.79L959.4,732l1.59.58c.11-1.12.22-2.25.32-3.37a1.34,1.34,0,0,0-.13-.45l6.36-2,0,0c-.47,1.29-.93,2.58-1.62,4.46l9.09-2.77,1.08.32c.86,1.73,1.7,3.47,2.58,5.19.51,1,1.07,2,1.63,2.92s1.25,2.11,1.88,3.16c.36-1.14.67-2.31,1.11-3.43.84-2.13,1.52-5.89,2.69-6.07,5-.73,7.22-3.54,8.18-8l5.39,1.7.24.84.56-.55,3.32,1,1.9,2.45-4.87,8.66,9.73-5,.47,1c.27-1.57.55-3.14.83-4.71l2.67.53,1.23.33,0,0,4,1,.19,0,1.33.37,2.85.39,1.25.39,2,.64c.17,2.35-.13,4.85.65,7,.58,1.61,2.37,3.59,3.9,3.85s5.3-1.32,5.25-1.86c-.39-4.46,3.8-4.9,5.72-7.23l-.13.22.11-.23.85.1,15,.46,2,.12h0l2.15.21v0c3.85,1.43-28.78,23.31-28.87,26.79l2.13-.33c.12-2.66,32.53-23.6,32.65-26.26l2.89.17,7.3,1.13-.22,1.8-5.16.27-.78,1c1,.84-30.31,20.72-29.38,20.67,3.54-.19,4.64,2,5.48,4.69l.13.35-.13.35c-6.38-.76-10.76,2.73-14.76,7-1.48,1.57-2.88,3.2-4.31,4.8l-.92.16-2.93,0-1,.1-2-.13-.94.07-1.4-.26a.38.38,0,0,1-.6,0c-1.43-3.55,1.47-2.53,3.06-2.9l.44.09-.43-.09-6.88.12c-1.21-.07-2.55-.49-3.62-.12a17.31,17.31,0,0,0-3.69,2.41.86.86,0,0,1-.85.09l-5.12-.24-2.06-.05a1.31,1.31,0,0,0-.83-.08h0c-.42-3.78,28.77-22.19,26.08-22.76-4-.85-8-1.57-12.87-2.5l.63,4.94-3.08-.53-1.13-.33-1.05-.17-.9-.26-.11,0-1.42-.39-1.85-.47-2-.4L989,749.09c.12-1.81.24-3.62.45-6.67l-4.59,5.79h0c-2.35-2.31-4.62-1.17-6.89.17h0c-.34-.8-.72-1.58-1-2.4-.45-1.33-.84-2.67-1.25-4-1.35.82-2.72,1.6-4,2.47a15.61,15.61,0,0,0-1.68,1.48.46.46,0,0,1-.69-.17l-2.33-1-1.18-.48-1.48-.82a.52.52,0,0,1-.76-.31l4.84-5.66L964.69,736l-2.4,6.43-2.67-1.77c0-1.54-.07-3.08-.12-5.4-1.53,1.37-2.36,2.11-3.18,2.86l-5.47-4.25-1-.64-.18-.09-1-.57-.23-.19a1.6,1.6,0,0,0-.73-.5h-.3l-.14-.26Zm83,15.68c-.35,1.23-.94,2.16-.69,2.72s1.32.83,2,1.22a6.8,6.8,0,0,0,1.06-2.5C1029.69,746.58,1028.42,746.19,1027.3,745.55Zm14.61,17.87c-.12-.38-.24-.77-.37-1.16l-4.32,1.32c.13.38.25.77.38,1.16Zm-143.22-69.6-1.3,1.06a33.58,33.58,0,0,0,2.44,2.74,12.75,12.75,0,0,0,1.55-1.26Zm134.56,74.68v-1.74l-4.44,0c0,.42,0,.84-.08,1.26Zm-14.84,1.29c-.29,0-.66-.18-.82-.06s-.09.53-.12.81c.28,0,.65.18.81.06S1018.37,770.07,1018.41,769.79Z" transform="translate(-763 -258.45)"/><path class="cls-3" d="M807.16,473.46l1.71,7.9c.45,2.06.42,4.63,3.8,3.49a261,261,0,0,0-1.76,77.77c1.55,12.37,3.4,25,7.29,36.73a181.88,181.88,0,0,0,28.54,54.33c9.75,12.67,19.39,25.43,29.06,38.17a28.7,28.7,0,0,1,1.77,3.06l-1.09,1.39c-2.56-1.66-5.64-2.87-7.59-5.07-10.3-11.59-21.48-22.63-30.24-35.32-38.44-55.66-47.55-116.78-31.77-182.08C806.91,473.69,807.06,473.59,807.16,473.46Z" transform="translate(-763 -258.45)"/><path class="cls-3" d="M1085.43,381.72l2.34,7.79c.61,2,2.25,4.25-3.54,5.05,22.85,20.08,39.73,42.43,51,66.75,5.36,11.59,10.4,23.53,11.87,35.84,2.45,20.45-.31,41.41-9.13,62.49-6.78,16.22-13.35,32.45-20,48.69a18.93,18.93,0,0,0-.76,3.6l2.51.63c2.81-2.81,6.69-5.49,8.26-8.45,8.28-15.57,18.22-31.13,23.5-46.84,23.2-68.91-1.09-127-65.4-175.38A2.42,2.42,0,0,0,1085.43,381.72Z" transform="translate(-763 -258.45)"/><path class="cls-3" d="M869.05,510.1c3.37-27.86,13.65-53.07,29.55-76.05,7.75-11.19,18.81-18,32.47-22-1,1.57-1.82,3.42-3.16,4.66-3.56,3.31-7.37,6.36-11.06,9.53-9.26,7.95-16,17.37-19.09,29.5-1.33,5.21-4.44,10-7,14.84-6.86,12.9-11.73,26.51-12.85,41.07-.62,8,.46,16.23.92,24.34.62,10.78,1.38,21.55,2.08,32.32,0,.73,0,1.46,0,2.18l-1.28.56c-1.8-3.53-4.31-6.89-5.25-10.65-2-8.17-3.49-16.51-4.8-24.84A163.87,163.87,0,0,1,868,518.27c-.13-2.43.65-4.91,1-7.36.58,2.48,2.36,3.06,4.14,1.75a7.1,7.1,0,0,0,2.87-4.38,43.1,43.1,0,0,0-.7-8.95,7.35,7.35,0,0,0-1.09-2.19l-1.14.15-1,10.95,1.35.52Z" transform="translate(-763 -258.45)"/><path class="cls-3" d="M1195.23,589.74l14.23-8.52c-.4,1.81-.64,2.86-.85,3.93-.14.69-.21,1.39-.31,2.09l4.75-.17c-3,4.5-5.36,8.17-7.79,11.8-7.91,11.78-12.32,26.06-25,34.45-6.4,4.24-11.76,10.27-21.24,11.56l8-10.39c-1.23-2.14-2.34-4.06-4-6.91l-8.9.66c12.84-15.59,24-31.56,39.08-44.82Z" transform="translate(-763 -258.45)"/><path class="cls-3" d="M1086,468.87c-1.42-1.92-3-3.74-4.22-5.77-8.55-13.91-17.38-27.5-29.17-39.11-10.4-10.24-23.12-15.91-36.22-21.26a114.89,114.89,0,0,1-11.4-5.5c-1.13-.61-1.76-2.13-2.63-3.23,1.54-.27,3.3-1.16,4.58-.71a169.27,169.27,0,0,1,18.75,7.51,165,165,0,0,1,21.92,12.61c17.26,12.31,29.68,28.7,38.28,48,.91,2,1.17,4.39,1.73,6.6Z" transform="translate(-763 -258.45)"/><path class="cls-3" d="M931.13,647.35a31.48,31.48,0,0,1-19.2-11.12,155.81,155.81,0,0,1-14.59-21.75c-1.75-3.06-1.63-7.23-2.1-10.92a3.13,3.13,0,0,1,1.35-2.63,3.26,3.26,0,0,1,2.79,1,69.34,69.34,0,0,1,5.94,7.21q12.58,18,25,36.08A13.06,13.06,0,0,1,931.13,647.35Z" transform="translate(-763 -258.45)"/><path class="cls-3" d="M994.19,722.46c-1,4.47-3.16,7.28-8.18,8-1.17.18-1.85,3.94-2.69,6.07-.44,1.12-.75,2.29-1.11,3.43-.63-1.05-1.27-2.1-1.88-3.16s-1.12-1.93-1.63-2.92c-.88-1.72-1.72-3.46-2.58-5.19,3.59-1.34,1-2.33-.26-3.11-5.74-3.45-11.54-6.8-17.55-10.33l2.58-4.82Z" transform="translate(-763 -258.45)"/><path class="cls-3" d="M882.8,678.48l-.9,7.42c-17-12.26-28.72-28.43-36.73-47.36l1.32-1c.63.72,1.3,1.4,1.87,2.16C858.69,653.62,869.27,667.35,882.8,678.48Z" transform="translate(-763 -258.45)"/><path class="cls-3" d="M946.92,719.12c-3.43,1.78-6.64,1.08-10.3.15s-5.55-3.06-8.2-5.29c-4.54-3.82-5.53-8.74-7.38-13.55a67.37,67.37,0,0,1,5.14,5.14C931.65,712.33,939.77,715,946.92,719.12Z" transform="translate(-763 -258.45)"/><path class="cls-3" d="M1042.7,733.24c-1.92,2.33-6.11,2.77-5.72,7.23,0,.54-3.58,2.16-5.25,1.86s-3.32-2.24-3.9-3.85c-.78-2.13-.48-4.63-.65-7Z" transform="translate(-763 -258.45)"/><path class="cls-3" d="M1048.73,764c-.84-2.7-1.94-4.88-5.48-4.69-.93,0,30.36-19.83,29.38-20.67l.78-1,5.16-.27.22-1.8-7.3-1.13c-1.5-5.75,3.43-4.59,6.19-5.76-1.06,1.91-1,3.2,1.65,3.43a24.14,24.14,0,0,1,3.6.86l-3.45,1c2,2.78-28.37,23.59-26.1,26.67Z" transform="translate(-763 -258.45)"/><path class="cls-3" d="M1029.66,776.5c1.43-1.6,2.83-3.23,4.31-4.8,4-4.24,8.38-7.73,14.76-7,2.09,2.48.32,3.2-1.73,3.56-2.79.5-4.92,1.32-5.34,4.73-.13,1-2,2.36-3.31,2.63A73.89,73.89,0,0,1,1029.66,776.5Z" transform="translate(-763 -258.45)"/><path class="cls-3" d="M1127.28,509.31l1.53,2.61,1.67-1.66a122.11,122.11,0,0,1-2.31,28.6l-2.16-.17Q1126.64,524,1127.28,509.31Z" transform="translate(-763 -258.45)"/><path class="cls-3" d="M919.64,699c-2.49-1.72-3.95,4.81-6.44,1-1.22-1.89-1.46-4.42-2.14-6.65l-1.28.21-.57,3.48c-5,0-3.86-3.18-3.43-5.81l-7.17-2.85,4.18-1.27.5-1.49Z" transform="translate(-763 -258.45)"/><path class="cls-3" d="M1013.65,755.41l-.63-4.94c4.84.93,8.87,1.65,12.87,2.5,2.69.57-26.5,19-26.08,22.76C993.66,775.05,1019.8,756.1,1013.65,755.41Z" transform="translate(-763 -258.45)"/><path class="cls-3" d="M900.88,701.73l3.16-2.27c3,1.8,4.15,6.86,9.24,5.3.25-.08,1.48,1.8,1.61,2.86a15.31,15.31,0,0,1-.5,4.09Q907.63,706.73,900.88,701.73Z" transform="translate(-763 -258.45)"/><path class="cls-3" d="M869.05,510.1l4.38-1.34-1.35-.52,1-10.95,1.14-.15a7.35,7.35,0,0,1,1.09,2.19,43.1,43.1,0,0,1,.7,8.95,7.1,7.1,0,0,1-2.87,4.38c-1.78,1.31-3.56.73-4.14-1.75A.57.57,0,0,1,869.05,510.1Z" transform="translate(-763 -258.45)"/><path class="cls-3" d="M956.2,723.35l-5.36,6.59c-1.05-1.22-3.2-2.75-3.91-4.78-1.09-3.15,2-3.5,4.09-4.26Z" transform="translate(-763 -258.45)"/><path class="cls-3" d="M1011.76,727.91c-.28,1.57-.56,3.14-.83,4.71l-.47-1-9.73,5,4.87-8.66-1.9-2.45Z" transform="translate(-763 -258.45)"/><path class="cls-3" d="M1117.28,469.88c5.77,10.09,9.83,20.7,9.77,32.54Q1122.18,486.15,1117.28,469.88Z" transform="translate(-763 -258.45)"/><path class="cls-3" d="M892.78,685.29l-2.59,2.49c-2.89-2.85-7.69-4-7.39-9.28Z" transform="translate(-763 -258.45)"/><path class="cls-3" d="M970,745.93a15.61,15.61,0,0,1,1.68-1.48c1.31-.87,2.68-1.65,4-2.47.41,1.33.8,2.67,1.25,4,.27.82.65,1.6,1,2.4Z" transform="translate(-763 -258.45)"/><path class="cls-3" d="M1068.6,734.3c-.12,2.66-32.53,23.6-32.65,26.26l-2.13.33c.09-3.48,32.72-25.36,28.87-26.79Z" transform="translate(-763 -258.45)"/><path class="cls-3" d="M813,482.72c-1.83-6.29-1.12-9,2.79-10.6Z" transform="translate(-763 -258.45)"/><path class="cls-3" d="M975,728.38,966,731.15c.69-1.88,1.15-3.17,1.62-4.46Z" transform="translate(-763 -258.45)"/><path class="cls-3" d="M962.29,742.43l2.4-6.43,3.73,1.51-4.84,5.66Z" transform="translate(-763 -258.45)"/><path class="cls-3" d="M1016,773.72l6.88-.12h0c-1.59.37-4.49-.65-3.06,2.9l-5.13-.26.1-.27,1.22-2.24Z" transform="translate(-763 -258.45)"/><path class="cls-3" d="M984.87,748.21l4.59-5.79c-.21,3.05-.33,4.86-.45,6.67Z" transform="translate(-763 -258.45)"/><path class="cls-3" d="M1008.71,776a17.31,17.31,0,0,1,3.69-2.41c1.07-.37,2.41,0,3.62.12h0L1014.8,776l-.1.27Z" transform="translate(-763 -258.45)"/><path class="cls-3" d="M811.65,457.27c4.25,3.32,0,4.13-1.69,5.69Q810.82,460.11,811.65,457.27Z" transform="translate(-763 -258.45)"/><path class="cls-3" d="M961.17,728.74c-.35-1.26-.7-2.53-1.06-3.79l7.43,1.76-6.36,2Z" transform="translate(-763 -258.45)"/><path class="cls-3" d="M956.32,738.12c.82-.75,1.65-1.49,3.18-2.86,0,2.32.09,3.86.12,5.4Z" transform="translate(-763 -258.45)"/><path class="cls-3" d="M978,748.38c2.27-1.34,4.54-2.48,6.89-.17Z" transform="translate(-763 -258.45)"/><path class="cls-3" d="M814.68,449.49c1.13,2.73,1.45,5.11-2.41,5.75C813.07,453.32,813.88,451.4,814.68,449.49Z" transform="translate(-763 -258.45)"/><path class="cls-3" d="M809,466.74c3.06,2.57,0,3.46-1.32,4.81Z" transform="translate(-763 -258.45)"/><path class="cls-3" d="M942.05,728.71l2.06-2c-.17.94-.33,1.89-.5,2.83Z" transform="translate(-763 -258.45)"/><path class="cls-3" d="M915.94,712.93l4.86-.73c-1,1.21-1.64,2-2.28,2.73Z" transform="translate(-763 -258.45)"/><path class="cls-3" d="M936.16,725.66l3-1.71.75.42-1.32,2.53Z" transform="translate(-763 -258.45)"/><path class="cls-4" d="M1002.74,775.86l5.12.24Z" transform="translate(-763 -258.45)"/><path class="cls-4" d="M1019.57,729.69l-4-1Z" transform="translate(-763 -258.45)"/><path class="cls-5" d="M1132.56,500.75c.59,1.8,1.17,3.6,1.76,5.4C1133.73,504.35,1133.15,502.55,1132.56,500.75Z" transform="translate(-763 -258.45)"/><path class="cls-6" d="M816,444.1c-.3,1.15-.6,2.29-.91,3.44C815.37,446.39,815.67,445.25,816,444.1Z" transform="translate(-763 -258.45)"/><path class="cls-4" d="M896.39,687.21,893.93,686Z" transform="translate(-763 -258.45)"/><path class="cls-5" d="M1127.06,502.38l.15,3.93Z" transform="translate(-763 -258.45)"/><path class="cls-4" d="M967,744.78l2.33,1Z" transform="translate(-763 -258.45)"/><path class="cls-4" d="M944.3,729.87l3,1.76Z" transform="translate(-763 -258.45)"/><path class="cls-4" d="M897.58,698.92l2.74,2.33Z" transform="translate(-763 -258.45)"/><path class="cls-4" d="M1025.81,776.68l2.93,0Z" transform="translate(-763 -258.45)"/><path class="cls-5" d="M1130.58,507.3c0-1,.06-2,.08-3C1130.64,505.31,1130.61,506.3,1130.58,507.3Z" transform="translate(-763 -258.45)"/><path class="cls-5" d="M1130.66,504.3l.21-3Z" transform="translate(-763 -258.45)"/><path class="cls-4" d="M1062.7,734.12l-2.15-.21Z" transform="translate(-763 -258.45)"/><path class="cls-4" d="M1022.77,776.65l2,.13Z" transform="translate(-763 -258.45)"/><path class="cls-5" d="M1127.21,506.24c0,.7,0,1.41-.08,2.11C1127.16,507.65,1127.19,506.94,1127.21,506.24Z" transform="translate(-763 -258.45)"/><path class="cls-6" d="M815.82,472.12c.25-.72.5-1.44.74-2.15C816.32,470.68,816.07,471.4,815.82,472.12Z" transform="translate(-763 -258.45)"/><path class="cls-4" d="M949.77,720.32l-2.13-.75Z" transform="translate(-763 -258.45)"/><path class="cls-4" d="M1002.07,752.84l2,.4Z" transform="translate(-763 -258.45)"/><path class="cls-4" d="M1060.54,733.91l-2-.12Z" transform="translate(-763 -258.45)"/><path class="cls-4" d="M921.07,700.45l-1.29-1.21Z" transform="translate(-763 -258.45)"/><path class="cls-4" d="M928.91,721.67l1.65,1Z" transform="translate(-763 -258.45)"/><path class="cls-4" d="M932.65,723.75l1.73.88Z" transform="translate(-763 -258.45)"/><path class="cls-4" d="M1043.53,733.33l-.85-.1A.57.57,0,0,1,1043.53,733.33Z" transform="translate(-763 -258.45)"/><path class="cls-4" d="M948.69,732.57l1,.57Z" transform="translate(-763 -258.45)"/><path class="cls-4" d="M949.83,733.23l1,.64Z" transform="translate(-763 -258.45)"/><path class="cls-4" d="M958.6,724.4l-1.83-.75Z" transform="translate(-763 -258.45)"/><path class="cls-4" d="M964.34,743.48l1.48.82Z" transform="translate(-763 -258.45)"/><path class="cls-4" d="M947.73,731.88a1.6,1.6,0,0,1,.73.5Z" transform="translate(-763 -258.45)"/><path class="cls-6" d="M812.68,484.77l.27-.93Z" transform="translate(-763 -258.45)"/><path class="cls-4" d="M889,691.62l.77.55Z" transform="translate(-763 -258.45)"/><path class="cls-4" d="M889.91,692.3l1.07.91Z" transform="translate(-763 -258.45)"/><path class="cls-4" d="M894,696l1,.82Z" transform="translate(-763 -258.45)"/><path class="cls-4" d="M895.76,697.46c.25.19.49.39.74.57Z" transform="translate(-763 -258.45)"/><path class="cls-4" d="M1006,753.71l1.42.39Z" transform="translate(-763 -258.45)"/><path class="cls-4" d="M1007.49,754.12l.9.26Z" transform="translate(-763 -258.45)"/><path class="cls-4" d="M1020.43,776.46l1.4.26Z" transform="translate(-763 -258.45)"/><path class="cls-3" d="M1000.38,724.45l-.56.55-.24-.84A.58.58,0,0,1,1000.38,724.45Z" transform="translate(-763 -258.45)"/><path class="cls-4" d="M1009.44,754.55l1.13.33Z" transform="translate(-763 -258.45)"/><path class="cls-4" d="M896.59,698.14l1,.82Z" transform="translate(-763 -258.45)"/><path class="cls-4" d="M893.93,686l-1.18-.71Z" transform="translate(-763 -258.45)"/><path class="cls-4" d="M1015.66,728.77l-1.23-.33Z" transform="translate(-763 -258.45)"/><path class="cls-6" d="M815.09,447.5l-.46,1.22Z" transform="translate(-763 -258.45)"/><path class="cls-4" d="M1021.09,730.08l-1.33-.37Z" transform="translate(-763 -258.45)"/><path class="cls-4" d="M921.42,717.19l1.34.21C922.31,717.34,921.87,717.26,921.42,717.19Z" transform="translate(-763 -258.45)"/><path class="cls-4" d="M999.85,775.73a1.31,1.31,0,0,1,.83.08A.6.6,0,0,1,999.85,775.73Z" transform="translate(-763 -258.45)"/><path class="cls-4" d="M1025.19,730.86l-1.25-.39Z" transform="translate(-763 -258.45)"/><path class="cls-4" d="M923.53,718.52l1.11.74Z" transform="translate(-763 -258.45)"/><path class="cls-7" d="M1220.66,521.75l.81.1-.84-.16Z" transform="translate(-763 -258.45)"/><path class="cls-3" d="M1027.3,745.55c1.12.64,2.39,1,2.4,1.44a6.8,6.8,0,0,1-1.06,2.5c-.71-.39-1.77-.63-2-1.22S1027,746.78,1027.3,745.55Z" transform="translate(-763 -258.45)"/><path class="cls-3" d="M1041.91,763.42l-4.31,1.32c-.13-.39-.25-.78-.38-1.16l4.32-1.32C1041.67,762.65,1041.79,763,1041.91,763.42Z" transform="translate(-763 -258.45)"/><path class="cls-3" d="M898.69,693.82l2.69,2.54a12.75,12.75,0,0,1-1.55,1.26,33.58,33.58,0,0,1-2.44-2.74Z" transform="translate(-763 -258.45)"/><path class="cls-3" d="M1033.25,768.5l-4.53-.51c0-.42,0-.84.08-1.26l4.44,0Z" transform="translate(-763 -258.45)"/><path class="cls-3" d="M961.18,728.74a1.34,1.34,0,0,1,.13.45c-.1,1.12-.21,2.25-.32,3.37L959.4,732l1.77-3.24Z" transform="translate(-763 -258.45)"/><path class="cls-3" d="M1018.41,769.79c0,.28,0,.68-.13.81s-.53,0-.81-.06c0-.28,0-.69.12-.81S1018.12,769.76,1018.41,769.79Z" transform="translate(-763 -258.45)"/><path class="cls-4" d="M922.62,717.1l.3-.73c0,.27-.08.54-.13.82Z" transform="translate(-763 -258.45)"/><path class="cls-4" d="M1022.9,773.6l.43.09-.44-.09Z" transform="translate(-763 -258.45)"/><path class="cls-8" d="M1014.8,776l1.22-2.24Z" transform="translate(-763 -258.45)"/><path class="cls-3" d="M1227.86,457a166.52,166.52,0,0,0-37.18-67c-8.23-9.07-18.41-13.13-30.21-13.79,1.11,1.29,2.07,2.89,3.38,3.79,3.46,2.39,7.09,4.45,10.63,6.67a50.5,50.5,0,0,1,20.63,24.2c2,4.75,5.34,8.68,8.27,12.78,7.8,10.94,14.12,23,17.54,36.9,1.89,7.67,2.43,15.87,3.45,23.86,1.36,10.62,2.6,21.26,3.89,31.89.09.71.24,1.41.37,2.12l1.13.25c.86-3.86,2.32-7.71,2.44-11.58.26-8.41,0-16.85-.38-25.25-.26-5.76-.91-11.49-1.67-17.18-.32-2.39-1.37-4.62-2.09-6.92,0,2.55-1.39,3.53-3.07,2.68a6.38,6.38,0,0,1-3.09-3.59,51.34,51.34,0,0,1-1-8.85,9.14,9.14,0,0,1,.51-2.39l1-.12,2.68,10.41-1,.82Z" transform="translate(-763 -258.45)"/><path class="cls-3" d="M1227.86,466.92l-3.8-.28,1-.82-2.68-10.41-1,.12a9.16,9.16,0,0,0-.51,2.38,51.35,51.35,0,0,0,1,8.86,6.38,6.38,0,0,0,3.09,3.59c1.68.85,3-.13,3.07-2.68A.62.62,0,0,0,1227.86,466.92Z" transform="translate(-763 -258.45)"/><path class="cls-3" d="M1189.3,517.57a.29.29,0,0,1-.06.46l-1.7.26,1.53.78-.36,2.3-1.68-.26-.09.5,1.54,1.37-.24,1.21c-.06.38-.11.76-.16,1.14l-.21,1.39-.25,1.13c-.18,1-.36,1.92-.55,2.88l-.2.77c-.2.22-.4.45-.61.67l-.49.08.47,0,.15-.13c0,.26.09.53.14.79l-.72,2.07-2-.76,1.34,2.61-.39,1.11a9.38,9.38,0,0,0-2.41.5c-.57.28-1.4,1.34-1.31,1.46,1.87,2.58-.78,4.18-1.21,6.24l1.89,1.35a.27.27,0,0,1-.17.41c-.26.67-.53,1.33-.79,2v0c-.09.25-.18.5-.26.75l0,.07-.18.53-.26.53-.27.73-1,2.26-.31.78,0,.11-.17.54-1.86,5.1-4.37.92h0c3-.84,2.77-3.78,3.83-6l-1.91-1v0l.18-.81h0l.21-1.62.21-1.47c.07-1.52.15-3,.23-4.6,1.57-.26,3.6-.26,2.63-3l-2.08.34-.37-.68a16,16,0,0,0,3.35-2.49c1.71-2.15-2.27-1.71-1.78-3.46l.11-.12c.15-.32.3-.64.44-1v0c2.37-2,5-3.48,6.25-6.78.75-1.92,1.59-3.4,1.41-5.65s-.4-4.19-2.06-5.79l.11-.49c0-.45,0-.9,0-1.35l.09-.82c.83,1,1.62,2.72,3.19,1.49,1-.79,1.46-2.3,1.95-3.13l-4.75-1.76a.23.23,0,0,1,.05-.38l.08-1.18,0-1,1.93-1.32,2.18.38,0-1-2,.46a.6.6,0,0,0-.23.16l-2.38-3.2v0l2.83.06-3.31-4.6,0-.68c.81-.82,1.64-1.62,2.44-2.45.46-.48.9-1,1.33-1.48s1-1.11,1.43-1.67c-.72,0-1.44.07-2.15,0-1.37-.07-3.63.27-4-.36-1.37-2.69-3.39-3.39-6.1-3.08,0-1.12,0-2.25-.08-3.37l.43-.3-.41-.21-.08-2.07,1-1.55,5.83,1.09-4.67-4.54.49-.46-2.82.43-.22-1.61,0-.75v0c-.07-.81-.14-1.61-.22-2.42l0-.11c0-.27,0-.55,0-.82l-.33-1.68c0-.26,0-.52,0-.78l0-1.26a15.37,15.37,0,0,0,3.82-1.7,3.88,3.88,0,0,0,1.43-2.95c-.15-1-1.77-2.74-2.06-2.61-2.45,1.08-3.5-1.2-5.19-1.84l.15,0h-.15c0-.17-.07-.34-.11-.51q-1.31-4.27-2.62-8.57l-.32-1.15h0l-.3-1.25h0c.08-2.44,18.71,11.79,20.7,11.17l-.6-1.13c-1.53.44-19.59-13.86-21.11-13.41l-.47-1.67c-.25-1.45-.5-2.9-.76-4.34l1.06-.23,1.14,2.87.72.25c.29-.71,17.53,13.15,17.33,12.63-.79-2,.23-3,1.6-4l.17-.14h.22c.8,3.76,3.61,5.56,6.78,7,1.17.53,2.36,1,3.54,1.51l.27.48.57,1.66.25.55.32,1.17.22.52.12.84a.23.23,0,0,1,.14.33c-1.74,1.49-1.72-.34-2.23-1.17l0-.26,0,.26c.46,1.29.93,2.57,1.39,3.86a6,6,0,0,0,.62,2.07,10.52,10.52,0,0,0,2.08,1.62.51.51,0,0,1,.21.47l.85,2.94c.13.39.25.78.37,1.17a.72.72,0,0,0,.12.49v0c-2,1-18.07-12-17.87-10.37.29,2.43.65,4.84,1.06,7.76l2.67-1.31.29,1.84,0,.7c0,.21.07.42.1.63l0,.56v.06c0,.3,0,.59.05.88l.09,1.14c.06.41.11.82.17,1.23l.39,8.1-3.86,1,4.16,1.48h0c-.85,1.77.23,2.84,1.42,3.86h0c-.39.34-.76.71-1.17,1-.66.51-1.34,1-2,1.47.72.61,1.43,1.23,2.18,1.81a8.6,8.6,0,0,0,1.15.66.27.27,0,0,1,0,.42l-.11,1.51c0,.25,0,.51,0,.76l-.18,1a.31.31,0,0,1,0,.49l-4.13-1.65-.14,2.4,4.1.13c-.17.61-.33,1.23-.49,1.84l-3,1.11,2.23,1.25-1.35,3.91c-.06.23-.11.46-.17.69v.12c0,.22-.09.44-.14.66l-.06.16a.86.86,0,0,0-.14.51l.06.17-.13.13Zm-7.09-49.92c.76,0,1.4.12,1.67-.13s.21-.91.3-1.39a4,4,0,0,0-1.62-.11C1182.33,466.1,1182.35,466.89,1182.21,467.65Zm7.29-11.7-.58.44,1.57,2.19.59-.44Zm-11.81,94.33.85.53a19.83,19.83,0,0,0,1.07-1.91,8.18,8.18,0,0,0-1-.63ZM1194,459.87l-1,.34.83,2.52.73-.2Zm3.58,8.15c0,.16,0,.41.12.47s.32-.05.48-.08c0-.17,0-.41-.12-.48S1197.78,468,1197.62,468Z" transform="translate(-763 -258.45)"/><path class="cls-3" d="M1175.52,490.8c2.71-.31,4.73.39,6.1,3.08.32.63,2.58.29,4,.36.71,0,1.43,0,2.15,0-.47.56-.94,1.12-1.43,1.67s-.87,1-1.33,1.48c-.8.83-1.63,1.63-2.44,2.45-1.45-1.77-1.52-.13-1.71.75-.84,3.91-1.62,7.83-2.46,11.91l-3.22-.54C1175.26,504.79,1175.39,497.8,1175.52,490.8Z" transform="translate(-763 -258.45)"/><path class="cls-3" d="M1172.07,562.21l4.37-.92c-3.67,12-10.55,21.7-19.72,29.87l-.84-.55c.29-.49.54-1,.87-1.47C1162.65,580.62,1168.38,572,1172.07,562.21Z" transform="translate(-763 -258.45)"/><path class="cls-3" d="M1182.72,518.16c1.66,1.6,1.88,3.55,2.06,5.79s-.66,3.73-1.41,5.65c-1.29,3.3-3.88,4.81-6.25,6.78a41.38,41.38,0,0,1,1.93-3.89C1181.81,528.09,1181.74,523,1182.72,518.16Z" transform="translate(-763 -258.45)"/><path class="cls-3" d="M1172.29,461.31c1.69.64,2.74,2.92,5.19,1.84.29-.13,1.91,1.61,2.06,2.61a3.88,3.88,0,0,1-1.43,2.95,15.37,15.37,0,0,1-3.82,1.7Q1173.3,465.87,1172.29,461.31Z" transform="translate(-763 -258.45)"/><path class="cls-3" d="M1188.54,452c-1.37,1-2.39,2-1.6,4,.2.52-17-13.34-17.33-12.63l-.72-.25-1.14-2.87-1.06.23c.26,1.44.51,2.89.76,4.34-3,1.95-3.25-1.06-4.44-2.39,1.28.23,2-.06,1.62-1.59a16.07,16.07,0,0,1-.21-2.2l1.26,1.74c1.18-1.69,18.79,11.51,20.09,9.63Z" transform="translate(-763 -258.45)"/><path class="cls-3" d="M1199.25,460.37c-1.18-.5-2.37-1-3.54-1.51-3.17-1.45-6-3.25-6.78-7,1-1.65,1.75-.79,2.35.3.81,1.48,1.69,2.52,3.7,2.1.61-.12,1.72.7,2.12,1.37A44.19,44.19,0,0,1,1199.25,460.37Z" transform="translate(-763 -258.45)"/><path class="cls-3" d="M1176.58,537.44c-.49,1.75,3.49,1.31,1.78,3.46a16,16,0,0,1-3.35,2.49l.37.68,2.08-.34c1,2.79-1.06,2.79-2.63,3-.08,1.57-.16,3.08-.23,4.6l-1.52-2.11h-.94Z" transform="translate(-763 -258.45)"/><path class="cls-3" d="M1190.41,473.47l-2.67,1.31c-.41-2.92-.77-5.33-1.06-7.76-.2-1.63,15.82,11.33,17.87,10.37C1205.35,481,1189.61,469.86,1190.41,473.47Z" transform="translate(-763 -258.45)"/><path class="cls-3" d="M1181.74,547.52l-1.89-1.35c.43-2.06,3.08-3.66,1.21-6.24-.09-.12.74-1.18,1.31-1.46a9.38,9.38,0,0,1,2.41-.5Q1183.26,542.75,1181.74,547.52Z" transform="translate(-763 -258.45)"/><path class="cls-3" d="M1183.33,512.1l4.75,1.76c-.49.83-.94,2.34-1.95,3.13-1.57,1.23-2.36-.45-3.19-1.49Z" transform="translate(-763 -258.45)"/><path class="cls-3" d="M1175.23,479.82l2.82-.43-.49.46,4.67,4.54-5.83-1.09-1,1.55Z" transform="translate(-763 -258.45)"/><path class="cls-3" d="M1193.43,500a8.6,8.6,0,0,1-1.15-.66c-.75-.58-1.46-1.2-2.18-1.81.68-.48,1.36-1,2-1.47.41-.31.78-.68,1.17-1C1193.34,496.64,1193.38,498.3,1193.43,500Z" transform="translate(-763 -258.45)"/><path class="cls-3" d="M1167.92,446.47c1.52-.45,19.58,13.85,21.11,13.41l.6,1.13c-2,.62-20.62-13.61-20.7-11.17C1168.6,448.72,1168.26,447.59,1167.92,446.47Z" transform="translate(-763 -258.45)"/><path class="cls-3" d="M1182.55,500.49l3.31,4.6L1183,505Z" transform="translate(-763 -258.45)"/><path class="cls-3" d="M1192.94,505l-4.1-.13.14-2.4,4.13,1.65C1193.05,504.41,1193,504.7,1192.94,505Z" transform="translate(-763 -258.45)"/><path class="cls-3" d="M1200.3,468.61l-1.39-3.86h0c.51.83.49,2.66,2.23,1.17l.84,2.95h-.17l-1.51-.26Z" transform="translate(-763 -258.45)"/><path class="cls-3" d="M1191.87,491.12l-4.16-1.48,3.86-1Z" transform="translate(-763 -258.45)"/><path class="cls-3" d="M1203,472.3a10.52,10.52,0,0,1-2.08-1.62,6,6,0,0,1-.62-2.07h0l1.51.26h.17Z" transform="translate(-763 -258.45)"/><path class="cls-3" d="M1185.41,508.26l-1.93,1.32c-.15-1.51-.29-3-.44-4.53l2.38,3.2Z" transform="translate(-763 -258.45)"/><path class="cls-3" d="M1191.65,509.2l-2.23-1.25,3-1.11Z" transform="translate(-763 -258.45)"/><path class="cls-3" d="M1193.29,495c-1.19-1-2.27-2.09-1.42-3.86Z" transform="translate(-763 -258.45)"/><path class="cls-3" d="M1189.07,519.07l-1.53-.78,1.7-.26C1189.18,518.37,1189.13,518.72,1189.07,519.07Z" transform="translate(-763 -258.45)"/><path class="cls-4" d="M1204.06,475.71l-.85-2.94C1203.5,473.75,1203.78,474.73,1204.06,475.71Z" transform="translate(-763 -258.45)"/><path class="cls-4" d="M1174.73,475.06c.08.81.15,1.61.22,2.42C1174.88,476.67,1174.81,475.87,1174.73,475.06Z" transform="translate(-763 -258.45)"/><path class="cls-4" d="M1193.36,501.88l.11-1.51Z" transform="translate(-763 -258.45)"/><path class="cls-4" d="M1189.3,517.57l.41-2Z" transform="translate(-763 -258.45)"/><path class="cls-4" d="M1180.78,549.93c.26-.67.53-1.33.79-2C1181.31,548.6,1181,549.26,1180.78,549.93Z" transform="translate(-763 -258.45)"/><path class="cls-4" d="M1200.09,462.51l-.57-1.66Z" transform="translate(-763 -258.45)"/><path class="cls-4" d="M1168.94,449.84l.3,1.25Z" transform="translate(-763 -258.45)"/><path class="cls-4" d="M1200.66,464.23l-.32-1.17C1200.45,463.45,1200.55,463.84,1200.66,464.23Z" transform="translate(-763 -258.45)"/><path class="cls-4" d="M1182.85,516.32c0,.45,0,.9,0,1.35C1182.84,517.22,1182.84,516.77,1182.85,516.32Z" transform="translate(-763 -258.45)"/><path class="cls-4" d="M1191.18,480.51c-.06-.41-.11-.82-.17-1.23C1191.07,479.69,1191.12,480.1,1191.18,480.51Z" transform="translate(-763 -258.45)"/><path class="cls-4" d="M1169.24,451.1l.32,1.15Z" transform="translate(-763 -258.45)"/><path class="cls-4" d="M1187.62,527.85l.25-1.13C1187.79,527.1,1187.7,527.47,1187.62,527.85Z" transform="translate(-763 -258.45)"/><path class="cls-4" d="M1188.08,525.33c.05-.38.1-.76.16-1.14C1188.18,524.57,1188.13,525,1188.08,525.33Z" transform="translate(-763 -258.45)"/><path class="cls-4" d="M1172.18,460.82c0,.17.07.34.11.51A.35.35,0,0,1,1172.18,460.82Z" transform="translate(-763 -258.45)"/><path class="cls-4" d="M1190,514.58c0-.22.09-.44.14-.66C1190.07,514.14,1190,514.36,1190,514.58Z" transform="translate(-763 -258.45)"/><path class="cls-4" d="M1190.13,513.8c.06-.23.11-.46.17-.69C1190.24,513.34,1190.19,513.57,1190.13,513.8Z" transform="translate(-763 -258.45)"/><path class="cls-4" d="M1183.46,510.54l-.08,1.18Z" transform="translate(-763 -258.45)"/><path class="cls-4" d="M1193.14,503.63l.18-1Z" transform="translate(-763 -258.45)"/><path class="cls-4" d="M1189.78,515.25a.86.86,0,0,1,.14-.51C1189.87,514.91,1189.82,515.08,1189.78,515.25Z" transform="translate(-763 -258.45)"/><path class="cls-4" d="M1178.3,556.19l.17-.54Z" transform="translate(-763 -258.45)"/><path class="cls-4" d="M1180.31,551.24l.18-.53Z" transform="translate(-763 -258.45)"/><path class="cls-4" d="M1190.92,478.14c0-.29,0-.58-.05-.88C1190.89,477.56,1190.91,477.85,1190.92,478.14Z" transform="translate(-763 -258.45)"/><path class="cls-4" d="M1190.86,477.2l0-.56Z" transform="translate(-763 -258.45)"/><path class="cls-4" d="M1201,465.59l-.12-.84Z" transform="translate(-763 -258.45)"/><path class="cls-3" d="M1175.46,486.92l.41.21-.43.3A.35.35,0,0,1,1175.46,486.92Z" transform="translate(-763 -258.45)"/><path class="cls-4" d="M1190.73,476l0-.7Z" transform="translate(-763 -258.45)"/><path class="cls-4" d="M1180.53,550.64c.08-.25.17-.5.26-.75C1180.7,550.14,1180.61,550.39,1180.53,550.64Z" transform="translate(-763 -258.45)"/><path class="cls-4" d="M1175,477.46l0,.75Z" transform="translate(-763 -258.45)"/><path class="cls-4" d="M1174.66,474.13c0,.27,0,.55,0,.82C1174.69,474.68,1174.67,474.4,1174.66,474.13Z" transform="translate(-763 -258.45)"/><path class="cls-4" d="M1204.55,477.37a.72.72,0,0,1-.12-.49A.37.37,0,0,1,1204.55,477.37Z" transform="translate(-763 -258.45)"/><path class="cls-4" d="M1174.31,471.67c0,.26,0,.52,0,.78C1174.33,472.19,1174.32,471.93,1174.31,471.67Z" transform="translate(-763 -258.45)"/><path class="cls-3" d="M1182.21,467.65c.14-.76.12-1.55.35-1.63a4,4,0,0,1,1.62.11c-.09.48,0,1.13-.3,1.39S1183,467.61,1182.21,467.65Z" transform="translate(-763 -258.45)"/><path class="cls-3" d="M1189.5,456l1.58,2.19-.59.44-1.57-2.19Z" transform="translate(-763 -258.45)"/><path class="cls-3" d="M1177.69,550.28l.91-2a8.18,8.18,0,0,1,1,.63,19.83,19.83,0,0,1-1.07,1.91Z" transform="translate(-763 -258.45)"/><path class="cls-3" d="M1194,459.87l.58,2.66-.73.2-.83-2.52Z" transform="translate(-763 -258.45)"/><path class="cls-3" d="M1185.42,508.25a.6.6,0,0,1,.23-.16l2-.46,0,1-2.18-.38Z" transform="translate(-763 -258.45)"/><path class="cls-3" d="M1197.62,468c.16,0,.38-.15.48-.09s.09.31.12.48c-.16,0-.38.15-.48.08S1197.65,468.18,1197.62,468Z" transform="translate(-763 -258.45)"/><path class="cls-4" d="M1198.91,464.75l0-.26,0,.26Z" transform="translate(-763 -258.45)"/><path class="cls-8" d="M1201.81,468.87l-1.51-.26Z" transform="translate(-763 -258.45)"/></g><g id="hole3"><path class="cls-8" d="M970.06,601.45c-.2,1.86-.21,2.5-.35,3.11-.4,1.74-.87,3.46-1.3,5.18-1.78-1.11-4.15-1.82-5.23-3.41-8-11.68-11.42-24.9-12.42-38.84-.17-2.35,0-4.72,0-7.59L944.25,561c.56-4.14.59-8,1.66-11.64,3.82-12.93,10.6-23.92,22.43-31.06,1.48-.9,3.77-.44,5.69-.61-.06,1.78.35,3.73-.24,5.3-5.34,14.28-7.24,28.89-3.89,43.84,5.66,25.29,19.89,43.87,44.26,53.62,28.06,11.24,56.1,8.69,83.82-1.53,13.94-5.14,27.84-10.51,39.94-19.42,31.21-23,51.85-52.86,58.44-91.51,2.29-13.45-.09-26.83-2.44-40.12-4.71-26.72-18.41-48.08-37.79-66.68a190.44,190.44,0,0,0-50.31-35c-17-8.12-34.79-14.19-53.84-15.33-2.21-.13-4.49,1-6.73,1.59,2,1,3.82,2.28,5.89,2.87,15.65,4.45,31.31,8.91,47,13.08,13.86,3.67,24.94,11.89,36,20.52,5.66,4.44,6.86,10.82,9.91,16.41l-1.25,1.36c-3.14-2-6.41-3.85-9.38-6.09-24.31-18.33-51.41-30.88-81.6-34.19-33.62-3.68-66.1,2.41-96.52,17.85-15.21,7.72-29.09,17.19-39.51,30.95a26.17,26.17,0,0,0-4.35,9.71c-1,4.2.33,5.06,4.49,4.1,3.62-.84,7.24-1.65,10.87-2.47l.81,1.17a23.76,23.76,0,0,1-2,3.12c-5.57,6.27-11.31,12.39-16.73,18.78a26.38,26.38,0,0,0-3.74,7c-.35.84-.08,2.68.48,3a4.14,4.14,0,0,0,3.37-.12c3.23-1.67,6.27-3.72,9.49-5.42,2.26-1.19,4.7-2.06,7.06-3.07l1.08,1.28c-1.48,2.15-3,4.29-5.18,7.5,2.1-.57,3.39-.63,4.35-1.22,3.89-2.42,9.1-4.15,11.23-7.69,5.16-8.59,14-12.14,21.11-18,.62-.52.81-1.53,1.46-2.81l-8.65-1.29c1.49-2.12,2.33-4,3.72-5.2,15.38-13.72,33.43-21,54-21.39,9.48-.18,19,.37,28.48.83,4.12.19,7.62-.24,10.83-3.41,6.37-6.29,14.19-4.73,21.44-2.34,33.63,11.12,58.93,32,73.5,64.76,5,11.35,11,22.54,14.18,34.44,8.71,32.76-5.74,70-33.82,88.81-15.16,10.17-32.48,14.42-50.54,16a155,155,0,0,1-42.07-2.2,6.19,6.19,0,0,0-1.41-.18C1012.51,600,1004.74,589,998.46,576a24.69,24.69,0,0,0-2.67-4.72c-.91,13.52,9.28,20.91,16.68,30-7.06-1.51-12.2-5.77-16.47-10.92-12-14.48-13.88-38.5-4.55-54.81,4.3-7.54,10.91-12.09,19.15-14.46,6.06-1.75,12.16-3.39,18.08-5.51,1.78-.64,3-2.74,4.52-4.17-1.5-1.51-2.81-3.34-4.57-4.43s-4.06-1.54-6.41-2.36c2.12-3.78-.09-4.5-3.19-4.1-3.92.51-7.79,1.43-11.72,1.89-1.21.15-2.52-.6-3.79-.95.34-1.16.3-2.71,1.06-3.43,9.28-8.9,19.68-15.2,33.1-8.14a80.79,80.79,0,0,1,8.46,5.22c7.58,5.26,10.07,12.13,7.55,21a40.63,40.63,0,0,1-3.42,8.82c-1,1.75-3,2.91-4.6,4.34-1.28-1.46-2.6-2.89-3.83-4.4a9.62,9.62,0,0,1-.86-2.23c-8.33,3.78-16.53,7.35-24.54,11.31-1,.47-1.65,3.35-1.13,4.53,2.34,5.37,14.59,11.7,20.45,10.94.4,0,.76-.49,1.51-1l-6-4.21a50.78,50.78,0,0,1,6.28-1.28c18.79-1.16,29.17-12.08,34.87-29.13,6.75-20.19-7.11-32.67-21.65-38.94-.54-.23-1.43-.43-1.79-.15-6.43,4.94-12.44,1.09-18.18-1.23-8.08-3.27-16.23-5.59-24.92-4.41-3.23.44-6.28,2.23-9.4,3.42a44.79,44.79,0,0,1-6.12,2.35c-8,1.76-15.5,4.41-21.74,9.9-1.45,1.28-2.7,2.8-4,4.22l.72,1.46,15.32-3.63.78,1.53c-3.56,2.67-7,5.56-10.7,8-6.8,4.44-14.54,6.15-22.52,6.54-6,.3-7.44-2.21-4.93-7.66,7.29-15.83,20.29-25.23,36-31.09,6.46-2.41,13.44-3.41,20.18-5.06,2.26-.56,4.5-1.15,7-1.78a13.73,13.73,0,0,0-.86-3.16c-1.78-3-.42-4.69,2.44-5,6.1-.73,12.29-.76,18.37-1.63,10.43-1.49,20.84-3.21,31.18-5.23a10.87,10.87,0,0,1,10.06,2.59c3.88,3.49,7.28,7.62,11.51,10.6,3.32,2.35,7.53,4.54,11.43,4.72,6.6.3,11,3.31,14.81,8,14.34,18,17.09,37.91,9.4,59.36-4.66,13-10,25.73-21.53,34.46-6.41,4.85-13.15,9.07-21.77,9.76,9.75-9.63,22.07-17,26.42-31-.33-.2-.65-.52-.82-.46-6.4,2.35-6.32,2.33-8.6-4.59-.23-.7-2.69-1.5-3.31-1.08-2.06,1.41-3.69,3.42-5.59,5.09-13.61,11.94-28.51,21.47-46.82,24.32-3.26.51-6.65.19-10,.46-3.09.26-4.27,1.69-2.57,4.77,6.37,11.51,15.59,18.89,29,20.35,18.58,2,33.77-5.89,48.23-16.2,9.38-6.69,14.63-16.41,20-26.14,1.56-2.84,3.58-5.43,6-9,2.21,3.82,3.87,6.7,6.45,11.18.9-1.78,1.36-2.79,1.89-3.76,8.46-15.58,12.88-31.58,5.75-49-4.72-11.55-8.19-23.71-13.91-34.73-9.48-18.27-24.32-31.31-43.78-38.62-3.38-1.27-7.32-3.31-8.9,2.86-.25,1-4.2,1.57-6.31,1.33-8.17-.94-16.28-2.35-24.42-3.49-15.28-2.13-29.39,2.38-43.29,7.89a11.22,11.22,0,0,0-1.89,1.41l9.35,8.55c-5.86,1.2-10.49,2.34-15.18,3.08a66.31,66.31,0,0,0-36.19,17.47c-19.31,18.33-34.94,39.18-43,65a27.32,27.32,0,0,0-.91,3.67,21.36,21.36,0,0,0,.17,3.43,68.46,68.46,0,0,1,5.13-4.87c1.28-1,3.21-2.51,4.22-2.13,1.24.47,2.34,2.58,2.62,4.14,1.3,7.19-.54,14-6.07,18.49-8.8,7.14-10.22,16.81-10.53,26.78-.41,12.66.14,25.34.22,38,0,2.16-.26,4.32-.4,6.49l-1.18.37c-.64-1.22-1.59-2.36-1.86-3.65-1.51-7.27-3.24-14.51-4.14-21.86-1.2-9.73-1.64-19.56-2.53-29.34a59.53,59.53,0,0,0-1.35-6.66l-1.57-.14q-4.17,14.07-8.35,28.12l-1.05,0a39.82,39.82,0,0,1-.94-6.45c.13-9.65.54-19.3.65-29,0-3.24-.52-6.48-.8-9.72l-1.74-.83c-3.58,4.27-7.16,8.53-10.66,12.72-.55-.16-1-.16-1.11-.35-9.87-15.45-12.87-31.86-7.11-49.61,1.78-5.49,2.93-11.19,4.36-16.8l-1-.57L854.45,494l-1.11-.63c1.65-8.46,3.29-16.92,5.09-26.12,5.75-2.72,6.38-4.55,3.33-11.95-.28-.67-.57-1.78-.24-2.19,3.3-4.12,6.31-8.64,10.28-12,2.81-2.39,7.07-3,10.49-4.77s1.88-4.38,1-7c-.36-1.08-.63-2.89-.05-3.48,9.78-9.85,19.24-20.09,29.73-29.13,8.83-7.61,18.92-13.75,28.4-20.61,1.89-1.37,3.55-3,6.31-5.43-7.43.64-13.49,7-19.64.27,4.62-6.62,12-10.45,19.31-14a179.82,179.82,0,0,1,24-9.4c26.29-8.23,53.05-13.08,80.77-9.91a53.58,53.58,0,0,0,6.08,0l.22-1.58L1021,329.35c7-5.27,51.4.77,81.47,10.64,24.13,7.91,65.9,31.71,67.77,43.11l-31.56-22.57-1.36,1.34c1.9,2.12,3.65,4.4,5.72,6.34q15.8,14.87,31.73,29.58a70.33,70.33,0,0,0,7.28,6,49.58,49.58,0,0,1,17.45,22.66,172.08,172.08,0,0,1,9.38,31.22c4,20.55,5.8,41.32,1.61,62.19-5.83,29-21.38,52.62-41.38,73.67-2.71,2.85-5.86,5.3-8.84,7.89a9.43,9.43,0,0,1-2.16.92c.4-2.11.72-3.82,1.19-6.39-7.89,4.86-14.86,9.74-22.33,13.64-25.06,13.09-51.27,23.24-79.34,27.52-22,3.36-42.07-3.15-60.61-14.44-7.5-4.56-14-10.73-21-16.2C974.25,605,972.52,603.49,970.06,601.45Z" transform="translate(-763 -258.45)"/><path class="cls-9" d="M980.71,726.43c-2-2.94-4.26-5.7-5.83-8.84-4.37-8.76-13.06-12.56-20.17-18.18-12.2-9.64-21.53-21.78-29.32-35-2.09-3.55-4-8.54-.28-13,.45-.53,0-2.09-.4-3-2-4.49-3.89-9-6.06-13.36-8.5-17.27-9.39-35.51-7.14-54.18a23.51,23.51,0,0,1,.86-3.69c1.18-4.12,3-4.92,5.79-1.8a71.76,71.76,0,0,1,8,11.58c1.67,2.8,2.73,6,4.6,10.19,1.31-3.37,2.13-5.61,3-7.81,1.42-3.41,3.73-4.06,6-1.08a107.51,107.51,0,0,1,8.29,12.65c7.6,13.81,17.35,25.71,30.6,34.36,10.42,6.79,22.38,9.35,34.45,11.39,2.65.45,5.31.81,8,1.21l5.72-.11c0-.6,0-1.2,0-1.79l-2.82-1.08h0l-2.85-1-2.82-1-1.11-2.09,3-.72,1,.15,2,.69-.06,0,3.83,1h0c11.4,3.53,22.81,2.74,34.23.14,12.7-2.46,25.65-4.08,38.06-7.61,13.63-3.88,26.73-9.61,40.14-14.29,2.85-1,6.06-.95,9.1-1.42a5.7,5.7,0,0,0,2.16-.62c13.9-8.9,27.8-18.09,37.12-32,11-16.35,22.17-32.77,28-51.95,7.82-25.92,11.74-52.29,4.82-78.94a203.7,203.7,0,0,0-13.31-35.76c-10.1-21.35-24.89-39.36-42.67-54.87-4.89-4.26-10-8.2-15.08-12.28l-1.86-1.35h0c-.38-4.22-2.8-5.71-9.39-5.8l-1.06-.41-.81-.54-.08,0c-.1-3.59,2.37-2.81,4.48-2.63l8.11.67,1.7,1c.91,1.69.87,4.89,4.24,2.69l3.36,2.07c1,2.12.54,6.41,5,3.3l1.76,1.18c-.51,3.91,1.88,4.31,4.84,4a1,1,0,0,1,.76.18l1,.8,0,0,3,1.89q16.53,15.23,33,30.48a51.81,51.81,0,0,1,3.71,4.22l1.15-.72a27.12,27.12,0,0,0-1.39-4c-7.94-15.31-18.54-28.23-33.47-37.28-9.34-5.65-18.61-11.42-27.86-17.21a40,40,0,0,1-4.23-3.49l.84-1.29a70.12,70.12,0,0,1,6.83,2.44c24.05,11.3,45.41,26.18,62.71,46.66,16.68,19.74,27.42,42.31,33.56,67.28,1.08,4.4,3.44,8.46,4.81,12.8a58.73,58.73,0,0,1,.79,33.18c-.1.36-.66.59-1.59,1.4l-3-7.58-1.07-.07c-1.61,7.11-3.18,14.22-4.85,21.32-1.93,8.26-3.71,16.56-6,24.72-5.35,19.16-15.91,35.86-27.14,51.79-6.69,9.51-16.56,16.8-25.08,25-2.7,2.59-5.65,4.92-8.73,7.58,5.78,4.93,2.77,9.4.23,13.83-6.26,10.94-11.7,23-22.8,29.67-12.49,7.5-25.88,13.64-39.3,19.4-4.12,1.78-9.64.82-14.44.33-3.92-.41-4.43-2.91-1.71-5.85s5.29-5.69,7.93-8.54l-.64-1.71c-7,.51-13.93.83-20.87,1.57-21.37,2.28-42.73,4.71-64.09,7.12-1.55.17-3.41.19-4.55,1.05-7.23,5.4-14.54,2.15-21.78.38-4.45-1.09-8.73-2.85-13.18-3.93-4-1-5.14.49-3.64,4.27,2.76,7,7,12.73,14.07,15.9,8.4,3.75,16.67,6.53,26.41,5.79,8.83-.67,17.87,2.1,26.85,2.32,18.64.44,37.29.19,55.94.22,2.76,0,5.52,0,7.68,0-.68,2.93-2,5.49-1.55,7.71.28,1.45,2.92,2.86,4.77,3.48a86.47,86.47,0,0,0,9.78,2.17c0,.72,0,1.44,0,2.17-4.39.75-8.75,1.87-13.17,2.16-6.31.41-12.68.06-19,.35-1.59.08-3.13,1.38-4.69,2.12,1.14,1.34,2,3.14,3.47,3.95,9.37,5.21,19.51,4.59,29.64,3.33,9.73-1.21,19.42-2.66,29.15-3.89a49.46,49.46,0,0,1,6.21,0l.37,1.63-8.5,4.87c4.11,1,7.35,1.54,10.41,2.62,1.41.49,2.46,2,3.68,3.08-1.31.77-2.55,2.08-3.93,2.23-8.8,1-17.63,1.58-26.43,2.56-15.23,1.7-30.44,3.6-45.66,5.39-4,.47-8.05.83-12.11,1.69,15.5,6.46,32.19,6.58,48.43,9l.12,1.31a17.07,17.07,0,0,1-3.49,1q-24.4,1.51-48.82,2.89c-3.17.18-6.42.08-5.17,5.06-8.79,2.5-17.18.62-25.54-.74a205.45,205.45,0,0,1-68.9-24.37,62.9,62.9,0,0,1-21-18.78c4.62-1.48,8.76-3.58,13.72-1.27s10,4.05,15,5.88a18.54,18.54,0,0,0,4.37.51c-.15.26-.28.51-.41.76Z" transform="translate(-763 -258.45)"/><path class="cls-8" d="M823.36,527.86c.43,2.81,1.07,5.6,1.25,8.42.56,8.55,1.58,16.91,5,25,1.8,4.3,2,9.24,3.08,13.86.5,2.2,1.33,4.33,2.29,7.39a45.81,45.81,0,0,1,3.83-3.52c1.05-.77,2.62-2,3.37-1.73,1.14.49,2,2.08,2.56,3.37a15.33,15.33,0,0,1,.79,3.69c1.09,5.94,2.9,11.25,7.1,16.15,3.77,4.38,5.67,10.38,9,16.81l3.53-28.08,1.16-.09c.93,5.9,2.07,11.77,2.76,17.7,1,8.78,1.09,17.73,2.79,26.36s5,17.19,7.54,25.76c1,3.31,1.8,6.68,6.11,7.39.89.15,1.69,1.38,2.36,2.24,9.73,12.43,19.72,24.67,29,37.41,6.51,8.92,14.6,16,23,22.84a45.47,45.47,0,0,0,6.46,3.94q30,16.66,60.06,33.32a25.55,25.55,0,0,1,2.92,2.22c-.08.46-.15.92-.22,1.38-4.4-.27-9,.09-13.17-.94a329.8,329.8,0,0,1-66.71-24c-9.88-4.8-19.56-9.12-27.27-17.05a215,215,0,0,1-33.09-45c-.85-1.52-3-2.33-4.52-3.46a9.33,9.33,0,0,1-2.14-1.64c-9.51-13.54-20.93-25.68-27.89-41.09-9.85-21.82-27.64-80.15-29.37-104.35-.89-12.46,8.81,11.54,12.74-.48a24.33,24.33,0,0,0,1.88-3.22C820.55,526,821.82,526.28,823.36,527.86Z" transform="translate(-763 -258.45)"/><path class="cls-8" d="M861.44,399a.49.49,0,0,1,.53-.57l2.58,1.31-1.33-2.57,2.76-2.8,2,2,.62-.61c-.25-1.13-.51-2.26-.77-3.4l1.53-1.41,1.35-1.41,1.65-1.69,1.45-1.3,3.58-3.4,1-.86L880,382l.75.37-.62-.51-.33.05c.21-.41.4-.82.6-1.23l3-2.13,2,3c.3-2,.52-3.45.73-4.89l1.64-1.15a15.77,15.77,0,0,0,3.79,1.7c1.05.17,3.23-.45,3.23-.72,0-5.37,5.19-4.94,7.81-7.35-.4-1.17-.83-2.44-1.25-3.71a.45.45,0,0,1,.63-.39l3-2-.05.05,1.1-.77.13-.06.76-.55.87-.47,1.1-.73,3.54-2.15,1.19-.76.17-.11.76-.57,7.59-5.16,6.89,3.05h0c-5-1.84-7.53,2.44-11.12,4.39l1.64,3.22v0l-1,.93h0l-1.88,2-1.74,1.81L910,373.29c-2.4-1.19-5.18-3.19-6.61,1.59l3.19,1.57-.17,1.3c-2.36,0-4.85-.51-7,.11-4.46,1.26,1.41,4.58-1,6.48l-.27.07c-.52.29-1,.58-1.55.88l0,0c-5.18.37-10.21-.13-15.23,3.13-2.92,1.9-5.53,3.09-7.5,6.35s-3.59,6.13-2.89,10l-.64.56L869,407.1l-.93,1c-.11-2.26.46-5.33-2.9-5.19-2.16.08-4.26,1.7-5.75,2.35,2,2.93,3.37,5,4.77,7.1,0,.31-.14.47-.45.46l-1.27,1.55-1,1.29-4-.09c-.87-.89-1.74-1.77-2.6-2.66l-1,1.36c1,.44,2.09.88,3.14,1.3a1.47,1.47,0,0,0,.47,0q0,3.36.1,6.72v0l-3.82-2.87v9.57l-.63.95c-1.92.31-3.84.61-5.75,1-1.11.19-2.2.45-3.29.7s-2.4.59-3.6.89c1,.68,2,1.32,3,2.07,1.81,1.44,5.24,3.2,5.06,4.38-.78,5.05,1.29,8,5.32,10.23L850.7,454h-.88l.36.69-1.94,2.91-2.92,1.11-6.91-7.24c.77,4.37,1.35,7.6,1.92,10.83l-1.13.15,4.3,2.19L842.2,467l-.67,1.08,0,0-2.07,3.52-.07.18-.76,1.17c-.4.88-.81,1.75-1.21,2.63l-.74,1.09-1.21,1.73c-2.3-.53-4.63-1.55-6.9-1.43-1.73.09-4.16,1.24-4.87,2.63s-.28,5.49.26,5.61c4.41.93,3.6,5.1,5.28,7.63l-.18-.19.2.17c-.12.27-.23.53-.35.79l-4.86,14.32c-.23.63-.46,1.26-.7,1.9h0l-.83,2h0c-2.51,3.28-14-34.58-17.33-35.69l-.3,2.15c2.53.89,13.16,38.27,15.69,39.17l-1,2.73-3.24,6.71-1.67-.74,1.26-5-.74-1c-1.1.69-11-35.29-11.27-34.38-.87,3.46-3.29,3.88-6.13,3.9l-.38,0-.3-.23c2.61-5.92.53-11.16-2.38-16.27-1.07-1.88-2.23-3.71-3.35-5.56l.11-.93.84-2.83.21-1c.24-.64.48-1.28.71-1.92l.22-.92.66-1.28a.38.38,0,0,1,.13-.59c3.85-.33,2,2.17,1.9,3.81l-.22.39.22-.39c.63-2.22,1.27-4.44,1.9-6.66.43-1.15,1.23-2.32,1.19-3.45a18.12,18.12,0,0,0-1.24-4.27.83.83,0,0,1,.16-.84q.87-2.44,1.73-4.87l.66-2a1.35,1.35,0,0,0,.32-.78v0c3.76.71,12.92,34.24,14.26,31.81,2-3.6,3.87-7.27,6.2-11.66l-4.95-.84c.47-.94.94-1.88,1.42-2.81l.65-1c.15-.32.31-.64.47-1l.51-.8,0-.1c.27-.41.53-.83.8-1.25l1-1.64,1-1.85q3.72-5.74,7.45-11.49l6.3,2.4-4.23-6.12v0c2.92-1.59,2.49-4.11,1.86-6.69h0c.87-.09,1.74-.22,2.61-.25,1.4,0,2.81,0,4.22,0-.4-1.54-.75-3.09-1.2-4.61a16.35,16.35,0,0,0-.93-2.05.45.45,0,0,1,.36-.61l1.63-2,.81-1,1.23-1.18a.52.52,0,0,1,.52-.64l4,6.33,2.55-3.16-5.48-4.2,2.48-2,5.24,1.47c-.87-1.88-1.35-2.9-1.82-3.91l5.7-4,.92-.78.13-.15.84-.77.25-.16a1.54,1.54,0,0,0,.69-.55l.08-.29.3-.06Zm-39.5,75.34c-1.08-.7-1.8-1.53-2.42-1.46s-1.19,1-1.77,1.6c.69.62,1.3,1.52,2.1,1.75C820.24,476.38,821,475.27,821.94,474.37Zm-21.52,8.83h1.24v-4.55h-1.24ZM909.57,365.68l-.64-1.57a36.61,36.61,0,0,0-3.36,1.56,15.61,15.61,0,0,0,.77,1.86ZM798.08,473.37l1.67.49c.45-1.42.9-2.84,1.34-4.27l-1.19-.44Zm3.12-14.69c.11-.26.37-.58.3-.77s-.49-.24-.75-.35c-.11.26-.37.58-.29.77S800.94,458.57,801.2,458.68Z" transform="translate(-763 -258.45)"/><path class="cls-6" d="M1148.76,342.27l-8.11-.67c-2.11-.18-4.58-1-4.48,2.63a262.88,262.88,0,0,0-74.4-24.55c-12.37-2.14-25-4.06-37.53-3.78a183.74,183.74,0,0,0-60.73,11.53c-15.07,5.67-30.2,11.21-45.31,16.78a28.23,28.23,0,0,1-3.47.8l-1-1.46c2.36-2,4.42-4.58,7.11-5.82,14.2-6.52,28.12-14,42.93-18.75,64.91-20.67,126.47-11.49,184.74,22.91C1148.61,342,1148.67,342.14,1148.76,342.27Z" transform="translate(-763 -258.45)"/><path class="cls-10" d="M1095.27,391.12c25.85,11.44,47.13,28.75,64.58,50.83,8.51,10.75,11.84,23.42,11.65,37.74-1.21-1.46-2.75-2.76-3.56-4.41-2.14-4.4-4-9-5.92-13.45-5-11.26-12-20.54-22.81-27.07-4.63-2.81-8.33-7.22-12.24-11.12-10.41-10.39-22.09-19.09-35.79-24.44-7.57-3-15.77-4.33-23.72-6.27-10.56-2.58-21.16-5-31.75-7.5-.71-.17-1.4-.42-2.1-.63-.06-.46-.11-.93-.17-1.39,3.94-.7,7.92-2.13,11.81-1.94,8.47.43,16.93,1.5,25.34,2.68a167.27,167.27,0,0,1,17.13,3.52c2.38.6,4.54,2.07,6.8,3.14-2.56-.17-3.65,1.37-2.91,3.48a7.21,7.21,0,0,0,3.38,4c2.76,1.1,5.85,1.44,8.82,2a7.66,7.66,0,0,0,2.44-.41c.06-.39.13-.77.19-1.15l-10.26-4.15-.91,1.15Z" transform="translate(-763 -258.45)"/><path class="cls-11" d="M922.69,682c1.33,5.4,2.49,10.07,4,16.21-1.62-.91-2.56-1.46-3.52-2-.63-.33-1.29-.61-1.93-.92-.23.87-.46,1.74-1.24,4.63-3.45-4.18-6.28-7.56-9.07-11-9-11.08-21.49-19.53-25.85-34.18-2.2-7.41-6.44-14.35-4.89-23.87,3.08,4.37,5.54,7.84,7.64,10.81l7.82-1.8,2-8.76c11.24,17,23.36,32.34,31.69,50.82Z" transform="translate(-763 -258.45)"/><path class="cls-12" d="M1071.24,612.21c2.26-.79,4.48-1.76,6.79-2.36,15.92-4.15,31.61-8.67,46.25-16.61,12.93-7,22.13-17.6,31.14-28.65a115.79,115.79,0,0,1,8.64-9.36c.93-.91,2.57-1.07,3.89-1.58-.19,1.56.15,3.52-.67,4.62a169.54,169.54,0,0,1-12.74,15.85A165.19,165.19,0,0,1,1136,591.53c-16.93,13-36.37,20.16-57.49,22.77-2.24.28-4.57-.16-6.87-.26Z" transform="translate(-763 -258.45)"/><path class="cls-13" d="M944.8,410.59a31.69,31.69,0,0,1,16.36-15.23,156.48,156.48,0,0,1,25.25-7.66c3.45-.79,7.43.55,11.13,1.18a3.17,3.17,0,0,1,2.14,2.08,3.3,3.3,0,0,1-1.74,2.41,70.1,70.1,0,0,1-8.69,3.61c-14,4.56-28.06,9-42.1,13.47A13.65,13.65,0,0,1,944.8,410.59Z" transform="translate(-763 -258.45)"/><path class="cls-4" d="M853.92,449.26c-4-2.23-6.1-5.18-5.32-10.23.18-1.18-3.25-2.94-5.06-4.38-.94-.75-2-1.39-3-2.07,1.2-.3,2.39-.61,3.6-.89s2.18-.51,3.29-.7c1.91-.35,3.83-.65,5.75-1,.24,3.85,1.94,1.68,3.08.65,5-4.51,9.94-9.11,15.11-13.87l3.88,3.91Z" transform="translate(-763 -258.45)"/><path class="cls-4" d="M929,354.88l-6.89-3.05c16.8-12.76,35.83-19.31,56.42-21.46l.61,1.58c-.87.39-1.73.84-2.63,1.16C960.06,339,943.72,345.12,929,354.88Z" transform="translate(-763 -258.45)"/><path class="cls-4" d="M871,404.71c-.7-3.83.92-6.72,2.89-10s4.58-4.45,7.5-6.35c5-3.26,10.05-2.76,15.23-3.13a69.19,69.19,0,0,1-6.47,3.44C882.05,392,877.13,399.05,871,404.71Z" transform="translate(-763 -258.45)"/><path class="cls-4" d="M829.27,492.83c-1.68-2.53-.87-6.7-5.28-7.63-.54-.12-1-4.09-.26-5.61s3.14-2.54,4.87-2.63c2.27-.12,4.6.9,6.9,1.43Q832.4,485.61,829.27,492.83Z" transform="translate(-763 -258.45)"/><path class="cls-4" d="M797.84,489.59c2.84,0,5.26-.44,6.13-3.9.22-.91,10.17,35.07,11.27,34.38l.74,1-1.26,5,1.67.74,3.24-6.71c6,.25,3.41,4.66,3.73,7.66-1.54-1.58-2.81-1.89-3.8.58a24.33,24.33,0,0,1-1.88,3.22V528c-3.28,1.15-14.38-34.27-18-33C799.15,493.54,798.5,491.56,797.84,489.59Z" transform="translate(-763 -258.45)"/><path class="cls-4" d="M791.43,467.55c1.12,1.85,2.28,3.68,3.35,5.56,2.91,5.11,5,10.35,2.38,16.27-3,1.29-3.17-.63-2.92-2.71.34-2.83.17-5.12-3-6.54-1-.42-1.67-2.64-1.55-4A70,70,0,0,1,791.43,467.55Z" transform="translate(-763 -258.45)"/><path class="cls-5" d="M1020.14,640.12l-3,.72,1.11,2.09a123.28,123.28,0,0,1-26.88-10.63c.27-.67.53-1.35.8-2Z" transform="translate(-763 -258.45)"/><path class="cls-4" d="M898.43,384.34c2.39-1.9-3.48-5.22,1-6.48,2.18-.62,4.67-.11,7-.11l.17-1.3-3.19-1.57c1.43-4.78,4.21-2.78,6.61-1.59l4.85-6.07v4.39l1.28.93Z" transform="translate(-763 -258.45)"/><path class="cls-4" d="M816.45,458.33l4.95.84c-2.33,4.39-4.2,8.06-6.2,11.66-1.34,2.43-10.5-31.1-14.26-31.81C803.41,433.29,814,464.05,816.45,458.33Z" transform="translate(-763 -258.45)"/><path class="cls-4" d="M901.31,365.46c.42,1.27.85,2.54,1.25,3.71-2.62,2.41-7.82,2-7.81,7.35,0,.27-2.18.89-3.23.72a15.77,15.77,0,0,1-3.79-1.7Z" transform="translate(-763 -258.45)"/><path class="cls-14" d="M1095.27,391.12v4.62l.91-1.15,10.26,4.15c-.06.38-.13.76-.19,1.15a7.66,7.66,0,0,1-2.44.41c-3-.52-6.06-.86-8.82-2a7.21,7.21,0,0,1-3.38-4c-.74-2.11.35-3.65,2.91-3.48A.57.57,0,0,1,1095.27,391.12Z" transform="translate(-763 -258.45)"/><path class="cls-4" d="M864.22,412.4c-1.4-2.08-2.81-4.17-4.77-7.1,1.49-.65,3.59-2.27,5.75-2.35,3.36-.14,2.79,2.93,2.9,5.19Z" transform="translate(-763 -258.45)"/><path class="cls-4" d="M843.5,464.59l-4.3-2.19,1.13-.15c-.57-3.23-1.15-6.46-1.92-10.83l6.91,7.24,2.92-1.11Z" transform="translate(-763 -258.45)"/><path class="cls-5" d="M1061.07,642.08c-11.42,2.6-22.83,3.39-34.23-.14Z" transform="translate(-763 -258.45)"/><path class="cls-4" d="M919.53,362.49l-1.64-3.22c3.59-1.95,6.15-6.23,11.12-4.39Z" transform="translate(-763 -258.45)"/><path class="cls-4" d="M838.41,419.08a16.35,16.35,0,0,1,.93,2.05c.45,1.52.8,3.07,1.2,4.61-1.41,0-2.82,0-4.22,0-.87,0-1.74.16-2.61.25Z" transform="translate(-763 -258.45)"/><path class="cls-4" d="M820.63,517.47c-2.53-.9-13.16-38.28-15.69-39.17l.3-2.15c3.33,1.11,14.82,39,17.33,35.69Z" transform="translate(-763 -258.45)"/><path class="cls-6" d="M1138.12,345.21c6.59.09,9,1.58,9.39,5.8Z" transform="translate(-763 -258.45)"/><path class="cls-4" d="M853.84,429.08v-9.57l3.82,2.87C856.39,424.61,855.11,426.84,853.84,429.08Z" transform="translate(-763 -258.45)"/><path class="cls-4" d="M844.06,412.66l5.48,4.2L847,420l-4-6.33Z" transform="translate(-763 -258.45)"/><path class="cls-4" d="M798.11,455.23c-.63,2.22-1.27,4.44-1.9,6.66h0c.11-1.64,1.95-4.14-1.9-3.81q.88-2.43,1.76-4.87l.23.18c.6.61,1.21,1.22,1.81,1.84Z" transform="translate(-763 -258.45)"/><path class="cls-4" d="M831.85,432.72l4.23,6.12-6.3-2.4Z" transform="translate(-763 -258.45)"/><path class="cls-4" d="M798.06,447.51a18.12,18.12,0,0,1,1.24,4.27c0,1.13-.76,2.3-1.19,3.45h0c-.6-.62-1.21-1.23-1.81-1.84l-.23-.18Z" transform="translate(-763 -258.45)"/><path class="cls-6" d="M1163.05,351.36c-4.45,3.11-4-1.18-5-3.3Z" transform="translate(-763 -258.45)"/><path class="cls-4" d="M857.57,415.61l4,.09-3.87,6.64q-.06-3.36-.1-6.72Z" transform="translate(-763 -258.45)"/><path class="cls-4" d="M850,408.18c.47,1,.95,2,1.82,3.91l-5.24-1.47Z" transform="translate(-763 -258.45)"/><path class="cls-4" d="M833.71,426c.63,2.58,1.06,5.1-1.86,6.69Z" transform="translate(-763 -258.45)"/><path class="cls-6" d="M1169.65,356.56c-3,.29-5.35-.11-4.84-4Z" transform="translate(-763 -258.45)"/><path class="cls-6" d="M1154.7,346c-3.37,2.2-3.33-1-4.24-2.69Z" transform="translate(-763 -258.45)"/><path class="cls-4" d="M863.22,397.2l1.33,2.57L862,398.46Z" transform="translate(-763 -258.45)"/><path class="cls-4" d="M886.09,376.69c-.21,1.44-.43,2.88-.73,4.89l-2-3Z" transform="translate(-763 -258.45)"/><path class="cls-4" d="M867.88,392.42c.26,1.14.52,2.27.77,3.4l-.62.61-2-2Z" transform="translate(-763 -258.45)"/><path class="cls-4" d="M800,441.8q-.86,2.43-1.73,4.87Q799.09,444.23,800,441.8Z" transform="translate(-763 -258.45)"/><path class="cls-4" d="M839.49,471.59l2.07-3.52Z" transform="translate(-763 -258.45)"/><path class="cls-5" d="M1026.83,647.73l-5.72.11Z" transform="translate(-763 -258.45)"/><path class="cls-6" d="M1174.46,359.39l-3-1.89Z" transform="translate(-763 -258.45)"/><path class="cls-4" d="M916.62,365.41l1.88-2Z" transform="translate(-763 -258.45)"/><path class="cls-5" d="M1026.88,642l-3.83-1Z" transform="translate(-763 -258.45)"/><path class="cls-4" d="M840.4,416.51l-1.63,2Z" transform="translate(-763 -258.45)"/><path class="cls-4" d="M861.44,399l-2.57,2.36Z" transform="translate(-763 -258.45)"/><path class="cls-4" d="M905,363.11l-3,2Z" transform="translate(-763 -258.45)"/><path class="cls-4" d="M792.38,463.79l-.84,2.83Z" transform="translate(-763 -258.45)"/><path class="cls-5" d="M1021.11,643.9l2.85,1Z" transform="translate(-763 -258.45)"/><path class="cls-5" d="M1024,644.86l2.82,1.08Z" transform="translate(-763 -258.45)"/><path class="cls-4" d="M822.55,511.84l.83-2Z" transform="translate(-763 -258.45)"/><path class="cls-4" d="M793.3,460.87c-.23.64-.47,1.28-.71,1.92C792.83,462.15,793.07,461.51,793.3,460.87Z" transform="translate(-763 -258.45)"/><path class="cls-5" d="M1023.11,641l-2-.69Z" transform="translate(-763 -258.45)"/><path class="cls-6" d="M1147.51,351l1.86,1.35Z" transform="translate(-763 -258.45)"/><path class="cls-4" d="M869,407.1l1.35-1.83Z" transform="translate(-763 -258.45)"/><path class="cls-4" d="M822.33,447.93l-1,1.85Z" transform="translate(-763 -258.45)"/><path class="cls-4" d="M823.38,509.82c.24-.64.47-1.27.7-1.9Z" transform="translate(-763 -258.45)"/><path class="cls-4" d="M896.61,385.29c.51-.3,1-.59,1.55-.88C897.64,384.7,897.12,385,896.61,385.29Z" transform="translate(-763 -258.45)"/><path class="cls-4" d="M873.86,386.61l-1.45,1.3Z" transform="translate(-763 -258.45)"/><path class="cls-4" d="M870.76,389.6,869.41,391C869.85,390.54,870.31,390.07,870.76,389.6Z" transform="translate(-763 -258.45)"/><path class="cls-4" d="M828.94,493.6c.12-.26.23-.52.35-.79A.57.57,0,0,1,828.94,493.6Z" transform="translate(-763 -258.45)"/><path class="cls-4" d="M857.55,402.45l-.84.77Z" transform="translate(-763 -258.45)"/><path class="cls-4" d="M856.58,403.37l-.92.78Z" transform="translate(-763 -258.45)"/><path class="cls-4" d="M862.5,414.41l1.27-1.55Z" transform="translate(-763 -258.45)"/><path class="cls-4" d="M842.44,414.33l-1.23,1.18Z" transform="translate(-763 -258.45)"/><path class="cls-4" d="M858.49,401.74a1.54,1.54,0,0,1-.69.55Z" transform="translate(-763 -258.45)"/><path class="cls-6" d="M1136.25,344.26l.81.54Z" transform="translate(-763 -258.45)"/><path class="cls-4" d="M914.55,357l-.76.57Z" transform="translate(-763 -258.45)"/><path class="cls-4" d="M913.62,357.67l-1.19.76Z" transform="translate(-763 -258.45)"/><path class="cls-4" d="M908.89,360.58l-1.1.73Z" transform="translate(-763 -258.45)"/><path class="cls-4" d="M906.92,361.78l-.76.55Z" transform="translate(-763 -258.45)"/><path class="cls-4" d="M820.35,451.42c-.27.42-.53.84-.8,1.25Z" transform="translate(-763 -258.45)"/><path class="cls-4" d="M819.5,452.77l-.51.8Z" transform="translate(-763 -258.45)"/><path class="cls-4" d="M794.18,458.67l-.66,1.28Z" transform="translate(-763 -258.45)"/><path class="cls-4" d="M850.18,454.64l-.36-.69h.88A.58.58,0,0,1,850.18,454.64Z" transform="translate(-763 -258.45)"/><path class="cls-4" d="M818.52,454.53l-.65,1Z" transform="translate(-763 -258.45)"/><path class="cls-4" d="M906,362.39l-1.1.77Z" transform="translate(-763 -258.45)"/><path class="cls-4" d="M918.49,363.39l1-.93Z" transform="translate(-763 -258.45)"/><path class="cls-4" d="M841.53,468.09l.67-1.08Z" transform="translate(-763 -258.45)"/><path class="cls-6" d="M1171.44,357.54l-1-.8Z" transform="translate(-763 -258.45)"/><path class="cls-4" d="M838.66,472.94l.76-1.17Z" transform="translate(-763 -258.45)"/><path class="cls-4" d="M880.38,380.71c-.2.41-.39.82-.6,1.23Z" transform="translate(-763 -258.45)"/><path class="cls-4" d="M800.93,439.06a1.35,1.35,0,0,1-.32.78A.61.61,0,0,1,800.93,439.06Z" transform="translate(-763 -258.45)"/><path class="cls-4" d="M836.71,476.66l.74-1.09Z" transform="translate(-763 -258.45)"/><path class="cls-4" d="M878.48,382.35l-1,.86Z" transform="translate(-763 -258.45)"/><path class="cls-7" d="M980.71,726.43l-.34.75c.13-.25.26-.5.41-.76Z" transform="translate(-763 -258.45)"/><path class="cls-4" d="M821.94,474.37c-1,.9-1.7,2-2.09,1.89-.8-.23-1.41-1.13-2.1-1.75.58-.57,1.12-1.52,1.77-1.6S820.86,473.67,821.94,474.37Z" transform="translate(-763 -258.45)"/><path class="cls-4" d="M800.42,483.2v-4.55h1.24v4.55Z" transform="translate(-763 -258.45)"/><path class="cls-4" d="M909.57,365.68l-3.23,1.85a15.61,15.61,0,0,1-.77-1.86,36.61,36.61,0,0,1,3.36-1.56Z" transform="translate(-763 -258.45)"/><path class="cls-4" d="M798.08,473.37l1.82-4.22,1.19.44c-.44,1.43-.89,2.85-1.34,4.27Z" transform="translate(-763 -258.45)"/><path class="cls-4" d="M857.56,415.62a1.47,1.47,0,0,1-.47,0c-1.05-.42-2.1-.86-3.14-1.3l1-1.36c.86.89,1.73,1.77,2.6,2.66Z" transform="translate(-763 -258.45)"/><path class="cls-4" d="M801.2,458.68c-.26-.11-.67-.17-.74-.35s.18-.51.29-.77c.26.11.67.17.75.35S801.31,458.42,801.2,458.68Z" transform="translate(-763 -258.45)"/><path class="cls-4" d="M880.11,381.89l.62.51L880,382Z" transform="translate(-763 -258.45)"/><path class="cls-4" d="M796.21,461.89l-.22.39.22-.39Z" transform="translate(-763 -258.45)"/><path class="cls-8" d="M796.3,453.39c.6.61,1.21,1.22,1.81,1.84C797.51,454.61,796.9,454,796.3,453.39Z" transform="translate(-763 -258.45)"/></g></svg>