<svg xmlns="http://www.w3.org/2000/svg" viewBox="0 0 233.19 234.05"><defs><style>.cls-1,.cls-4{fill:#fff;}.cls-2{stroke:#000;}.cls-3{fill:#020202;}.cls-4{font-size:20.35px;font-family:Georgia;letter-spacing:0em;}.cls-5{font-size:19.07px;letter-spacing:0em;}</style></defs><g id="icon"><path d="M883.43,430.83c64.58-.12,116.54,51.32,116.64,115.48.11,66.32-51.64,117.76-118.92,117.53-59.25-.2-114.18-50.2-114.27-116.2A116.27,116.27,0,0,1,883.43,430.83Zm67.5,175.27c4.85,3.92,10.33,7.35,11.28,14.51a21,21,0,0,0,.34-7.29c-2.76-14.18-5.56-28.36-8.72-42.46-.78-3.49,0-5.17,2.75-7.37,9.7-7.85,18.9-16.31,28.6-24.16,5.41-4.38,5.32-9.5,3.58-15.25-1-3.31-2.75-4.48-5.71-1.84-3.35,3-6.6,6.1-10.08,8.93-11.54,9.38-21.81,20.69-37.05,24.48-.7.18-1.27.91-.9.63,5.21,25.53,10.26,50.27,15.39,75.43,2.1-1.84,4.05-3.38,5.8-5.12,5-4.93,4.89-9,0-14.12-1.9-2-3.49-4.28-5.22-6.44Zm-146.32,1.22c1.68-3.83,3.34-7.26,4.66-10.82a4.37,4.37,0,0,0-.47-3.51c-3.86-5.4-7.8-10.74-11.92-16-2.59-3.26-3.77-6.77-2.33-10.68,2.7-7.32,5.07-14.85,8.65-21.73a42.22,42.22,0,0,1,23.87-20.86,14.52,14.52,0,0,0,5.6-3.15,12.94,12.94,0,0,1,11.82-3.9c5.38.74,7.2-2.53,8.6-6.57-6.87-6-15.76-9.19-20.68-17.82l27.8-2.05-16.94-26.65.76-.84,21.51,7.27V445.43l22,15.3c2.53-5.93,5-11.75,8-18.83L906.31,461l15.11-11v21l21.38-5.53c-1.51,3.82-2.51,6.42-3.55,9-1.12,2.77-2.39,5.49-3.4,8.3-1.66,4.65-.69,6.41,4.06,7.49,2.75.63,6,.31,8.24,1.71,9.68,6.1,20.91,5.31,31.62,8.48-8.08-27.67-49-56.81-83.3-60.15-51.38-5-88.8,21.78-107.59,56-20.4,37.18-14.63,80.51,3.3,106.78C799.71,600.63,799.71,600.63,804.61,607.32Zm32-3.44-8.86-7.5c10.38,7.43,14.28,7.4,24-1,1.63-1.42,3.29-2.8,4.94-4.2l.62.71-7.76,8.87c2.37.71,4.14,1.62,6,1.69,2.65.09,5.8.34,7.83-.93,1.46-.91,1.59-4.17,2-6.43.19-1.05-.39-2.24-.61-3.33,6.88-2.47,14.41-14.74,14.9-26.08.78-17.75-7.32-30.49-23.54-37.64l-.34-6.47L852,526.19c-3.72-.81-7-1.89-10.36-2.19-20.38-1.81-33.56,13-38.87,25.65-2,4.78-3.83,9.63-5.75,14.45-2.77,6.95-.82,12,6,15.09,2.14,1,4.44,1.57,6.67,2.33l-.16.72h-5.38C808.29,594,824.14,604.36,836.63,603.88ZM897.4,588.1c-5,1.22-9,1.36-12.06,3.08-6,3.34-11.49,7.56-17.19,11.42,1.24,4.07,2.52,8.13,3.7,12.21,1.25,4.31,2.44,8.63,3.6,13a13.18,13.18,0,0,1,.41,2.93c.37,7.92.7,15.84,1.07,24.16,8.43-.41,15.55-.82,22.68-1.06,3.77-.13,5.33-1.85,5.16-5.62-.4-8.82.05-17.73-1.08-26.44C902.25,610.6,899.61,599.61,897.4,588.1Zm93.24-51.23c-11.15,9.51-22,18.61-32.57,28a6.9,6.9,0,0,0-2,5.41c1.63,9,3.83,17.89,5.59,26.86,1.27,6.44,2.18,12.95,3.41,20.43C985.11,593.62,992.69,567,990.64,536.87Zm-93.35,49.75c8.76,21.33,9,43.32,9.68,65.94l9.22-2.84c-1.28-4.44-1.92-8.47-3.57-12-3.9-8.38-3.79-16.17,2-23.61.16-.21,0-.63.09-1.51-2.28-1.67-4.91-3.39-7.29-5.41-1.13-1-2.5-2.46-2.54-3.75-.24-7.74-.12-15.48-.12-23.23a52.93,52.93,0,0,1,1.54,13.93c-.11,7,1.17,13.06,8.39,16.28,2.87,1.28,2.3,3.41,1,5.78C914,619.34,911,623,911.47,626c1.25,7.75,4.09,15.25,6.34,23,2-.53,3.12-.75,4.18-1.14s2-.92,3.15-1.46c-1.76-26.11-4.9-51.6-13.69-76.13-1-2.71-2.35-3.5-4.77-2.65-4.22,1.47-8.27,4.09-12.56,4.5-8.08.78-10.47,5.54-11.07,12.45-.13,1.61-.46,3.19-.79,5.4ZM887.65,539c-.21,3.54-.59,6.67-.56,9.79,0,5.07,1.51,9.69,6.25,12.24,4.58,2.48,8.64.33,12.56-2.18,1.33-.86,3.3-2.21,4.36-1.79,7,2.83,11.86-1.74,17.12-4.76.66-.38.62-2,1.14-3.81,1.09-.07,3.2-.26,5.31-.33,5.71-.17,8.32-2.47,8.49-8.18.25-8.18-4.1-13.75-10.8-17.8-1.37-.83-2.79-1.56-5.33-3l6.12-.3c-3.1-7.63-6-14.72-9.29-22.84-3.48,9.21-7.63,12.83-13.79,13A12.72,12.72,0,0,1,897,500.5c-3.17-8.71,2.78-13.28,8.37-18.22a30.71,30.71,0,0,0-8.76,6.37c-2.63,2.88-5.42,3.76-9.24,3.33s-8-.1-12-.1l0,2.26c1.6-.08,3.21-.05,4.79-.27a13.93,13.93,0,0,1,13.62,5.56c3.28,4.16,3,8.9.7,13.19-2.39,4.56-6.44,7.1-11.94,6.31-2.49-.37-5-.8-9.19-1.48,3.82,8.61,7.19,16.19,10.63,24ZM812.78,617H814a61.25,61.25,0,0,1,0,7.3c-.47,3.93,1.09,6.33,4.28,8.65a116.52,116.52,0,0,0,34.55,17.49,33,33,0,0,0,4.62.51C851.15,640,845.9,630,839.75,620.63c-2.9-4.44-7.83-7.65-4.12-13L810,596.43c-1.41,7.48-3.08,15-4,22.7-.2,1.53,2.27,3.39,3.5,5.1a36.12,36.12,0,0,0,2.55-4A14,14,0,0,0,812.78,617Zm136.94-99.13c-2.17,1.93-4,3.85-6.1,5.38-2.71,2-3.27,3.8-1.74,7.08,5.22,11.25,2.78,16.49-8.76,20.83-1.71.64-2.94,2.56-4.4,3.88,22.87-4.2,37.15-20.28,53.84-34.7l-43.72-10.88-.64,1.48ZM876,654.84c-1.32-7.75-2.27-14.32-3.68-20.78-.24-1.11-3-2.82-3.64-2.48-1.67.86-4.14,1.82-2.37,5.06,1.62,3,2.28,6.43,3.37,9.67a146.85,146.85,0,0,1-14.61-20.91c-2.18-3.9-2.88-8.64-4.18-13-.74-2.52-1-5.28-2.17-7.54-.52-1-2.9-1.31-4.44-1.3-.94,0-1.88,1.19-3.32,2.19,0-.12.62,1.14.25,1.62a50.56,50.56,0,0,1-4,4c-1.59,1.66-1.65,2.76,1.08,3.13.69.09,1.4,1.19,1.83,2,6,10.93,11.88,21.9,17.92,32.8.74,1.34,2,3,3.25,3.32C865.81,653.59,870.41,654,876,654.84Zm73.54-158.9c-.5,3.42-.41,6.14-1.34,8.45-1.9,4.73-1.78,5.59,3.46,6.8,9.07,2.09,18.19,4,27.31,5.86,2.5.52,5.06.74,8.35,1.2-1.76-5.14-3.09-9.42-4.75-13.56a4.64,4.64,0,0,0-3-2.3C969.63,500.14,959.56,498.06,949.58,495.94ZM874.15,627.8c-2.16-6.35-4.57-13.68-7.21-20.93A3.75,3.75,0,0,0,864,605c-3.9.16-7.79.7-13.07,1.25,3.77,9.72,7.28,18.79,10.46,27Zm19.9-121.38c.05-6.14-4-10.44-10-10.59-6.39-.16-11.53,4.38-11.7,10.31-.18,6.34,4.6,11.65,10.42,11.58C889.46,517.64,894,513.11,894.05,506.42ZM920.19,496a10.68,10.68,0,0,0-10.77-10.78,11.38,11.38,0,0,0-11.34,11,10.84,10.84,0,0,0,11,11A11.36,11.36,0,0,0,920.19,496Zm-50.74-2.43c-6.27,1.29-7.17,6.82-9.27,11.5-.2-2.15-.41-4.31-.62-6.46l-1.38.08.48,7.88-.73.36-1.75-3.35-1.14.86c2.09,4.81,4.29,9.57,6.25,14.42,3,7.38,2.9,7.42,10.89,6.9a19.62,19.62,0,0,0,2.56-.66c-1.86-4.71-3.45-9.32-5.5-13.73s-1.88-8,1.7-11.31a30.32,30.32,0,0,0,2.34-2.71l-1.14-1.12-8.33,8-.82-.37Zm39.94-17c3.89,2.69,9.8-.61,12.25,4.33l-11.28-.61-.34,1.73c7.41-.49,11.62,2.59,13.37,9.86,1,4.16,3.25,8.33,8.42,10.41,1.41-2.94,4.33-6.12,3.73-8.32-1.72-6.22-4.88-12-7.64-18.4-.61,1.7-.9,3.37-1.28,3.39-1.45.08-3.43.15-4.32-.71C918.45,474.59,914.27,475,909.39,476.61Zm-5.32-2.27c-11.05-6.12-29.57-1-33,11.61C883.63,486.88,894.59,482.63,904.07,474.34ZM886.29,573c7.54-2.66,14.68-5.12,21.75-7.78.75-.28,1.06-1.73,1.57-2.65a11.18,11.18,0,0,0-3.25-1.14c-.9,0-1.83.69-2.76,1.07-7.39,3-11.7,1.7-16.24-4.88a26,26,0,0,0-3-3.07l-1.11.69C884.22,560.71,885.14,566.19,886.29,573Zm-15.16-84.37.21,2.13a20.09,20.09,0,0,0,3.45.2c3.24-.35,6.54-1.53,9.66-1.14,5.54.7,9.76-.37,13.54-4.82,2.38-2.81,6-4.58,9.53-7.16-4.16-2-7-.34-9,1.91-4.82,5.46-10.72,7.19-17.76,7C877.58,486.7,874.35,488,871.13,488.63Zm40,72.69c1.78,5.14,6,5.68,9.42,5.28,2.61-.31,5.05-3.05,7.24-5.07.53-.48.08-2.59-.54-3.54a3.28,3.28,0,0,0-2.94-.79C920.05,558.37,915.88,559.8,911.12,561.32Zm22-57.27,13.24,5.2-2-4.67a26.21,26.21,0,0,0,3.1-4.19c.19-.39-.83-1.75-1.56-2.12C940.41,495.47,935.8,497.41,933.17,504.05ZM938.88,525l8-7.09-8.52-4C938.34,518,933.39,521.13,938.88,525Zm-55.67,17.6-1.83.13c-.43,2.33-1.22,4.68-1.12,7,0,1.12,1.76,2.17,2.72,3.25.65-1.13,1.92-2.31,1.84-3.39A43.57,43.57,0,0,0,883.21,542.6Zm50.92-23.34c3.38-5.46,2.16-9-3.42-10.35C931.86,512.38,932.91,515.58,934.13,519.26ZM946,493.14l-8.63-1.27C940.23,496.59,942.67,497,946,493.14ZM802.86,609l-1.76-.43c-.52,1.64-1.45,3.28-1.43,4.92,0,1.15,1.31,2.28,2,3.43l1.16-.52Z" transform="translate(-766.88 -430.83)"/><path class="cls-1" d="M804.61,607.32c-4.9-6.69-4.9-6.69-12.43-4.29-17.93-26.27-23.7-69.6-3.3-106.78,18.79-34.23,56.21-61,107.59-56,34.25,3.34,75.22,32.48,83.3,60.15-10.71-3.17-21.94-2.38-31.62-8.48-2.22-1.4-5.49-1.08-8.24-1.71-4.75-1.08-5.72-2.84-4.06-7.49,1-2.81,2.28-5.53,3.4-8.3,1-2.59,2-5.19,3.55-9l-21.38,5.53V450l-15.11,11L895.6,441.9c-3,7.08-5.49,12.9-8,18.83l-22-15.3v24.63L844,462.79l-.76.84,16.94,26.65-27.8,2.05c4.92,8.63,13.81,11.78,20.68,17.82-1.4,4-3.22,7.31-8.6,6.57a12.94,12.94,0,0,0-11.82,3.9,14.52,14.52,0,0,1-5.6,3.15,42.22,42.22,0,0,0-23.87,20.86c-3.58,6.88-6,14.41-8.65,21.73-1.44,3.91-.26,7.42,2.33,10.68,4.12,5.21,8.06,10.55,11.92,16a4.37,4.37,0,0,1,.47,3.51C808,600.06,806.29,603.49,804.61,607.32Z" transform="translate(-766.88 -430.83)"/><path class="cls-1" d="M836.63,603.88c-12.49.48-28.34-9.88-32.46-21.64h5.38l.16-.72c-2.23-.76-4.53-1.36-6.67-2.33-6.87-3.13-8.82-8.14-6-15.09,1.92-4.82,3.74-9.67,5.75-14.45,5.31-12.63,18.49-27.46,38.87-25.65,3.35.3,6.64,1.38,10.36,2.19l3.75-4.64.34,6.47c16.22,7.15,24.32,19.89,23.54,37.64-.49,11.34-8,23.61-14.9,26.08.22,1.09.8,2.28.61,3.33-.41,2.26-.54,5.52-2,6.43-2,1.27-5.18,1-7.83.93-1.81-.07-3.58-1-6-1.69l7.76-8.87-.62-.71c-1.65,1.4-3.31,2.78-4.94,4.2-9.68,8.42-13.58,8.45-24,1ZM863.27,561c-.34-2.64-.56-6-1.2-9.22-4.13-20.95-22.89-28-39.92-15.15a43.61,43.61,0,0,0-3.51,2.81c-7.9,7.43-15.87,14.86-18.84,25.84-1.83,6.77-.49,9.79,6.18,11.85,9.89,3.06,17.73,8.78,24.62,16.31,5.69,6.22,10.12,6.68,17,1.78C859,587,862.55,575,863.27,561Z" transform="translate(-766.88 -430.83)"/><path class="cls-1" d="M897.4,588.1c2.21,11.51,4.85,22.5,6.29,33.64,1.13,8.71.68,17.62,1.08,26.44.17,3.77-1.39,5.49-5.16,5.62-7.13.24-14.25.65-22.68,1.06-.37-8.32-.7-16.24-1.07-24.16a13.18,13.18,0,0,0-.41-2.93c-1.16-4.33-2.35-8.65-3.6-13-1.18-4.08-2.46-8.14-3.7-12.21,5.7-3.86,11.2-8.08,17.19-11.42C888.41,589.46,892.36,589.32,897.4,588.1Z" transform="translate(-766.88 -430.83)"/><path class="cls-1" d="M951,606c1.73,2.16,3.32,4.45,5.22,6.44,4.87,5.11,5,9.19,0,14.12-1.75,1.74-3.7,3.28-5.8,5.12-5.13-25.16-10.18-49.9-15.39-75.43-.37.28.2-.45.9-.63,15.24-3.79,25.51-15.1,37.05-24.48,3.48-2.83,6.73-5.94,10.08-8.93,3-2.64,4.71-1.47,5.71,1.84,1.74,5.75,1.83,10.87-3.58,15.25-9.7,7.85-18.9,16.31-28.6,24.16-2.72,2.2-3.53,3.88-2.75,7.37,3.16,14.1,6,28.28,8.72,42.46a21,21,0,0,1-.34,7.29c-1-7.16-6.43-10.59-11.28-14.51,1.36-3.52,2.78-7,4-10.57.58-1.64,1.69-3.84,1.09-5-4.16-8.26-8.71-16.33-13.13-24.46l-1.24.68c3.34,6.22,6.37,12.64,10.13,18.59,2.68,4.25,3.07,7.8.6,12.29C951.13,599.94,951.43,603.18,951,606Z" transform="translate(-766.88 -430.83)"/><path class="cls-1" d="M990.64,536.87c2.05,30.08-5.53,56.75-25.56,80.65-1.23-7.48-2.14-14-3.41-20.43-1.76-9-4-17.86-5.59-26.86a6.9,6.9,0,0,1,2-5.41C968.67,555.48,979.49,546.38,990.64,536.87Z" transform="translate(-766.88 -430.83)"/><path class="cls-1" d="M897.29,586.62l-15,3.3c.33-2.21.66-3.79.79-5.4.6-6.91,3-11.67,11.07-12.45,4.29-.41,8.34-3,12.56-4.5,2.42-.85,3.79-.06,4.77,2.65,8.79,24.53,11.93,50,13.69,76.13-1.14.54-2.11,1.09-3.15,1.46s-2.19.61-4.18,1.14c-2.25-7.75-5.09-15.25-6.34-23-.48-3,2.55-6.61,4.26-9.79,1.27-2.37,1.84-4.5-1-5.78-7.22-3.22-8.5-9.27-8.39-16.28a52.93,52.93,0,0,0-1.54-13.93c0,7.75-.12,15.49.12,23.23,0,1.29,1.41,2.79,2.54,3.75,2.38,2,5,3.74,7.29,5.41,0,.88.07,1.3-.09,1.51-5.8,7.44-5.91,15.23-2,23.61,1.65,3.57,2.29,7.6,3.57,12L907,652.56C906.32,629.94,906.05,608,897.29,586.62Z" transform="translate(-766.88 -430.83)"/><path class="cls-1" d="M887.65,539,884,541.41c-3.44-7.77-6.81-15.35-10.63-24,4.21.68,6.7,1.11,9.19,1.48,5.5.79,9.55-1.75,11.94-6.31,2.26-4.29,2.58-9-.7-13.19a13.93,13.93,0,0,0-13.62-5.56c-1.58.22-3.19.19-4.79.27l0-2.26c4,0,8.06-.34,12,.1s6.61-.45,9.24-3.33a30.71,30.71,0,0,1,8.76-6.37c-5.59,4.94-11.54,9.51-8.37,18.22a12.72,12.72,0,0,0,12.2,8.63c6.16-.18,10.31-3.8,13.79-13,3.31,8.12,6.19,15.21,9.29,22.84l-6.12.3c2.54,1.4,4,2.13,5.33,3,6.7,4,11.05,9.62,10.8,17.8-.17,5.71-2.78,8-8.49,8.18-2.11.07-4.22.26-5.31.33-.52,1.84-.48,3.43-1.14,3.81-5.26,3-10.08,7.59-17.12,4.76-1.06-.42-3,.93-4.36,1.79-3.92,2.51-8,4.66-12.56,2.18-4.74-2.55-6.21-7.17-6.25-12.24C887.06,545.71,887.44,542.58,887.65,539Zm31.51-18.43c-5.21,1.59-10.75,2.51-15.54,4.92-9.64,4.87-15.29,13.11-14.71,24.07.19,3.53,3.29,7.44,6.1,10,1.25,1.17,6.23.55,7.56-1,8.23-9.4,18.22-12.8,30.5-11.63,4.91.46,7.26-3.17,6.89-8.27C939.19,528.2,931,521.26,919.16,520.61Zm-21.24-8-1.16.63c1.42,2.85,2.68,5.81,4.37,8.5a4.06,4.06,0,0,0,3.33,1.29c.63-.08,1.6-1.85,1.49-2.75-.36-3.11-1.13-6.17-1.74-9.25l-1.39.25.87,9.06-1,.26Zm-6,10.67-.39-1.67L878.63,524l.3,1.5Zm21.19-11c5.52.64,10.81-2.33,11.53-6.33Z" transform="translate(-766.88 -430.83)"/><path class="cls-1" d="M812.78,617a14,14,0,0,1-.75,3.26,36.12,36.12,0,0,1-2.55,4c-1.23-1.71-3.7-3.57-3.5-5.1,1-7.66,2.64-15.22,4-22.7l25.6,11.18c-3.71,5.37,1.22,8.58,4.12,13,6.15,9.41,11.4,19.41,17.66,30.27a33,33,0,0,1-4.62-.51,116.52,116.52,0,0,1-34.55-17.49c-3.19-2.32-4.75-4.72-4.28-8.65a61.25,61.25,0,0,0,0-7.3Z" transform="translate(-766.88 -430.83)"/><path class="cls-1" d="M949.72,517.83,938.2,510.9l.64-1.48,43.72,10.88c-16.69,14.42-31,30.5-53.84,34.7,1.46-1.32,2.69-3.24,4.4-3.88,11.54-4.34,14-9.58,8.76-20.83-1.53-3.28-1-5.12,1.74-7.08C945.72,521.68,947.55,519.76,949.72,517.83Z" transform="translate(-766.88 -430.83)"/><path class="cls-1" d="M876,654.84c-5.63-.81-10.23-1.25-14.71-2.25-1.28-.28-2.51-2-3.25-3.32-6-10.9-11.94-21.87-17.92-32.8-.43-.78-1.14-1.88-1.83-2-2.73-.37-2.67-1.47-1.08-3.13a50.56,50.56,0,0,0,4-4c.37-.48-.27-1.74-.25-1.62,1.44-1,2.38-2.19,3.32-2.19,1.54,0,3.92.32,4.44,1.3,1.2,2.26,1.43,5,2.17,7.54,1.3,4.38,2,9.12,4.18,13a146.85,146.85,0,0,0,14.61,20.91c-1.09-3.24-1.75-6.71-3.37-9.67-1.77-3.24.7-4.2,2.37-5.06.67-.34,3.4,1.37,3.64,2.48C873.77,640.52,874.72,647.09,876,654.84Z" transform="translate(-766.88 -430.83)"/><path class="cls-1" d="M949.58,495.94c10,2.12,20,4.2,30.08,6.45a4.64,4.64,0,0,1,3,2.3c1.66,4.14,3,8.42,4.75,13.56-3.29-.46-5.85-.68-8.35-1.2-9.12-1.89-18.24-3.77-27.31-5.86-5.24-1.21-5.36-2.07-3.46-6.8C949.17,502.08,949.08,499.36,949.58,495.94Z" transform="translate(-766.88 -430.83)"/><path class="cls-1" d="M874.15,627.8l-12.75,5.5c-3.18-8.22-6.69-17.29-10.46-27,5.28-.55,9.17-1.09,13.07-1.25a3.75,3.75,0,0,1,2.93,1.83C869.58,614.12,872,621.45,874.15,627.8Z" transform="translate(-766.88 -430.83)"/><path class="cls-1" d="M894.05,506.42c0,6.69-4.59,11.22-11.32,11.3-5.82.07-10.6-5.24-10.42-11.58.17-5.93,5.31-10.47,11.7-10.31C890,496,894.1,500.28,894.05,506.42Z" transform="translate(-766.88 -430.83)"/><path class="cls-1" d="M920.19,496a11.36,11.36,0,0,1-11.06,11.22,10.84,10.84,0,0,1-11-11,11.38,11.38,0,0,1,11.34-11A10.68,10.68,0,0,1,920.19,496Z" transform="translate(-766.88 -430.83)"/><path class="cls-1" d="M869.45,493.58,863,503.87l.82.37,8.33-8,1.14,1.12a30.32,30.32,0,0,1-2.34,2.71c-3.58,3.34-3.68,7-1.7,11.31s3.64,9,5.5,13.73a19.62,19.62,0,0,1-2.56.66c-8,.52-7.92.48-10.89-6.9-2-4.85-4.16-9.61-6.25-14.42l1.14-.86,1.75,3.35.73-.36-.48-7.88,1.38-.08c.21,2.15.42,4.31.62,6.46C862.28,500.4,863.18,494.87,869.45,493.58Z" transform="translate(-766.88 -430.83)"/><path class="cls-1" d="M909.39,476.61c4.88-1.6,9.06-2,12.91,1.68.89.86,2.87.79,4.32.71.38,0,.67-1.69,1.28-3.39,2.76,6.37,5.92,12.18,7.64,18.4.6,2.2-2.32,5.38-3.73,8.32-5.17-2.08-7.41-6.25-8.42-10.41-1.75-7.27-6-10.35-13.37-9.86l.34-1.73,11.28.61C919.19,476,913.28,479.3,909.39,476.61Z" transform="translate(-766.88 -430.83)"/><path class="cls-1" d="M904.07,474.34c-9.48,8.29-20.44,12.54-33,11.61C874.5,473.29,893,468.22,904.07,474.34Z" transform="translate(-766.88 -430.83)"/><path class="cls-1" d="M886.29,573c-1.15-6.81-2.07-12.29-3-17.76l1.11-.69a26,26,0,0,1,3,3.07c4.54,6.58,8.85,7.91,16.24,4.88.93-.38,1.86-1.11,2.76-1.07a11.18,11.18,0,0,1,3.25,1.14c-.51.92-.82,2.37-1.57,2.65C901,567.88,893.83,570.34,886.29,573Z" transform="translate(-766.88 -430.83)"/><path class="cls-1" d="M871.13,488.63c3.22-.66,6.45-1.93,9.66-1.85,7,.16,12.94-1.57,17.76-7,2-2.25,4.81-3.95,9-1.91-3.54,2.58-7.15,4.35-9.53,7.16-3.78,4.45-8,5.52-13.54,4.82-3.12-.39-6.42.79-9.66,1.14a20.09,20.09,0,0,1-3.45-.2Z" transform="translate(-766.88 -430.83)"/><path class="cls-1" d="M911.12,561.32c4.76-1.52,8.93-3,13.18-4.12a3.28,3.28,0,0,1,2.94.79c.62,1,1.07,3.06.54,3.54-2.19,2-4.63,4.76-7.24,5.07C917.16,567,912.9,566.46,911.12,561.32Z" transform="translate(-766.88 -430.83)"/><path class="cls-1" d="M933.17,504.05c2.63-6.64,7.24-8.58,12.81-5.78.73.37,1.75,1.73,1.56,2.12a26.21,26.21,0,0,1-3.1,4.19l2,4.67Z" transform="translate(-766.88 -430.83)"/><path class="cls-1" d="M938.88,525c-5.49-3.87-.54-7-.55-11.07l8.52,4Z" transform="translate(-766.88 -430.83)"/><path class="cls-1" d="M883.21,542.6a43.57,43.57,0,0,1,1.61,7c.08,1.08-1.19,2.26-1.84,3.39-1-1.08-2.67-2.13-2.72-3.25-.1-2.32.69-4.67,1.12-7Z" transform="translate(-766.88 -430.83)"/><path class="cls-1" d="M934.13,519.26c-1.22-3.68-2.27-6.88-3.42-10.35C936.29,510.27,937.51,513.8,934.13,519.26Z" transform="translate(-766.88 -430.83)"/><path class="cls-1" d="M946,493.14c-3.34,3.89-5.78,3.45-8.63-1.27Z" transform="translate(-766.88 -430.83)"/><path class="cls-1" d="M802.86,609v7.4l-1.16.52c-.72-1.15-2-2.28-2-3.43,0-1.64.91-3.28,1.43-4.92Z" transform="translate(-766.88 -430.83)"/><path d="M863.27,561c-.72,14-4.25,26-15.69,34.22-6.86,4.9-11.29,4.44-17-1.78-6.89-7.53-14.73-13.25-24.62-16.31-6.67-2.06-8-5.08-6.18-11.85,3-11,10.94-18.41,18.84-25.84a43.61,43.61,0,0,1,3.51-2.81c17-12.9,35.79-5.8,39.92,15.15C862.71,555,862.93,558.36,863.27,561Z" transform="translate(-766.88 -430.83)"/><path d="M951,606c.42-2.85.12-6.09,1.41-8.45,2.47-4.49,2.08-8-.6-12.29-3.76-5.95-6.79-12.37-10.13-18.59l1.24-.68c4.42,8.13,9,16.2,13.13,24.46.6,1.21-.51,3.41-1.09,5-1.26,3.56-2.68,7.05-4,10.57Z" transform="translate(-766.88 -430.83)"/><path d="M919.16,520.61c11.83.65,20,7.59,20.8,18.16.37,5.1-2,8.73-6.89,8.27-12.28-1.17-22.27,2.23-30.5,11.63-1.33,1.52-6.31,2.14-7.56,1-2.81-2.6-5.91-6.51-6.1-10-.58-11,5.07-19.2,14.71-24.07C908.41,523.12,914,522.2,919.16,520.61Z" transform="translate(-766.88 -430.83)"/><path d="M897.92,512.61l4.73,8,1-.26-.87-9.06,1.39-.25c.61,3.08,1.38,6.14,1.74,9.25.11.9-.86,2.67-1.49,2.75a4.06,4.06,0,0,1-3.33-1.29c-1.69-2.69-3-5.65-4.37-8.5Z" transform="translate(-766.88 -430.83)"/><path d="M891.9,523.28l-13,2.2-.3-1.5,12.88-2.37Z" transform="translate(-766.88 -430.83)"/><path d="M913.09,512.29,924.62,506C923.9,510,918.61,512.93,913.09,512.29Z" transform="translate(-766.88 -430.83)"/><circle class="cls-2" cx="140.73" cy="66.96" r="0.76"/><circle class="cls-2" cx="115.84" cy="79.36" r="0.76"/></g><g id="text"><rect class="cls-3" x="51.03" y="198.36" width="131.13" height="35.69"/><text class="cls-4" transform="translate(69.51 223.9)">E<tspan class="cls-5" x="13.21" y="0">PISODES</tspan></text></g></svg>