<svg xmlns="http://www.w3.org/2000/svg" viewBox="0 0 237.58 237.24"><defs><style>.cls-1,.cls-4{fill:#fff;}.cls-2{stroke:#000;}.cls-3{fill:#020202;}.cls-4{font-size:19.07px;font-family:Georgia;letter-spacing:0em;}</style></defs><g id="icon"><path d="M958.21,422.75c62.11-2.91,119.72,51.3,119.08,119-.62,64.92-53.71,118-119.29,118.17-63.51.12-117.75-54.15-118.28-117.36C839.13,472.82,898.79,419.71,958.21,422.75ZM953,558a57,57,0,0,0,2-7.5c.19-1.31-.31-3.68-1.12-4a65,65,0,0,0-9-2.35l-1.27,1.75L953,558c3.69,4.06,7.36,8.14,11.07,12.17,4.06,4.42,9.46,8.05,9.11,15.31l6.65-10.27c-5.84-1.81-13.13-7.06-13-10,.3-5.46-2.59-6.39-7-6.4A60.8,60.8,0,0,1,953,558Zm52.39-49.62-.66-.73,13.66-2.42c-.24-8-2.73-11.68-10.54-13.33-7.65-1.62-15.28-1.49-21.94,3.61-3.7,2.83-7.21,6-11.12,8.47-1.61,1-4,.83-6.86,1.33a28.87,28.87,0,0,0-.58,5.61c.52,10.63,1,21.27,2,31.85.6,6.13-.51,13.62,7.36,15.56,6.88-3.07,13.3-5.79,19.58-8.8,5.64-2.7,11.25-4.55,17.74-4.13,2.1.14,5.82-2.52,6.33-4.53,1-4,.3-8.41.3-13l-9.17,3.08-.5-1.25c1.42-.6,2.81-1.25,4.25-1.79,4.9-1.85,6.79-5.47,6.54-10.56-.24-4.81-2.78-8-7.19-9.05C1011.67,507.61,1008.45,508.31,1005.37,508.4Zm7.11-61.7c-1.94-1.25-2.71-1.86-3.58-2.29-34-16.93-68.19-17-101.64.63-44.11,23.22-65.89,72.95-54.44,121.58,4.54,19.3,14.16,35.81,27.78,50,1.25,1.31,4.39,2.5,5.59,1.84,3.07-1.69,5.54-4.47,7.85-6.47-2.34-5.46-3.81-10.48-6.46-14.78-9.92-16.14-7.11-34.59,7.49-46.48a43.1,43.1,0,0,0,4.16-3.58c3.08-3.22,1.61-7.35-2.5-9-3.05-1.2-6.71-2.82-8.33-5.38-7.21-11.37-13.81-23.12-20.58-34.77-2.47-4.26-.89-7.62,2.58-10.49a9.94,9.94,0,0,1,11.28-1.16A120.91,120.91,0,0,1,899,496.3c14.58,10.51,28.83,21.49,43.25,32.23,1.92,1.44,4.07,2.57,6.52,4.1,2-4.64-.64-6.73-3.3-8.2-4.51-2.48-9.34-4.36-13.93-6.69-1.22-.62-2.07-2-3.08-3,1.17-1,2.2-2.47,3.56-2.9,3.15-1,6.48-1.43,9.71-2.21,3.72-.91,7.4-2,11.66-3.07-5.87-9.31-11-17.47-16.75-26.57,3.85,0,6-.06,8.09,0,5.15.17,10.3.45,15.45.57,4.52.11,7.31-1.54,6.76-6.73-.48-4.62-.42-9.3-1-13.9-.74-5.67-1.93-11.28-3.18-18.36,13.67,7,21.89,18.26,33.31,27.18Zm7.35,113.88c3.44,3,6,4.81,8.15,7.11,8.65,9.46,11.87,17.42,5.74,29.29-3.59,7-.27,13.34,1.45,20.34,19.82-17,38.13-56.29,30.52-96.11-5.41-28.28-30-65.23-47.1-70.38V477L1040,473.3c-1.1,2.48-1.74,4.05-2.49,5.58-2.25,4.64-4.68,9.19-6.76,13.9-2.35,5.3-1.69,6.87,3.69,9.17,2.67,1.15,5.5,1.92,8.29,2.87-.32,1-.33,1.62-.63,1.94-2.29,2.41-4.64,4.77-7,7.14-5.38,5.43-5.31,7,.26,12.08,2.1,1.91,4,4,6.14,6.28-4,2.08-7.09,3.6-10.09,5.34-2.59,1.49-2.75,3.45-.8,5.76,1.63,1.93,3.06,4,4.59,6l-1.71-.14c-1.61,2.23-3.13,4.52-4.86,6.64-.57.69-1.69.93-2.56,1.38Zm-.33,34.86-34.75,50a20.57,20.57,0,0,0,3.85,0c6.58-1.65,12.12-4.43,16.47-10.25,10.06-13.47,20.9-26.37,27.06-42.32,2-5.24,2.7-10.52-.51-15.33-3.1-4.63-6.84-8.83-10.33-13.25-5.08,4.54-9.42,8.35-13.67,12.27a3.75,3.75,0,0,0-1.19,2.63c.89,7.92,1.93,15.81,2.94,23.71,2.58-4.46,5.11-8.72,5.32-13.1s-1.94-8.79-3.06-13.2c6.29,4.57,7.52,9.8,4.21,18.12ZM956.6,566l-1,.51c2.21,7.59,4.6,15.14,6.52,22.8.69,2.75,1.26,6.33.08,8.6-3.34,6.47-2.8,13.19-2.91,20,0,3.1.49,5.47,3,7.9,1.46,1.39,1.67,5.28.87,7.48s-3.32,4.11-5.52,5.4c-3.56,2.09-2.06,4.63-1.49,7.35s2,4,4.85,3.71c4.8-.43,9.64-.57,14.41-1.15,5.17-.64,6.59-3.3,5.52-8.25-3.57-16.52-6.92-33.09-10.41-49.63-.84-4-1-8.5-3.06-11.83C964.6,574.08,960.29,570.21,956.6,566Zm-11.84-31.09a15.37,15.37,0,0,0-1.68-1.81c-18.72-13.87-37.37-27.84-56.29-41.42-2.89-2.07-7-3-10.69-3.23-5-.33-7.2,2.75-5.46,7.45,4.45,12.06,11.28,22.84,19.09,34.23,2.83-7.67,8.18-11.34,16.15-12.83l-20.47-20.48a8.9,8.9,0,0,1,4.4,2.35c6,5.51,11.73,11.37,18.05,16.49a34.5,34.5,0,0,0,12,6.44c8.09,2.24,14.75,6,19.2,13.23C941.17,538.64,942.75,537.82,944.76,534.88Zm-31.45,27.36c3.94,4.31,7.57,8.34,11.25,12.32,3.47,3.76,4.07,8.1,3.23,13-1,5.76-1.59,11.58-2.29,17.38a3.38,3.38,0,0,0,.57,1.87c2,3.56,4.15,7.09,5.8,9.91,5.72-1.37,10.54-3,15.49-3.52,3.31-.33,4.38-2,4-4.34a17.76,17.76,0,0,0-3.3-7.51c-4.16-5.33-8.83-10.25-13.09-15.5-1.19-1.48-2.38-3.57-2.32-5.35.21-6.9.92-13.79,1.49-21.32C929,555.67,918.94,556.77,913.31,562.24Zm-14.07,67.18c2,2.38,3.11,4.44,4.83,5.55a60.63,60.63,0,0,0,10.6,5.52c5.71,2.25,11.59,4.1,17.47,5.91a5.62,5.62,0,0,0,3.63-.68c.33-.16.33-2.3,0-2.49-5.69-2.88-5-8.51-5.93-13.41-.66-3.4-2.62-5.28-6.07-5.54-8.43-.64-15.85-3.31-21.65-9.89-.92-1-4-1.63-5-.93-3.52,2.37-6.58,5.42-9.75,8.16C891.72,628.21,895.64,630.39,899.24,629.42Zm7.77-90,1.5-.92c2.26,2.17,4.54,4.31,6.67,6.6a25.76,25.76,0,0,1-2.32,2.81c1.5.92,3.34,2.71,4,2.34,1.34-.69,2.37-2.52,2.91-4.09a38.49,38.49,0,0,0,1.15-6.39c1.45,1.62,1.59,3.29,2.27,4.72.56,1.17,1.76,2,2.67,3a14.54,14.54,0,0,0,1.77-3.55c.47-2.42.55-4.91.85-8,9.88,5.25,11.43,14.39,14.43,22.6.15-9.89-5.51-22.47-12.69-28.33-7-5.73-15.2-6.39-23.58-4-5,1.42-6.63,5.71-5.25,10.23,1.54,5,2.77,10.16,3.87,15.3,1,4.64,1.6,9.36,2.39,14l1.87-.25Zm14.18,66.07-.86.5a32.76,32.76,0,0,0,1.58,3c5.18,7.8,9.67,15.85,10.9,25.4.37,3,11.47,9.86,14.36,9.32a2.84,2.84,0,0,0,1.4-.46c3.82-3.62,7.7-7.19,11.31-11,.8-.84.64-2.58,1.12-4.88-4.58,2.45-5.21.33-5.22-2.67,0-4.32.07-8.65-.18-13-.29-4.92-.9-9.81-1.38-14.71-1.85,8,1.89,16-1.85,24.46-2.6-2.27-4.65-4-7.26-6.31l-2.67,6.66-6.1-5.12v8.67l-1.36.47Zm-16.16-11c-3.07-8-10.43-15.24-3.53-25.28a39.85,39.85,0,0,0-5.16,12.9,166.66,166.66,0,0,0-2.16,20.67c-.08,1.65,1.58,3.83,3.05,5,3.44,2.8,7.4,5,10.88,7.72a20.82,20.82,0,0,0,15.15,4.65,25.61,25.61,0,0,0-12-16.07,24.75,24.75,0,0,1-6.15-5.68C904.48,597.69,905,595.9,905,594.56Zm79.19,46.3c4.3-4.9,5.66-8.68,4.94-14.19-2-15.14-2.88-30.42-4.26-45.63a44.43,44.43,0,0,0-1.09-5.17c-2.37,1.63-3.18,3.45-4.44,4.88-4,4.51-4,8.64.46,12.87,3.88,3.71,3.76,7.83.55,11.93-3.07,3.93-2.79,7.56-.12,11.77,2.83,4.48,4.85,9.47,7.22,14.24l-1.54.82-7.08-11.69-1,.51Zm-59.41-57.42a9.77,9.77,0,0,0-10.06-10.08c-5.42-.05-10.42,5.06-10.4,10.63,0,5.08,5.14,9.73,10.67,9.67C920.91,593.59,924.84,589.49,924.81,583.44ZM954,578.38c.07-5.14-4-8.93-9.7-9.09a9.08,9.08,0,0,0-9.08,9.16c-.06,5.46,3.58,9.65,8.51,9.82A10,10,0,0,0,954,578.38Zm63.77-22c-6.31.18-13.48-1.79-15.88,7a1.19,1.19,0,0,1-.76.61c-4.2,1.13-4,4.86-4.66,8-.7,3.3,1,4.2,4,3.52,5.9-1.36,10.92-4.24,14.12-9.43,1.16-1.88,1.14-4.49,1.66-6.77l-1.45-.65Zm3.91,72.64c11.41-5.86,13.64-13.15,6.57-21.49C1023.68,613.91,1020.07,620.39,1021.66,629ZM973,590.68c.82,5.37,1.65,10.74,2.57,16.77C981.5,600,981.28,598.36,973,590.68ZM990.68,575c.85-3.11,3-6.3-1.46-8.18-.9-.37-3.24.53-3.57,1.37C983.93,572.5,986.34,574.32,990.68,575Zm28.91,47.41c-4.19,2.77-6,6.09-4,10.32l1.84.4Q1018.53,627.74,1019.59,622.38ZM905.87,522.18l-.46-1.44a66.78,66.78,0,0,0-7.95,3.55c-.74.45-.58,2.4-1,4.63Zm81.26-37.6-.64-.8-15,10.86.44.57Zm5.48,78.18,1.72,4.85c1.63-2.17,3.71-4.92,6.68-8.84ZM964.67,550.9l2.29-.46-1.55-8.26-2.11.36C963.76,545.32,964.21,548.11,964.67,550.9Z" transform="translate(-839.71 -422.62)"/><path class="cls-1" d="M1012.48,446.7,996,468.79c-11.42-8.92-19.64-20.21-33.31-27.18,1.25,7.08,2.44,12.69,3.18,18.36.61,4.6.55,9.28,1,13.9.55,5.19-2.24,6.84-6.76,6.73-5.15-.12-10.3-.4-15.45-.57-2.11-.07-4.24,0-8.09,0,5.73,9.1,10.88,17.26,16.75,26.57-4.26,1.12-7.94,2.16-11.66,3.07-3.23.78-6.56,1.21-9.71,2.21-1.36.43-2.39,1.9-3.56,2.9,1,1,1.86,2.35,3.08,3,4.59,2.33,9.42,4.21,13.93,6.69,2.66,1.47,5.29,3.56,3.3,8.2-2.45-1.53-4.6-2.66-6.52-4.1-14.42-10.74-28.67-21.72-43.25-32.23a120.91,120.91,0,0,0-17.28-9.9,9.94,9.94,0,0,0-11.28,1.16c-3.47,2.87-5,6.23-2.58,10.49,6.77,11.65,13.37,23.4,20.58,34.77,1.62,2.56,5.28,4.18,8.33,5.38,4.11,1.63,5.58,5.76,2.5,9a43.1,43.1,0,0,1-4.16,3.58c-14.6,11.89-17.41,30.34-7.49,46.48,2.65,4.3,4.12,9.32,6.46,14.78-2.31,2-4.78,4.78-7.85,6.47-1.2.66-4.34-.53-5.59-1.84-13.62-14.22-23.24-30.73-27.78-50C841.37,518,863.15,468.26,907.26,445c33.45-17.61,67.66-17.56,101.64-.63C1009.77,444.84,1010.54,445.45,1012.48,446.7Z" transform="translate(-839.71 -422.62)"/><path class="cls-1" d="M1019.83,560.58l6.3-3.29c.87-.45,2-.69,2.56-1.38,1.73-2.12,3.25-4.41,4.86-6.64l1.71.14c-1.53-2-3-4.12-4.59-6-2-2.31-1.79-4.27.8-5.76,3-1.74,6.13-3.26,10.09-5.34-2.16-2.23-4-4.37-6.14-6.28-5.57-5.05-5.64-6.65-.26-12.08,2.34-2.37,4.69-4.73,7-7.14.3-.32.31-.92.63-1.94-2.79-.95-5.62-1.72-8.29-2.87-5.38-2.3-6-3.87-3.69-9.17,2.08-4.71,4.51-9.26,6.76-13.9.75-1.53,1.39-3.1,2.49-5.58L1018.59,477V450.83c17.14,5.15,41.69,42.1,47.1,70.38,7.61,39.82-10.7,79.07-30.52,96.11-1.72-7-5-13.38-1.45-20.34,6.13-11.87,2.91-19.83-5.74-29.29C1025.87,565.39,1023.27,563.55,1019.83,560.58Z" transform="translate(-839.71 -422.62)"/><path class="cls-1" d="M1005.37,508.4c3.08-.09,6.3-.79,9.2-.11,4.41,1,6.95,4.24,7.19,9.05.25,5.09-1.64,8.71-6.54,10.56-1.44.54-2.83,1.19-4.25,1.79l.5,1.25,9.17-3.08c0,4.62.71,9-.3,13-.51,2-4.23,4.67-6.33,4.53-6.49-.42-12.1,1.43-17.74,4.13-6.28,3-12.7,5.73-19.58,8.8-7.87-1.94-6.76-9.43-7.36-15.56-1-10.58-1.48-21.22-2-31.85a28.87,28.87,0,0,1,.58-5.61c2.83-.5,5.25-.29,6.86-1.33,3.91-2.51,7.42-5.64,11.12-8.47,6.66-5.1,14.29-5.23,21.94-3.61,7.81,1.65,10.3,5.35,10.54,13.33l-13.66,2.42c-5.46,2.45-6.48,7.13-6,12.4.32,3.58,2,6.3,6.26,7.93C998.55,519.25,998.76,515.05,1005.37,508.4Zm-23.68,24.9c8.43,0,15.54-6.38,15.44-13.82-.11-7.82-6.86-14-15.26-13.9-8.18.08-14.31,6.23-14.17,14.24C967.82,526.92,974.46,533.32,981.69,533.3Zm16.56,11.08,2.27-.48,1.08-12.34-1.63-.14c-.19,3.25-.37,6.5-.63,11-2-2.59-3.07-4-4.17-5.48l-1.16.83Z" transform="translate(-839.71 -422.62)"/><path class="cls-1" d="M1019.5,595.44l-3.66-.72c3.31-8.32,2.08-13.55-4.21-18.12,1.12,4.41,3.26,8.86,3.06,13.2s-2.74,8.64-5.32,13.1c-1-7.9-2-15.79-2.94-23.71a3.75,3.75,0,0,1,1.19-2.63c4.25-3.92,8.59-7.73,13.67-12.27,3.49,4.42,7.23,8.62,10.33,13.25,3.21,4.81,2.53,10.09.51,15.33-6.16,16-17,28.85-27.06,42.32-4.35,5.82-9.89,8.6-16.47,10.25a20.57,20.57,0,0,1-3.85,0Z" transform="translate(-839.71 -422.62)"/><path class="cls-1" d="M956.6,566c3.69,4.24,8,8.11,10.87,12.85,2,3.33,2.22,7.82,3.06,11.83,3.49,16.54,6.84,33.11,10.41,49.63,1.07,5-.35,7.61-5.52,8.25-4.77.58-9.61.72-14.41,1.15-2.84.26-4.28-.92-4.85-3.71s-2.07-5.26,1.49-7.35c2.2-1.29,4.72-3.2,5.52-5.4s.59-6.09-.87-7.48c-2.51-2.43-3-4.8-3-7.9.11-6.77-.43-13.49,2.91-20,1.18-2.27.61-5.85-.08-8.6-1.92-7.66-4.31-15.21-6.52-22.8Z" transform="translate(-839.71 -422.62)"/><path class="cls-1" d="M944.76,534.88c-2,2.94-3.59,3.76-5.66.42-4.45-7.18-11.11-11-19.2-13.23a34.5,34.5,0,0,1-12-6.44c-6.32-5.12-12-11-18.05-16.49a8.9,8.9,0,0,0-4.4-2.35l20.47,20.48c-8,1.49-13.32,5.16-16.15,12.83-7.81-11.39-14.64-22.17-19.09-34.23-1.74-4.7.48-7.78,5.46-7.45,3.65.25,7.8,1.16,10.69,3.23,18.92,13.58,37.57,27.55,56.29,41.42A15.37,15.37,0,0,1,944.76,534.88Z" transform="translate(-839.71 -422.62)"/><path class="cls-1" d="M913.31,562.24c5.63-5.47,15.72-6.57,20.79-3.06-.57,7.53-1.28,14.42-1.49,21.32-.06,1.78,1.13,3.87,2.32,5.35,4.26,5.25,8.93,10.17,13.09,15.5a17.76,17.76,0,0,1,3.3,7.51c.42,2.33-.65,4-4,4.34-5,.49-9.77,2.15-15.49,3.52-1.65-2.82-3.75-6.35-5.8-9.91a3.38,3.38,0,0,1-.57-1.87c.7-5.8,1.31-11.62,2.29-17.38.84-4.9.24-9.24-3.23-13C920.88,570.58,917.25,566.55,913.31,562.24Zm18.21,47.23c3.45-3.16,7.23-6.64,10.74-9.87C938.83,597.73,932.36,603.1,931.52,609.47Z" transform="translate(-839.71 -422.62)"/><path class="cls-1" d="M899.24,629.42c-3.6,1-7.52-1.21-11.9-7.8,3.17-2.74,6.23-5.79,9.75-8.16,1-.7,4.06-.12,5,.93,5.8,6.58,13.22,9.25,21.65,9.89,3.45.26,5.41,2.14,6.07,5.54.94,4.9.24,10.53,5.93,13.41.38.19.38,2.33,0,2.49a5.62,5.62,0,0,1-3.63.68c-5.88-1.81-11.76-3.66-17.47-5.91a60.63,60.63,0,0,1-10.6-5.52C902.35,633.86,901.26,631.8,899.24,629.42Z" transform="translate(-839.71 -422.62)"/><path class="cls-1" d="M907,539.44l2.56,26.12-1.87.25c-.79-4.68-1.41-9.4-2.39-14-1.1-5.14-2.33-10.27-3.87-15.3-1.38-4.52.28-8.81,5.25-10.23,8.38-2.39,16.55-1.73,23.58,4,7.18,5.86,12.84,18.44,12.69,28.33-3-8.21-4.55-17.35-14.43-22.6-.3,3.11-.38,5.6-.85,8a14.54,14.54,0,0,1-1.77,3.55c-.91-1-2.11-1.86-2.67-3-.68-1.43-.82-3.1-2.27-4.72a38.49,38.49,0,0,1-1.15,6.39c-.54,1.57-1.57,3.4-2.91,4.09-.71.37-2.55-1.42-4-2.34a25.76,25.76,0,0,0,2.32-2.81c-2.13-2.29-4.41-4.43-6.67-6.6Z" transform="translate(-839.71 -422.62)"/><path class="cls-1" d="M921.19,605.51,935,625.87l1.36-.47v-8.67l6.1,5.12,2.67-6.66c2.61,2.26,4.66,4,7.26,6.31,3.74-8.43,0-16.51,1.85-24.46.48,4.9,1.09,9.79,1.38,14.71.25,4.31.16,8.64.18,13,0,3,.64,5.12,5.22,2.67-.48,2.3-.32,4-1.12,4.88-3.61,3.81-7.49,7.38-11.31,11a2.84,2.84,0,0,1-1.4.46c-2.89.54-14-6.36-14.36-9.32-1.23-9.55-5.72-17.6-10.9-25.4a32.76,32.76,0,0,1-1.58-3Z" transform="translate(-839.71 -422.62)"/><path class="cls-1" d="M905,594.56c0,1.34-.55,3.13.11,3.93a24.75,24.75,0,0,0,6.15,5.68,25.61,25.61,0,0,1,12,16.07,20.82,20.82,0,0,1-15.15-4.65c-3.48-2.76-7.44-4.92-10.88-7.72-1.47-1.19-3.13-3.37-3.05-5a166.66,166.66,0,0,1,2.16-20.67,39.85,39.85,0,0,1,5.16-12.9C894.6,579.32,902,586.6,905,594.56Z" transform="translate(-839.71 -422.62)"/><path class="cls-1" d="M984.22,640.86l-6.34-19.66,1-.51,7.08,11.69,1.54-.82c-2.37-4.77-4.39-9.76-7.22-14.24-2.67-4.21-3-7.84.12-11.77,3.21-4.1,3.33-8.22-.55-11.93-4.42-4.23-4.43-8.36-.46-12.87,1.26-1.43,2.07-3.25,4.44-4.88A44.43,44.43,0,0,1,984.9,581c1.38,15.21,2.26,30.49,4.26,45.63C989.88,632.18,988.52,636,984.22,640.86Z" transform="translate(-839.71 -422.62)"/><path class="cls-1" d="M924.81,583.44c0,6-3.9,10.15-9.79,10.22-5.53.06-10.66-4.59-10.67-9.67,0-5.57,5-10.68,10.4-10.63A9.77,9.77,0,0,1,924.81,583.44Z" transform="translate(-839.71 -422.62)"/><path class="cls-1" d="M954,578.38a10,10,0,0,1-10.27,9.89c-4.93-.17-8.57-4.36-8.51-9.82a9.08,9.08,0,0,1,9.08-9.16C950,569.45,954.05,573.24,954,578.38Z" transform="translate(-839.71 -422.62)"/><path class="cls-1" d="M1017.75,556.35l-3,2.3,1.45.65c-.52,2.28-.5,4.89-1.66,6.77-3.2,5.19-8.22,8.07-14.12,9.43-3,.68-4.66-.22-4-3.52.66-3.14.46-6.87,4.66-8a1.19,1.19,0,0,0,.76-.61C1004.27,554.56,1011.44,556.53,1017.75,556.35Z" transform="translate(-839.71 -422.62)"/><path class="cls-1" d="M953,558a60.8,60.8,0,0,0,6.94.75c4.37,0,7.26.94,7,6.4-.16,3,7.13,8.22,13,10l-6.65,10.27c.35-7.26-5.05-10.89-9.11-15.31-3.71-4-7.38-8.11-11.07-12.17Z" transform="translate(-839.71 -422.62)"/><path class="cls-1" d="M1021.66,629c-1.59-8.6,2-15.08,6.57-21.49C1035.3,615.84,1033.07,623.13,1021.66,629Z" transform="translate(-839.71 -422.62)"/><path class="cls-1" d="M953,558l-9.44-12.07,1.27-1.75a65,65,0,0,1,9,2.35c.81.32,1.31,2.69,1.12,4a57,57,0,0,1-2,7.5Z" transform="translate(-839.71 -422.62)"/><path class="cls-1" d="M973,590.68c8.26,7.68,8.48,9.35,2.57,16.77C974.67,601.42,973.84,596.05,973,590.68Z" transform="translate(-839.71 -422.62)"/><path class="cls-1" d="M990.68,575c-4.34-.65-6.75-2.47-5-6.81.33-.84,2.67-1.74,3.57-1.37C993.72,568.67,991.53,571.86,990.68,575Z" transform="translate(-839.71 -422.62)"/><path class="cls-1" d="M1019.59,622.38q-1.05,5.37-2.11,10.72l-1.84-.4C1013.55,628.47,1015.4,625.15,1019.59,622.38Z" transform="translate(-839.71 -422.62)"/><path class="cls-1" d="M905.87,522.18l-9.45,6.74c.46-2.23.3-4.18,1-4.63a66.78,66.78,0,0,1,7.95-3.55Z" transform="translate(-839.71 -422.62)"/><path class="cls-1" d="M987.13,484.58l-15.22,10.63-.44-.57,15-10.86Z" transform="translate(-839.71 -422.62)"/><path class="cls-1" d="M992.61,562.76l8.4-4c-3,3.92-5,6.67-6.68,8.84Z" transform="translate(-839.71 -422.62)"/><path class="cls-1" d="M964.67,550.9c-.46-2.79-.91-5.58-1.37-8.36l2.11-.36,1.55,8.26Z" transform="translate(-839.71 -422.62)"/><path d="M981.69,533.3c-7.23,0-13.87-6.38-14-13.48-.14-8,6-14.16,14.17-14.24,8.4-.07,15.15,6.08,15.26,13.9C997.23,526.92,990.12,533.28,981.69,533.3Zm.36-26c-6.12,0-12.43,5.6-12.65,11.29-.23,6,6.23,12.87,12.26,13,6.83.17,13-5.35,13.08-11.7A12.47,12.47,0,0,0,982.05,507.34Z" transform="translate(-839.71 -422.62)"/><path d="M1005.37,508.4c-6.61,6.65-6.82,10.85-.42,19.6-4.25-1.63-5.94-4.35-6.26-7.93-.46-5.27.56-10,6-12.4Z" transform="translate(-839.71 -422.62)"/><path d="M998.25,544.38,994,537.77l1.16-.83c1.1,1.45,2.19,2.89,4.17,5.48.26-4.5.44-7.75.63-11l1.63.14-1.08,12.34Z" transform="translate(-839.71 -422.62)"/><path d="M931.52,609.47c.84-6.37,7.31-11.74,10.74-9.87C938.75,602.83,935,606.31,931.52,609.47Z" transform="translate(-839.71 -422.62)"/><path class="cls-1" d="M982.05,507.34a12.47,12.47,0,0,1,12.69,12.6c-.07,6.35-6.25,11.87-13.08,11.7-6-.14-12.49-7-12.26-13C969.62,512.94,975.93,507.31,982.05,507.34Z" transform="translate(-839.71 -422.62)"/><circle class="cls-2" cx="141.6" cy="103.07" r="0.76"/><circle class="cls-2" cx="170.5" cy="101.29" r="0.76"/><circle class="cls-2" cx="73.24" cy="153.94" r="0.76"/><circle class="cls-2" cx="100.19" cy="152.43" r="0.76"/></g><g id="text"><rect class="cls-3" x="53.23" y="201.55" width="131.13" height="35.69"/><text class="cls-4" transform="translate(64.34 226.61)">LOCATIONS</text></g></svg>