<svg xmlns="http://www.w3.org/2000/svg" viewBox="0 0 232.67 233.63"><defs><style>.cls-1,.cls-4{fill:#fff;}.cls-2{stroke:#000;}.cls-3{fill:#020202;}.cls-4{font-size:19.07px;font-family:Georgia;letter-spacing:0em;}</style></defs><g id="icon"><path d="M986,413.35c3,2.1,5.37,4.54,8.21,5.57,43.61,15.7,71.31,45.65,79.61,91.5,6.84,37.84-4.17,71.17-30.28,99.32-15.51,16.71-34.54,28.23-56.74,33-45.37,9.65-84.62-2.23-115.31-37.47a114.75,114.75,0,0,1,5.57-157c22.23-22.29,49.32-34.18,81.11-34.18,7.1,0,14.19,1.11,21.29,1.19C982,415.29,984.58,413.78,986,413.35Zm4.85,47.42c-2.46-2.92-4.39-6.71-7.48-8.61-11.49-7.07-28.66-3-36.33,8.11a33.22,33.22,0,0,0-2.28,4.46c7.25-2.26,14.16-5,21.34-6.49,8.36-1.7,17-2.93,24.85,2.44-1.48,1-2.84,2.71-4.46,3-3.9.69-8,.25-11.86,1.15-9,2.11-17.83,4.63-26.66,7.25-1.56.46-2.77,2.15-4.14,3.28l.75,1.29c1.63-.54,3.24-1.15,4.89-1.6,9.33-2.52,17.52,3,18.5,12.55.53,5.24.69,10.52,1,15.78.13,2,.23,4.07.34,6.11l1.32.32q2.52-3.65,5-7.3a7.69,7.69,0,0,1-1.11,5.54,33.59,33.59,0,0,1-4.25,4.36c-1.15-2-3-3.93-3.32-6.09-.56-3.44-.15-7-.15-11.54l-6.33,5.37,3.35.79c-5.36,3.25-9.91,5.09-15.27,1.38-.21.95-.6,1.62-.44,2.12,3.27,10,5.73,20.43,10.19,29.9,3.84,8.15,13.67,10.88,23,8-4.34-2.54-8-5.26-12.08-7-6.59-2.72-11.75-6.81-14.89-13.17-2.3-4.65-1-6.49,4.11-6.34a25.22,25.22,0,0,1,3.48.24c11.45,2,20.76-1.66,28.56-10.23,2.1-2.31,5.4-3.54,8.14-5.27.28,3.8,1.83,8.11.56,11.29-2.66,6.66-6.9,12.66-10.29,19.05-1.06,2-1.47,4.32-2.18,6.5l.66.16-3.75,3.83,1.15,1.06c9.87-4,16.6-10.7,18-21.91.59-5,1.16-9.65,6.19-12.76,1.62-1,2.67-4.89,2.08-6.9-.51-1.76-3.73-2.68-5.68-4.08-1.19-.85-2.8-1.7-3.23-2.91-1.44-4.07-2.44-8.31-3.67-12.7-2.19,4.93-3.27,10.35-6.47,13.8-3.56,3.84-9.26,4.09-14.56,1.75l4.1-.76c-8.38-2.4-12-6.11-12.5-12.34-.46-5.58,3.57-12.5,9.09-14.84,7.64-3.25,13.29.51,19.23,5.39Q994.06,467.52,990.82,460.77Zm-65,18.6,11.76-8.22L925.24,449.6l1.21-1.35,15.35,1.51c-.41-8.84-.8-17-1.18-25.17-40.45,5.4-77.94,41.59-86.18,83-6.78,34.09,6.59,82.1,25.41,93.06,2.39-3.2,4.24-6.9,7.17-9.28s7.11-3.64,11.6-5.8c-2.54-3-4.62-6.51-7.63-8.82-16.43-12.6-18.44-33.94-4.71-49.63,11.37-13,25.74-15.44,41.62-12.39,8,1.54,14.09,9.31,15.64,17,.52,2.63,3.38,4.79,5.36,7.41,6.56-8.06,5.19-13.56-3-15.61.35-3.7,2-8.07.65-11-1.24-2.69-5.8-3.84-9.18-5.84a57.47,57.47,0,0,0,4-5.14c.61-1,1.25-2.7.81-3.43a114.23,114.23,0,0,0-8.52-12.54C931.81,483.33,929,481.86,925.83,479.37ZM955.32,636l1.25,2c9.27-1.31,18.53-2.72,27.82-3.87,3.79-.48,5.32-2.35,6.64-6,8.88-24.39,18.19-48.63,27.24-73,1.6-4.29,4.48-6.56,8.71-8,12-3.93,23.83-8.06,35.67-12.3,1.55-.56,3.79-2.24,3.85-3.49a98.22,98.22,0,0,0-5.79-36.85c-.76,0-1.14-.11-1.39,0-17.29,9.07-34.6,18.1-51.79,27.37-1.37.74-2.41,3.05-2.66,4.77-.91,6.4-1.16,12.89-2.23,19.25-.38,2.29-1.85,5.31-3.71,6.27-4,2-4.28,4.29-1.86,7.36s1.66,5.36-.31,8.37q-18.6,28.49-36.76,57.26C958,628.56,956.86,632.41,955.32,636ZM1066,536.54c-14.17,4.7-27.85,9.09-41.4,13.88-1.84.65-3.52,3.07-4.35,5.05-6.89,16.67-13.75,33.35-20.22,50.19-3.23,8.4-5.63,17.13-8.53,26.11C1028.62,624.33,1069,572.89,1066,536.54ZM947,550.92l-15.89,4.8c-3.38-2.32-4.72-7.25-3.22-10.56,2-4.42,6.51-7.7,9.86-11.39-3.15-1.26-7.15-3.69-11.45-4.47-17.27-3.13-34.46,9.53-36.78,26.91-.35,2.62.74,5.44,1.27,8.89-4.85,5.68-4.71,6.2,2.87,10,1,.51,1.67,1.79,2.53,2.67,3,3.12,5.58,7.47,9.29,9.08,11.56,5,23.26,3.75,33.55-3.48,10-7,11.7-17.76,10.91-29.54l-3.65,1.7Zm70.87-44.69c1.65,3.88,3.47,4.6,6.57,2.94,6.56-3.52,13.31-6.67,19.92-10.09,5.08-2.64,10-5.47,15.18-8.27a116,116,0,0,0-42.3-51.52c-1,2.29-1.93,4-2.59,5.83-5.46,15-7.54,13.31,9.56,18.55,3.18,1,6.43,1.74,9.64,2.6l.37,1.68c-5.91,5.63-11.83,11.25-17.67,16.82l16.52,8.4ZM903.2,597.65l1.68.68c-2.22,5.07-4.62,10.08-6.53,15.27-.52,1.4-.18,4.25.79,4.9a130.4,130.4,0,0,0,33.79,15.78c1.53-15.61,3-30.48,4.51-46-11,3.28-21.15,4.79-31.57,1.26-7.42-2.52-9.35-.7-10.86,7-.56,2.82-3.17,5.31-5.08,7.77a13.79,13.79,0,0,1-3.22,2.38l6.94,8.47Zm63.46,11.46c.94-1.27,1.94-2.5,2.81-3.82,8.15-12.47,16.15-25,24.49-37.39,2.47-3.65,3-6.58,0-10-2.33-2.69-1.16-4.56,1.7-6.23,1.86-1.1,4.17-2.78,4.65-4.62,1.09-4.18,1.17-8.61,1.66-12.94l-1.27-.34C986,557.27,975.54,582.74,966.66,609.11Zm15.21-115.45c7.71-.09,13.64-5.17,13.57-11.63-.07-6.85-5.34-12.38-11.77-12.36-6.68,0-12.73,6.22-12.57,12.87S975.58,493.73,981.87,493.66Zm-40-5.17c-.06,7,4.1,11.85,10.42,12,6,.18,13.72-6.62,13.68-12a12.14,12.14,0,0,0-12-11.94C946.36,476.48,941.94,480.85,941.88,488.49ZM936,634.4l1.94.57a37.89,37.89,0,0,0,2.16-5.47c6.25-27.78,12.26-55.62,18.77-83.33,1.22-5.19.2-8.44-5.35-10.84q.75,4.17,1.49,8.32a14,14,0,0,0-3,7.3c-.51,5.59.14,11.38-1,16.79-4.43,20.55-9.41,41-14.16,61.47C936.4,630.91,936.26,632.67,936,634.4Zm4.58-93.6c-.09-4.89-3.1-3.35-4.71-2.14-2.35,1.78-4.75,4.13-5.86,6.77-1.93,4.6.28,7,5.24,6.32a34.48,34.48,0,0,0,8.06-2.13c7.13-3,7.44-6.4,1.18-11.13Zm8.95-117.75,11.14,13.24,11.71-12.7a36.55,36.55,0,0,0-3.94-.52C961.88,423,955.32,423.05,949.53,423.05Zm12.59,96.1c2.92,4.79,9.21,6,15.06,3a105.55,105.55,0,0,0,12.42-7.08c1.18-.8,1.28-3.19,1.87-4.85L989.91,509C982.7,518,972.23,517.86,962.12,519.15Zm26.27-92.95c1.12,4.49,1.76,7.66,2.78,10.7a3.08,3.08,0,0,0,2.63,1.42c4.61-.85,9.17-2,13.75-3l.14-1.37Zm2.17,99.47c-3.38-1.64-6.4-1.9-9,.68-.27.27.86,2.84,1.84,3.32C987.23,531.54,988.81,528.71,990.56,525.67Zm-17.34,20.1c4.32,4.16,6.86,3.82,10.83-.74Z" transform="translate(-843.11 -413.35)"/><path class="cls-1" d="M925.83,479.37c3.21,2.49,6,4,7.8,6.2a114.23,114.23,0,0,1,8.52,12.54c.44.73-.2,2.45-.81,3.43a57.47,57.47,0,0,1-4,5.14c3.38,2,7.94,3.15,9.18,5.84,1.37,3-.3,7.34-.65,11,8.21,2.05,9.58,7.55,3,15.61-2-2.62-4.84-4.78-5.36-7.41-1.55-7.72-7.63-15.49-15.64-17-15.88-3.05-30.25-.6-41.62,12.39-13.73,15.69-11.72,37,4.71,49.63,3,2.31,5.09,5.82,7.63,8.82-4.49,2.16-8.56,3.34-11.6,5.8s-4.78,6.08-7.17,9.28c-18.82-11-32.19-59-25.41-93.06,8.24-41.41,45.73-77.6,86.18-83,.38,8.17.77,16.33,1.18,25.17l-15.35-1.51-1.21,1.35,12.35,21.55Z" transform="translate(-843.11 -413.35)"/><path class="cls-1" d="M955.32,636c1.54-3.57,2.63-7.42,4.68-10.67q18.16-28.77,36.76-57.26c2-3,2.71-5.35.31-8.37s-2.11-5.31,1.86-7.36c1.86-1,3.33-4,3.71-6.27,1.07-6.36,1.32-12.85,2.23-19.25.25-1.72,1.29-4,2.66-4.77,17.19-9.27,34.5-18.3,51.79-27.37.25-.13.63,0,1.39,0a98.22,98.22,0,0,1,5.79,36.85c-.06,1.25-2.3,2.93-3.85,3.49-11.84,4.24-23.72,8.37-35.67,12.3-4.23,1.39-7.11,3.66-8.71,8-9,24.33-18.36,48.57-27.24,73-1.32,3.61-2.85,5.48-6.64,6-9.29,1.15-18.55,2.56-27.82,3.87Z" transform="translate(-843.11 -413.35)"/><path class="cls-1" d="M1066,536.54c3,36.35-37.42,87.79-74.5,95.23,2.9-9,5.3-17.71,8.53-26.11,6.47-16.84,13.33-33.52,20.22-50.19.83-2,2.51-4.4,4.35-5.05C1038.19,545.63,1051.87,541.24,1066,536.54Z" transform="translate(-843.11 -413.35)"/><path class="cls-1" d="M947,550.92l-.71,4.62,3.65-1.7c.79,11.78-.92,22.52-10.91,29.54-10.29,7.23-22,8.48-33.55,3.48-3.71-1.61-6.24-6-9.29-9.08-.86-.88-1.5-2.16-2.53-2.67-7.58-3.81-7.72-4.33-2.87-10-.53-3.45-1.62-6.27-1.27-8.89,2.32-17.38,19.51-30,36.78-26.91,4.3.78,8.3,3.21,11.45,4.47-3.35,3.69-7.86,7-9.86,11.39-1.5,3.31-.16,8.24,3.22,10.56Zm-26,30.34c5-.61,11.41-.15,15.58-5.36,1.59-2,1.95-5,2.87-7.51-2.29-.14-4.76-.92-6.82-.32-10.44,3-20.25.52-30-2.82a11.43,11.43,0,0,1-2.27-1.55c-.77-.49-1.85-1.47-2.3-1.25a5,5,0,0,0-2.59,2.57,4.52,4.52,0,0,0,1,3.54c1.27,1.4,3.09,2.28,4.53,3.55C906.55,577,912.27,581.38,921,581.26Zm-1.1-19.51c3.73-2.66,5.74-7.41,4.76-11.21-1.66-6.44-6.11-9.43-12.83-9.59l1.44-3.91c-7.47,4.22-14.5,7.43-13.63,17.29.46,5.24,2.44,8.46,7.76,10,.12,0,.36-.36,1.06-1.11l-4.55-2.33,17.52-3.53C920.86,559.05,920.43,560.26,919.91,561.75Zm10.42,1.44.11,1.74,5.42-.47c-.49-1.83-1-3.66-1.5-5.47,0,0-.56.14-1,.25l.6,4Z" transform="translate(-843.11 -413.35)"/><path class="cls-1" d="M990.82,460.77q3.23,6.75,6.46,13.48c-5.94-4.88-11.59-8.64-19.23-5.39-5.52,2.34-9.55,9.26-9.09,14.84.52,6.23,4.12,9.94,12.5,12.34l-4.1.76c5.3,2.34,11,2.09,14.56-1.75,3.2-3.45,4.28-8.87,6.47-13.8,1.23,4.39,2.23,8.63,3.67,12.7.43,1.21,2,2.06,3.23,2.91,2,1.4,5.17,2.32,5.68,4.08.59,2-.46,5.89-2.08,6.9-5,3.11-5.6,7.79-6.19,12.76-1.35,11.21-8.08,17.9-18,21.91l-1.15-1.06,3.75-3.83-.66-.16c.71-2.18,1.12-4.51,2.18-6.5,3.39-6.39,7.63-12.39,10.29-19.05,1.27-3.18-.28-7.49-.56-11.29-2.74,1.73-6,3-8.14,5.27-7.8,8.57-17.11,12.18-28.56,10.23a25.22,25.22,0,0,0-3.48-.24c-5.09-.15-6.41,1.69-4.11,6.34,3.14,6.36,8.3,10.45,14.89,13.17,4.08,1.69,7.74,4.41,12.08,7-9.32,2.88-19.15.15-23-8-4.46-9.47-6.92-19.88-10.19-29.9-.16-.5.23-1.17.44-2.12,5.36,3.71,9.91,1.87,15.27-1.38l-3.35-.79,6.33-5.37c0,4.5-.41,8.1.15,11.54.35,2.16,2.17,4.07,3.32,6.09a33.59,33.59,0,0,0,4.25-4.36,7.69,7.69,0,0,0,1.11-5.54q-2.5,3.64-5,7.3l-1.32-.32c-.11-2-.21-4.08-.34-6.11-.31-5.26-.47-10.54-1-15.78-1-9.58-9.17-15.07-18.5-12.55-1.65.45-3.26,1.06-4.89,1.6l-.75-1.29c1.37-1.13,2.58-2.82,4.14-3.28,8.83-2.62,17.7-5.14,26.66-7.25,3.83-.9,8-.46,11.86-1.15,1.62-.29,3-2,4.46-3Z" transform="translate(-843.11 -413.35)"/><path class="cls-1" d="M1017.91,506.23l15.2-13.06-16.52-8.4c5.84-5.57,11.76-11.19,17.67-16.82l-.37-1.68c-3.21-.86-6.46-1.63-9.64-2.6-17.1-5.24-15-3.51-9.56-18.55.66-1.81,1.56-3.54,2.59-5.83a116,116,0,0,1,42.3,51.52c-5.13,2.8-10.1,5.63-15.18,8.27-6.61,3.42-13.36,6.57-19.92,10.09C1021.38,510.83,1019.56,510.11,1017.91,506.23Z" transform="translate(-843.11 -413.35)"/><path class="cls-1" d="M903.2,597.65l-9.55,17.52-6.94-8.47a13.79,13.79,0,0,0,3.22-2.38c1.91-2.46,4.52-5,5.08-7.77,1.51-7.7,3.44-9.52,10.86-7,10.42,3.53,20.57,2,31.57-1.26-1.52,15.51-3,30.38-4.51,46a130.4,130.4,0,0,1-33.79-15.78c-1-.65-1.31-3.5-.79-4.9,1.91-5.19,4.31-10.2,6.53-15.27Z" transform="translate(-843.11 -413.35)"/><path class="cls-1" d="M966.66,609.11c8.88-26.37,19.38-51.84,34-75.38l1.27.34c-.49,4.33-.57,8.76-1.66,12.94-.48,1.84-2.79,3.52-4.65,4.62-2.86,1.67-4,3.54-1.7,6.23,3,3.46,2.49,6.39,0,10-8.34,12.34-16.34,24.92-24.49,37.39C968.6,606.61,967.6,607.84,966.66,609.11Z" transform="translate(-843.11 -413.35)"/><path class="cls-1" d="M981.87,493.66c-6.29.07-10.61-4.4-10.77-11.12s5.89-12.85,12.57-12.87c6.43,0,11.7,5.51,11.77,12.36C995.51,488.49,989.58,493.57,981.87,493.66Z" transform="translate(-843.11 -413.35)"/><path class="cls-1" d="M941.88,488.49c.06-7.64,4.48-12,12.06-11.94a12.14,12.14,0,0,1,12,11.94c0,5.42-7.68,12.22-13.68,12C946,500.34,941.82,495.53,941.88,488.49Z" transform="translate(-843.11 -413.35)"/><path class="cls-1" d="M936,634.4c.26-1.73.4-3.49.79-5.19,4.75-20.49,9.73-40.92,14.16-61.47,1.17-5.41.52-11.2,1-16.79a14,14,0,0,1,3-7.3q-.74-4.15-1.49-8.32c5.55,2.4,6.57,5.65,5.35,10.84-6.51,27.71-12.52,55.55-18.77,83.33a37.89,37.89,0,0,1-2.16,5.47Z" transform="translate(-843.11 -413.35)"/><path class="cls-1" d="M990.92,460.68c-7.82-5.37-16.49-4.14-24.85-2.44-7.18,1.45-14.09,4.23-21.34,6.49a33.22,33.22,0,0,1,2.28-4.46c7.67-11.11,24.84-15.18,36.33-8.11,3.09,1.9,5,5.69,7.48,8.61Z" transform="translate(-843.11 -413.35)"/><path class="cls-1" d="M940.58,540.8l3.91-2.31c6.26,4.73,6,8.18-1.18,11.13a34.48,34.48,0,0,1-8.06,2.13c-5,.72-7.17-1.72-5.24-6.32,1.11-2.64,3.51-5,5.86-6.77C937.48,537.45,940.49,535.91,940.58,540.8Z" transform="translate(-843.11 -413.35)"/><path class="cls-1" d="M949.53,423.05c5.79,0,12.35,0,18.91,0a36.55,36.55,0,0,1,3.94.52l-11.71,12.7Z" transform="translate(-843.11 -413.35)"/><path class="cls-1" d="M962.12,519.15c10.11-1.29,20.58-1.13,27.79-10.15l1.56,1.26c-.59,1.66-.69,4-1.87,4.85a105.55,105.55,0,0,1-12.42,7.08C971.33,525.11,965,523.94,962.12,519.15Z" transform="translate(-843.11 -413.35)"/><path class="cls-1" d="M988.39,426.2l19.3,7.73-.14,1.37c-4.58,1-9.14,2.17-13.75,3a3.08,3.08,0,0,1-2.63-1.42C990.15,433.86,989.51,430.69,988.39,426.2Z" transform="translate(-843.11 -413.35)"/><path class="cls-1" d="M990.56,525.67c-1.75,3-3.33,5.87-7.18,4-1-.48-2.11-3-1.84-3.32C984.16,523.77,987.18,524,990.56,525.67Z" transform="translate(-843.11 -413.35)"/><path class="cls-1" d="M973.22,545.77l10.83-.74C980.08,549.59,977.54,549.93,973.22,545.77Z" transform="translate(-843.11 -413.35)"/><path d="M921,581.26c-8.74.12-14.46-4.27-20-9.15-1.44-1.27-3.26-2.15-4.53-3.55a4.52,4.52,0,0,1-1-3.54,5,5,0,0,1,2.59-2.57c.45-.22,1.53.76,2.3,1.25a11.43,11.43,0,0,0,2.27,1.55c9.77,3.34,19.58,5.87,30,2.82,2.06-.6,4.53.18,6.82.32-.92,2.53-1.28,5.52-2.87,7.51C932.42,581.11,926.06,580.65,921,581.26Zm11.44-9.88H909.57C915.77,575.66,930.06,574.68,932.45,571.38Z" transform="translate(-843.11 -413.35)"/><path d="M919.91,561.75c.52-1.49,1-2.7,1.53-4.34l-17.52,3.53,4.55,2.33c-.7.75-.94,1.15-1.06,1.11-5.32-1.59-7.3-4.81-7.76-10-.87-9.86,6.16-13.07,13.63-17.29L911.84,541c6.72.16,11.17,3.15,12.83,9.59C925.65,554.34,923.64,559.09,919.91,561.75Zm-18.47-4.18c2.87,0,5.35.29,7.74-.07a46.8,46.8,0,0,0,9.45-2.33c3-1.11,4.54-3.67,3.13-6.76-.93-2-2-5.51-5.6-2.46-.18.16-1.34-.32-1.52-.73-1.51-3.55-4-2-6.21-1.18C902.42,546.26,901.26,551.21,901.44,557.57Z" transform="translate(-843.11 -413.35)"/><path d="M930.33,563.19H934l-.6-4c.42-.11,1-.26,1-.25.52,1.81,1,3.64,1.5,5.47l-5.42.47Z" transform="translate(-843.11 -413.35)"/><path class="cls-1" d="M932.45,571.38c-2.39,3.3-16.68,4.28-22.88,0Z" transform="translate(-843.11 -413.35)"/><path class="cls-1" d="M901.44,557.57c-.18-6.36,1-11.31,7-13.53,2.19-.81,4.7-2.37,6.21,1.18.18.41,1.34.89,1.52.73,3.58-3.05,4.67.41,5.6,2.46,1.41,3.09-.18,5.65-3.13,6.76a46.8,46.8,0,0,1-9.45,2.33C906.79,557.86,904.31,557.57,901.44,557.57Z" transform="translate(-843.11 -413.35)"/><circle class="cls-2" cx="108.48" cy="78.07" r="0.76"/><circle class="cls-2" cx="137.46" cy="71.76" r="0.76"/></g><g id="text"><rect class="cls-3" x="50.65" y="197.94" width="131.13" height="35.69"/><text class="cls-4" transform="translate(58.19 222.99)">CHARACTER</text></g></svg>