<svg xmlns="http://www.w3.org/2000/svg" viewBox="0 0 232.78 233.22"><defs><style>.cls-1,.cls-3{fill:#fff;}.cls-2{fill:#020202;}.cls-3{font-size:19.07px;font-family:Georgia;letter-spacing:0em;}</style></defs><g id="icon"><path d="M1120.67,549.19c.2,63.83-52.74,116.44-117.2,116.46-62.66,0-115.44-53-115.58-116.2a116.87,116.87,0,0,1,116.59-117C1068.22,432.2,1120.46,484.7,1120.67,549.19ZM933.61,629c1.32-4.55,3.26-8.89,3.76-13.39,1.39-12.64,7.84-20,20.53-21.91,2.34-.36,4.47-2.05,7.65-3.59l-12.37-8.5-6.11,4c-.78-3.94-1.31-6.62-1.85-9.38l-11.31.58c.61-2.28,1-3.86,1.44-5.43,1.73-6.39,1.28-7.18-5-9.43-2.22-.8-4.36-1.84-7.21-3.06l11.32-12.23-17.55-10.27,15.56-11.73-13.29-17.38,23.27-2.58c-1.94-6.36-3.68-12.06-5.67-18.56,4.21,1.29,7.81,2.31,11.35,3.49,7.4,2.47,7.7,2.34,9.39-5.43.88-4.08,1.66-8.18,2.48-12.27l1.46-.39,12.75,15.47,20-14.94c.86,9,1.58,16.44,2.35,24.49l19-6c-3.83,7.11-7,13-10.43,19.35l17.13,3,1.34,1.87-14.92,11.11,1.41,1.69,13.34,6.44v1.72l-19.14,9.48,11.85,8.7-12.09,5.53c.68,2.74,2.51,5.9,1.6,7.63s-4.52,2.33-7.28,3.55c1,1.5,2.14,2.62,2.5,4,.29,1,0,2.93-.74,3.46-4.08,2.94-8.35,5.6-12.6,8.29-5.13,3.26-5.26,3.86-2,8.65a24.67,24.67,0,0,1,4.83,0,55.4,55.4,0,0,1,9.56,2.64c1.69.7,3.66,2.3,4.2,3.93,2.48,7.37,4.57,14.88,6.64,22.38,2.73,9.83,5.31,19.71,8,29.56,1-2,1.22-3.9,1.7-5.77,1.39-5.43,2.36-11.06,4.51-16.18,3-7,3.34-6.87,10.6-5.1.12,0,.33-.28.73-.65-8.85-3.25-15.86-8.52-19.65-16.24-1.8.24-3.25.9-4.24.48-4.56-1.93-6.41-7-3.82-11.13,1.53-2.46,1.86-4.38.17-6.69a13,13,0,0,1-1.53-14,19.4,19.4,0,0,0,1.16-4.82c2.82-16.49,16.8-30.35,33.38-33,18.29-2.92,33.39,1.71,43.75,18.12,6,9.46,6.87,19.79,6.21,30.55-.2,3.2-.61,6.75.51,9.58,1.5,3.81.59,6.56-1.87,9-4.68,4.62-9.47,9.17-14.54,13.36-3.25,2.69-2.85,4.76.25,7.57,24.47-23.44,36.47-51.73,35.1-87.36l-19.9,13.27,12-20-1.57-1.45c-9.3-.82-10.74,11.07-18.91,12.4a68,68,0,0,1,8.11-10.22c2.66-2.78,5.29-5.39,4-10.33,3.53,1.82,7.43,3.48,9,6.4,1.42,2.66.3,6.69.3,10.06,6.35-1,7.48-3,5.63-11.9-6.54-31.11-22.84-55.53-50.23-72.06-15.39-9.29-32-14.79-48.89-15.49-1.88,3.68-2.71,8.26-5,9.22-5.53,2.27-7.74,6.14-9,11.3-.11.46-.88.76-1.34,1.13l-1.39-.43c.7-3.26,1.39-6.53,2.16-10.1L990,458l-1.19-1.24,12.44-14.69c-42.09.38-83.17,28.83-98,71.64C888.58,556,901.6,601.4,933.61,629Zm125-53c-4.6,5.52-5.25,12-1.93,16.21a15.13,15.13,0,0,0,17.42,4.45c5.63-2.43,7.94-6.86,6.77-13.11C1073.4,581.52,1064.32,584.29,1058.62,576Zm-37.57,8.54c-1.58,9.23,9.29,16.91,19.44,12.54,4.17-1.79,6.54-4.46,4.76-9.34a16.69,16.69,0,0,1-.51-3.5l.92-.34,2.21,2.58,1-.6L1044.29,575C1038.23,584.21,1028.81,581.69,1021.05,584.5Zm-71.6-48.77a24,24,0,0,0,3.65.53c4.14,0,8.28-.34,12.42-.24,3.89.09,4.47-1.94,3.81-5.08-1.2-5.81-6-9.39-11.5-8.59C951.72,523.23,948.67,527.88,949.45,535.73Zm34.28-9.61c-2.37.22-3.76-.07-4.27.47a66.92,66.92,0,0,0-4.45,5.8c1.64.89,3.19,2.19,5,2.58a63.16,63.16,0,0,0,10.78,1.51c1.52.08,3.09-1,4.64-1.55-.65-1.56-.88-3.86-2-4.53A81.52,81.52,0,0,0,983.73,526.12Z" transform="translate(-887.89 -432.43)"/><path class="cls-1" d="M933.61,629c-32-27.59-45-73-30.39-115.26,14.82-42.81,55.9-71.26,98-71.64l-12.44,14.69L990,458l6.09-4.92c-.77,3.57-1.46,6.84-2.16,10.1l1.39.43c.46-.37,1.23-.67,1.34-1.13,1.29-5.16,3.5-9,9-11.3,2.31-1,3.14-5.54,5-9.22,16.84.7,33.5,6.2,48.89,15.49,27.39,16.53,43.69,40.95,50.23,72.06,1.85,8.85.72,10.86-5.63,11.9,0-3.37,1.12-7.4-.3-10.06-1.56-2.92-5.46-4.58-9-6.4,1.28,4.94-1.35,7.55-4,10.33a68,68,0,0,0-8.11,10.22c8.17-1.33,9.61-13.22,18.91-12.4l1.57,1.45-12,20,19.9-13.27c1.37,35.63-10.63,63.92-35.1,87.36-3.1-2.81-3.5-4.88-.25-7.57,5.07-4.19,9.86-8.74,14.54-13.36,2.46-2.42,3.37-5.17,1.87-9-1.12-2.83-.71-6.38-.51-9.58.66-10.76-.24-21.09-6.21-30.55-10.36-16.41-25.46-21-43.75-18.12-16.58,2.65-30.56,16.51-33.38,33a19.4,19.4,0,0,1-1.16,4.82,13,13,0,0,0,1.53,14c1.69,2.31,1.36,4.23-.17,6.69-2.59,4.15-.74,9.2,3.82,11.13,1,.42,2.44-.24,4.24-.48,3.79,7.72,10.8,13,19.65,16.24-.4.37-.61.68-.73.65-7.26-1.77-7.65-1.93-10.6,5.1-2.15,5.12-3.12,10.75-4.51,16.18-.48,1.87-.65,3.82-1.7,5.77-2.64-9.85-5.22-19.73-8-29.56-2.07-7.5-4.16-15-6.64-22.38-.54-1.63-2.51-3.23-4.2-3.93a55.4,55.4,0,0,0-9.56-2.64,24.67,24.67,0,0,0-4.83,0c-3.29-4.79-3.16-5.39,2-8.65,4.25-2.69,8.52-5.35,12.6-8.29.74-.53,1-2.41.74-3.46-.36-1.34-1.5-2.46-2.5-4,2.76-1.22,6.31-1.71,7.28-3.55s-.92-4.89-1.6-7.63l12.09-5.53-11.85-8.7,19.14-9.48V534l-13.34-6.44-1.41-1.69,14.92-11.11-1.34-1.87-17.13-3c3.45-6.39,6.6-12.24,10.43-19.35l-19,6c-.77-8.05-1.49-15.48-2.35-24.49l-20,14.94-12.75-15.47L960,472c-.82,4.09-1.6,8.19-2.48,12.27-1.69,7.77-2,7.9-9.39,5.43-3.54-1.18-7.14-2.2-11.35-3.49,2,6.5,3.73,12.2,5.67,18.56l-23.27,2.58,13.29,17.38-15.56,11.73,17.55,10.27-11.32,12.23c2.85,1.22,5,2.26,7.21,3.06,6.27,2.25,6.72,3,5,9.43-.42,1.57-.83,3.15-1.44,5.43l11.31-.58c.54,2.76,1.07,5.44,1.85,9.38l6.11-4,12.37,8.5c-3.18,1.54-5.31,3.23-7.65,3.59-12.69,1.95-19.14,9.27-20.53,21.91C936.87,620.1,934.93,624.44,933.61,629Zm127.87-134.78-1.08-1.1-18,14.9,1.18,1.51,10.14-7.06-5.07,12.59,12.25-6.78c-2.75,4.51-4.81,7.9-6.88,11.28l1.93,1.16,13.22-19.28-1.12-.9-13.2,7.41Zm20.81,19.45c-.09-4.7-3.81-7.48-8.55-6.4-6.17,1.41-12.29,7.94-13.27,14.15-.8,5,2.36,8.43,7.42,8C1074.56,528.8,1082.42,520.21,1082.29,513.66Zm-39.46-18.47c-3.31-2.91-2.92-4.9,1.05-7a11.5,11.5,0,0,0,4.54-3.57c.75-1.21.9-3.87.09-4.71s-3.37-1.2-4.86-.75-2.26,2.21-3.47,3.28c-1.49,1.33-3.09,2.55-4.65,3.8-1.92,1.53-4.18,2.77-5.69,4.62-2.38,2.9-1.33,5.51,1.7,7.46,1.77,1.13,3.5,2.32,5.33,3.53C1038.57,500,1040.56,497.75,1042.83,495.19Zm36,36.33-1.42,10.21c1.57-.06,2-.22,2-.47,1.52-5.32,3.82-9.47,9.26-12.45,5.62-3.07,5-7.65-.77-11.92-5.51,5.84-11.8,11.07-16,18.09l1.12,1.06Zm-59.12-43.95,2.4.55c1.29-4,1.63-8.82,4.15-11.79s7.31-4.33,11.09-6.38l-.21-1.42-9.18,1.18,3.49-5.88-1.09-.7a84.59,84.59,0,0,0-17.08,17.51l1.3,1.3,7.16-5.81C1021,480.22,1020.39,483.9,1019.73,487.57Zm5.59-24.45c.25-.7,1.72-2.95,1.18-3.65-1.5-2-3.66-4.26-5.88-4.67-4.85-.89-8.48,2.23-11.36,5.77s-5.77,7.62-3.89,12.59a8.3,8.3,0,0,0,4.45,4.08c1,.41,2.84-1.11,3-1.2-1.61-3.22-3.58-5.56-3.84-8.08-.33-3.18,5.94-9.35,9.29-9.1C1020.4,459,1022.36,461.23,1025.32,463.12Zm-28.42,2.3,2.17,2,15.95-17.6-1.68-1.56Z" transform="translate(-887.89 -432.43)"/><path class="cls-1" d="M1058.62,576c5.7,8.33,14.78,5.56,22.26,7.55,1.17,6.25-1.14,10.68-6.77,13.11a15.13,15.13,0,0,1-17.42-4.45C1053.37,588,1054,581.48,1058.62,576Z" transform="translate(-887.89 -432.43)"/><path class="cls-1" d="M1021.05,584.5c7.76-2.81,17.18-.29,23.24-9.51l4.61,10.85-1,.6-2.21-2.58-.92.34a16.69,16.69,0,0,0,.51,3.5c1.78,4.88-.59,7.55-4.76,9.34C1030.34,601.41,1019.47,593.73,1021.05,584.5Z" transform="translate(-887.89 -432.43)"/><path class="cls-1" d="M949.45,535.73c-.78-7.85,2.27-12.5,8.38-13.38,5.52-.8,10.3,2.78,11.5,8.59.66,3.14.08,5.17-3.81,5.08-4.14-.1-8.28.21-12.42.24A24,24,0,0,1,949.45,535.73Z" transform="translate(-887.89 -432.43)"/><path class="cls-1" d="M983.73,526.12a81.52,81.52,0,0,1,9.61,4.28c1.16.67,1.39,3,2,4.53-1.55.55-3.12,1.63-4.64,1.55A63.16,63.16,0,0,1,980,535c-1.76-.39-3.31-1.69-5-2.58a66.92,66.92,0,0,1,4.45-5.8C980,526.05,981.36,526.34,983.73,526.12Z" transform="translate(-887.89 -432.43)"/><path d="M1061.48,494.21l-6.58,13.73,13.2-7.41,1.12.9L1056,520.71l-1.93-1.16c2.07-3.38,4.13-6.77,6.88-11.28l-12.25,6.78,5.07-12.59-10.14,7.06-1.18-1.51,18-14.9Z" transform="translate(-887.89 -432.43)"/><path d="M1082.29,513.66c.13,6.55-7.73,15.14-14.4,15.73-5.06.45-8.22-2.94-7.42-8,1-6.21,7.1-12.74,13.27-14.15C1078.48,506.18,1082.2,509,1082.29,513.66Zm-3.87,1c-.26-2.74-2-4.07-5.32-3.36-3.82.81-8.8,5.76-8.93,9.66-.05,1.38,1.54,3.74,2.79,4.06C1071.92,526.24,1078.57,520.32,1078.42,514.61Z" transform="translate(-887.89 -432.43)"/><path d="M1042.83,495.19c-2.27,2.56-4.26,4.78-6,6.69-1.83-1.21-3.56-2.4-5.33-3.53-3-2-4.08-4.56-1.7-7.46,1.51-1.85,3.77-3.09,5.69-4.62,1.56-1.25,3.16-2.47,4.65-3.8,1.21-1.07,2.11-2.87,3.47-3.28s3.92-.22,4.86.75.66,3.5-.09,4.71a11.5,11.5,0,0,1-4.54,3.57C1039.91,490.29,1039.52,492.28,1042.83,495.19Zm-5-4.74-2.29-1.49c-1,1.73-2,3.44-2.84,5.22a10.08,10.08,0,0,0,1.71,1.24Z" transform="translate(-887.89 -432.43)"/><path d="M1078.85,531.52l-5.72,4.52L1072,535c4.15-7,10.44-12.25,16-18.09,5.73,4.27,6.39,8.85.77,11.92-5.44,3-7.74,7.13-9.26,12.45-.07.25-.47.41-2,.47Z" transform="translate(-887.89 -432.43)"/><path d="M1019.73,487.57c.66-3.67,1.31-7.35,2-11.44l-7.16,5.81-1.3-1.3a84.59,84.59,0,0,1,17.08-17.51l1.09.7-3.49,5.88,9.18-1.18.21,1.42c-3.78,2.05-8.5,3.31-11.09,6.38s-2.86,7.78-4.15,11.79Z" transform="translate(-887.89 -432.43)"/><path d="M1025.32,463.12c-3-1.89-4.92-4.1-7-4.26-3.35-.25-9.62,5.92-9.29,9.1.26,2.52,2.23,4.86,3.84,8.08-.18.09-2,1.61-3,1.2a8.3,8.3,0,0,1-4.45-4.08c-1.88-5,.94-9,3.89-12.59s6.51-6.66,11.36-5.77c2.22.41,4.38,2.7,5.88,4.67C1027,460.17,1025.57,462.42,1025.32,463.12Z" transform="translate(-887.89 -432.43)"/><path d="M996.9,465.42l16.44-17.13,1.68,1.56-15.95,17.6Z" transform="translate(-887.89 -432.43)"/><path class="cls-1" d="M1078.42,514.61c.15,5.71-6.5,11.63-11.46,10.36-1.25-.32-2.84-2.68-2.79-4.06.13-3.9,5.11-8.85,8.93-9.66C1076.4,510.54,1078.16,511.87,1078.42,514.61Z" transform="translate(-887.89 -432.43)"/><path class="cls-1" d="M1037.85,490.45l-3.42,5a10.08,10.08,0,0,1-1.71-1.24c.85-1.78,1.86-3.49,2.84-5.22Z" transform="translate(-887.89 -432.43)"/></g><g id="text"><rect class="cls-2" x="50.8" y="197.53" width="131.13" height="35.69"/><text class="cls-3" transform="translate(86.54 222.59)">HOME</text></g></svg>