<svg xmlns="http://www.w3.org/2000/svg" viewBox="0 0 693.54 181.67"><defs><style>.cls-1{fill:#97d101;}.cls-2{fill:#f9ca9a;}.cls-3{fill:#f7e705;}.cls-4{fill:#826006;}.cls-5{fill:#f5e608;}.cls-6{fill:#fdf1ac;}.cls-7{fill:#fdf2ac;}.cls-8{fill:#efd38c;}.cls-9{fill:#f9f4ea;}.cls-10{fill:#aa5d0c;}.cls-11{fill:#f3e716;}.cls-12{fill:#f2d48e;}.cls-13{fill:#dbd77f;}.cls-14{fill:#e8db28;}.cls-15{fill:#3f1e09;}.cls-16{fill:#e9e9dd;}.cls-17{fill:#281f06;}.cls-18{fill:#f4e60e;}.cls-19{fill:#fbf19e;}.cls-20{fill:#503e0c;}.cls-21{fill:#d3ce98;}.cls-22{fill:#d6d445;}.cls-23{fill:#a4d215;}.cls-24{fill:#48360b;}.cls-25{fill:#d6d68a;}.cls-26{fill:#a23f1e;}.cls-27{fill:#452b13;}.cls-28{stroke:#000;stroke-miterlimit:10;}.cls-29{fill:#92daa4;}.cls-30{fill:#05c69d;}.cls-31{fill:#d0cbb2;}.cls-32{fill:#f5e60e;}.cls-33{fill:#f9f6e8;}.cls-34{fill:#d2cdae;}.cls-35{fill:#9f401f;}.cls-36{fill:#6bcbdc;}.cls-37{fill:#a1d9a2;}.cls-38{fill:#f4f2db;}.cls-39{fill:#ccccb8;}.cls-40{fill:#f8f3e1;}.cls-41{fill:#68bc72;}.cls-42{fill:#d4db86;}.cls-43{fill:#cacaab;}.cls-44{fill:#bdc9b7;}.cls-45{fill:#f5e717;}.cls-46{fill:#575d3e;}.cls-47{fill:#dbd35a;}.cls-48{fill:#221c0e;}.cls-49{fill:#d8d423;}.cls-50{fill:#5a4e24;}.cls-51{fill:#372b14;}.cls-52{fill:#d8d244;}.cls-53{fill:#8c7e3e;}.cls-54{fill:#8bd7a0;}.cls-55{fill:#ef290f;}.cls-56{fill:#fefefe;}</style></defs><g id="morty"><path class="cls-1" d="M1097.09,498c4.93-1.3,7,3.63,10.82,5.05,4,1.51,7.43,4.58,11.11,7l2.3,1.09c.92,1.73,1.83,3.47,2.75,5.21,2,3.52,3.18,8.29,6.2,10.28,4.22,2.78,6.06,7,9.25,10.32,1.41,1.46,2.78,3,4.16,4.44-.61,1.25-1,2.79-1.9,3.7-8.79,8.41-19.48,12.2-31.51,13-9.77.65-19.57,1.38-29.23,2.89a66.73,66.73,0,0,1-27-1l0,0-2.3-2c.32-1.42.71-2.83,1-4.26.27-1.66.4-3.33.6-5-1.89-.21-4.46-1.28-5.51-.44-1.42,1.14-1.81,3.69-2.39,5.71s-.79,3.94-1.17,5.91l-2.47,1.83-1.51.16c-4.14-6.57-4.07-8.46.72-14.44,1-1.22,2.17-2.27,3.27-3.4a13.19,13.19,0,0,0,7.79-8.68c.41-1.38,2.5-2.26,3.82-3.37,17.1-.69,34.19-1.33,51.28-2.08,4.62-.2,9.23-.69,13.85-1,3.47-.75,1.27-2.14.26-3.12-4.87-4.68-9.53-9.62-14.8-13.8-4-3.18-8.81-5.34-13.26-7.95a2.7,2.7,0,0,0-.42-.87l.69-1.84Z" transform="translate(-598.78 -448.37)"/><path class="cls-2" d="M1200.14,482.09a15.76,15.76,0,0,1,2.89,11h-8.63l-4.41,7c-3.55,3.24-2.51,10.15,2.1,14l0,0c3.4,4.08,8.17,5.15,14,3.13.54,1.26,1.6,2.55,1.5,3.76a70,70,0,0,1-1.53,8.28c-1.34,6.69-15.49,17.92-22.19,17.61.41-.48.73-1.23,1.24-1.41,7-2.42,11.19-12.19,2.93-18.32-8.58-5.31-19.52-5.25-26.3.13-3,3.17-8.17,5-6.45,11,.35.62.7,1.24,1,1.86l1.48,1.08c1.15.79,2.21,2,3.47,2.28,7.16,1.4,14.37,2.55,21.56,3.79-7.61,4.17-15.36,2.71-23.13.57l-14.63-7.59c1-.82,2.71-1.52,2.85-2.46.9-6.36,1.19-12.81,2.27-19.13.5-2.92,2.32-5.62,3.55-8.42l2.34,2L1156,512l1.08,1.09-.1-.09,3.06,2.12,7.53.84,2.57-.23,4-1.51,2.1-1.91a10.77,10.77,0,0,0,1.9-12.24l-2-4.08-6.21-5.74L1168,472.09l15.55,1c1.91.78,4.12,1.19,5.65,2.43,3.41,2.76,9.5,2.57,9.84,9.2Z" transform="translate(-598.78 -448.37)"/><path class="cls-3" d="M1054,559.93a66.73,66.73,0,0,0,27,1c9.66-1.51,19.46-2.24,29.23-2.89,12-.81,22.72-4.6,31.51-13,1-.91,1.29-2.45,1.9-3.7l11.86,7.17c-9.76,11.19-21.74,18.2-36.73,19.77-5.67.6-11.31,1.58-17,2.39-3.89-1.24-4.6-1.07-5.34,1.31a49.59,49.59,0,0,1-5.23,1,76.37,76.37,0,0,1-10.35.47c-5.32-.31-11.54,3.55-15.68-3.16-.34-.55-2.15-.2-3.28-.27-2.75-5-3.1-5-7.73-1l2.22,3c-2-.57-4.54-.54-5.76-1.82-2.13-2.24.16-3.63,1.86-5.27C1053.64,563.86,1053.56,561.63,1054,559.93Z" transform="translate(-598.78 -448.37)"/><path class="cls-4" d="M1156.21,457.23l19.15.64c.85,4.1,1.72,8.2,2.58,12.31-7.46-.15-15-1-21.93,2.94l-3,2.09,0,0-7,4,0,0-6,4.09.06-.06-1,1,0,0-1,1,.07-.1-1.09,3,0,0-1,1,0,0-1,2,0,0-1,2,0,0-4,16.14q-1.59,2.52-3.17,5l-1.59-.12q-2.13-4.14-4.25-8.27a1.23,1.23,0,0,1-.07-.78c0-.69-.09-1.38-.14-2.05,2.67-21.14,10.78-38.19,33.44-44.31C1155,458.54,1155.57,457.75,1156.21,457.23Z" transform="translate(-598.78 -448.37)"/><path class="cls-5" d="M1044.22,544.08c-1.1,1.13-2.29,2.18-3.27,3.4-4.79,6-4.86,7.87-.72,14.44-.54.78-1.42,1.5-1.53,2.33-.31,2.2-.29,4.44-.4,6.66,1.4-.13,2.8-.35,4.2-.34.71,0,1.86.26,2,.69a3.45,3.45,0,0,1-.2,2.56,30.06,30.06,0,0,1-3,3.78l6.53.59v4.46L1042,581l-9.12-4.27c-.89-1.85-2.39-3.93-2.87-6.23a25.39,25.39,0,0,1,.11-7.53,4.48,4.48,0,0,1,1.46-3.05c5-3.17,6.11-7.53,3.77-12.14-1.47,1.7-3.27,3.76-5.07,5.82-3.32-3.57-4.13-6.86-5.69-7.26-3.3-.83-2.65-2.84-2.68-4.83,0-3.15.05-6.29.08-9.44l2-.14,5,12.06h9.59c-1.61-3,2.19-6.66-2.95-8-.07-2,.08-5.59-.27-5.64-3.52-.5-6.55-3.75-10.44-2.06-1.27-2.07-2.53-4.15-3.8-6.23,3.62,3.72,5.83,3.7,7.69-.8,1.14-2.77.88-6.1,1.26-9.18q8.73-.92,5.7-10.09c.73-.44,2.13-1,2.09-1.29-.61-4.71,2.5-7.55,5.12-10.64l3.72,2.31a26,26,0,0,1,2.9,4.36c1,2.3,2.1,4.83,1.93,7.16-.06.85-4,1.05-5.6,2.23-2.38,1.71-5.14,3.69-6.18,6.2s-.24,5.61,3.87,6.39c1.68.32,3,2.59,4.72,4.22-2.51,1.37-4.76,1.92-5.81,3.35-1.3,1.78-2.51,4.44-2.16,6.44C1041.07,536.63,1042.87,540.32,1044.22,544.08Zm-.18-49.81c-1.52,2.51-2.81,3.7-2.71,4.76s1.57,2,2.44,3c.76-1,2-1.89,2.15-3S1045.11,496.86,1044,494.27Z" transform="translate(-598.78 -448.37)"/><path class="cls-6" d="M1047.87,582.65v-4.46l-6.53-.59a30.06,30.06,0,0,0,3-3.78,3.45,3.45,0,0,0,.2-2.56c-.16-.43-1.31-.69-2-.69-1.4,0-2.8.21-4.2.34.11-2.22.09-4.46.4-6.66.11-.83,1-1.55,1.53-2.33l1.52-.16,2.46-1.83c.38-2,.61-4,1.17-5.91s1-4.57,2.39-5.71c1-.84,3.62.23,5.51.44-.2,1.67-.33,3.34-.6,5-.24,1.43-.63,2.84-1,4.26l2.3,2,0,0c-.44,1.7-.36,3.93-1.44,5-1.7,1.64-4,3-1.86,5.27,1.22,1.28,3.8,1.25,5.76,1.82l0-.07a38.07,38.07,0,0,0,1.43,5.68c.38.92,1.61,1.5,2.45,2.23.55-.85,1.48-1.66,1.56-2.54.23-2.44.1-4.9.11-7.36l-.06,0c1.13.08,2.94-.27,3.28.28,4.14,6.71,10.36,2.85,15.68,3.16a76.37,76.37,0,0,0,10.35-.47,52.25,52.25,0,0,0,5.23-1c4.71-.2,3.79,2.65,3.1,5.83-7.54-1.62-4.92,4.5-6.3,9.38l-12.65-6.78c-2.19,9-2.19,9-9.89,7.19-1.78-5.49-1.78-5.47-6.43-1.9a10.68,10.68,0,0,1-2.25,1l-1.46,1.31a6.84,6.84,0,0,0-2.41.14c-5.91,2.65-7.48,2-9-4.14Z" transform="translate(-598.78 -448.37)"/><path class="cls-6" d="M1044.22,544.08c-1.35-3.76-3.15-7.45-3.84-11.33-.35-2,.86-4.66,2.16-6.44,1-1.43,3.3-2,5.81-3.35-1.73-1.63-3-3.9-4.72-4.22-4.11-.78-5-3.78-3.87-6.39s3.8-4.49,6.18-6.2c1.65-1.18,5.54-1.38,5.6-2.23.17-2.33-1-4.86-1.93-7.16a26,26,0,0,0-2.9-4.36l2.78-.46c4.58-.56,5.24-4.42,6.27-7.74.92-3,2.47-4.52,5.66-4.1l2.79,2.68c-.56,2.65-5.28,3.49-3.17,7.29l2,3c.76,2.88,2.46,5.93,2,8.58-.42,2.31-3.32,4.16-5.09,6.24-.16.18-.06.58-.08.88l1.37-.4c.78,1.94,2.2,3.89,2.15,5.8,0,1.67-1.79,3.26-2.69,4.94s-2.16,3.54-2.59,5.46c-.33,1.48.36,3.19.61,4.79l-2.83,2.68c-1.32,1.11-3.41,2-3.82,3.37A13.19,13.19,0,0,1,1044.22,544.08Z" transform="translate(-598.78 -448.37)"/><path class="cls-7" d="M1022,532.05c0,3.15-.13,6.29-.08,9.44,0,2-.62,4,2.68,4.83,1.56.4,2.37,3.69,5.69,7.26,1.8-2.06,3.6-4.12,5.07-5.82,2.34,4.61,1.24,9-3.77,12.14a4.48,4.48,0,0,0-1.46,3.05,25.39,25.39,0,0,0-.11,7.53c.48,2.3,2,4.38,2.87,6.23L1042,581c-2.12,2-4,4.61-6.49,5.56-1,.39-3.3-3.16-5.26-4.58a8.86,8.86,0,0,0-4.53-1.69c-1.6-.07-3.23.76-4.85,1.2,0-1.84.08-3.68.11-5.52,3.92-3,3.72-5.73-.47-9.33a19.84,19.84,0,0,1-2.58-3.38l1.16-7.47-3.32-1.17c-1.66-4.57-4-8.45-4.25-12.47-.22-3.16,1.48-6.94,3.48-9.58C1016,531.33,1019.6,532.15,1022,532.05Z" transform="translate(-598.78 -448.37)"/><path class="cls-8" d="M1270,474.74c-2.48,3.9-4.8,7.91-7.5,11.65a69.4,69.4,0,0,1-7.31,8.48c-7.16,7.17-14.39,14.29-23.91,18.45a45.36,45.36,0,0,0-8,4.29c-1.15.81-1.46,2.75-2.28,4.1-1.29,2.09-2.69,4.11-4,6.16q2.08-9.36,4.18-18.71c4.52-2.89,9-5.81,13.58-8.63.46-.28,1.24,0,1.87,0,2.17-.92,4.82-1.34,6.41-2.87,3.28-3.16,6-6.9,8.94-10.4L1265,471.09l6.06,2-.61,1.14A2.15,2.15,0,0,0,1270,474.74Z" transform="translate(-598.78 -448.37)"/><path class="cls-9" d="M1190,500l4.41-7H1203c3.9.52,7.59,5.21,8,10.34.16,2.15,0,4.32,0,6.48q-2.57,3-5.14,6L1192,514l0,0Z" transform="translate(-598.78 -448.37)"/><path class="cls-6" d="M1043,490.09c-2.62,3.09-5.73,5.93-5.12,10.64,0,.33-1.36.85-2.09,1.29-3.85-.84-7.26-.69-8.84,3.79-.06.16-.61.14-.93.21l-3.35-3.24c.25-.58.62-1.44,1.08-2.53-6.72.76-6.72.76-7.8-2.87-.21-4.53,3-5.48,6.47-6.36,4-1,7.49-2.6,4.64-8.32l9-2.82Z" transform="translate(-598.78 -448.37)"/><path class="cls-10" d="M1177.94,470.18c-.86-4.11-1.73-8.21-2.58-12.31,7.45,1.42,16.39-.58,20.05,9.33.73,2,3.83,3.14,4.33,5.07.8,3.1.33,6.53.4,9.82l-1.1,2.59c-.34-6.63-6.43-6.44-9.84-9.2-1.53-1.24-3.74-1.65-5.64-2.43Z" transform="translate(-598.78 -448.37)"/><path class="cls-11" d="M1062.09,586.7a10.68,10.68,0,0,0,2.25-1c4.65-3.57,4.65-3.59,6.43,1.9,7.7,1.8,7.7,1.8,9.89-7.19l12.65,6.78c1.38-4.88-1.24-11,6.3-9.38.69-3.18,1.61-6-3.1-5.83.74-2.39,1.45-2.56,5.34-1.32a28.72,28.72,0,0,0,.66,4.76c1.23,3.91-.72,6.05-3.73,8a13.94,13.94,0,0,0-4.74,4.67c-2.48,4.81-5.77,5.92-10.07,2.54-2.45-1.93-4.19-2.62-6.45.46-3.23,4.42-6.69,1.21-9.84-.47A50.82,50.82,0,0,1,1062.09,586.7Z" transform="translate(-598.78 -448.37)"/><path class="cls-12" d="M1271.06,473.13l-6.06-2,1.75-3.82,3.85,1.34c-1.48-2.35,1.24-6.46-3.75-6.72l6.37-6.81c.86,1.23,1.83,2.64,2.8,4l5.5-.62c.26,1.07.52,2.13.63,2.61h9.23c.08.38.17.76.26,1.14-2.41.95-4.75,2.22-7.24,2.77-4.18.92-3.83,2.37-.3,5.08Z" transform="translate(-598.78 -448.37)"/><path class="cls-13" d="M1061,490.07c-2.11-3.8,2.61-4.64,3.17-7.29,2.35.71,4.8,2.25,7,2,5.56-.65,10,1.46,14.15,4.49,3.94,2.84,7.8,5.79,11.7,8.7-1.22,1.13-2.44,2.25-3.65,3.39-5.74-6.48-12.38-11.26-21.52-11.27Z" transform="translate(-598.78 -448.37)"/><path class="cls-14" d="M1156.21,457.23c-.64.52-1.2,1.31-1.93,1.51-22.66,6.12-30.77,23.17-33.44,44.31-.3-2.49-1.3-5.12-.8-7.42,2.56-11.84,6.74-23.1,16.37-31.09A29.73,29.73,0,0,1,1156.21,457.23Z" transform="translate(-598.78 -448.37)"/><path class="cls-15" d="M1188,527c8.26,6.13,4.07,15.9-2.93,18.32-.51.18-.83.93-1.24,1.41l-1,.36c-7.2-1.24-14.41-2.39-21.57-3.79-1.26-.24-2.32-1.49-3.47-2.28l6-.47-.25-1.76-7.23,1.15c-.34-.62-.69-1.24-1-1.86,4.07.81,9.42-2.49,11.87,3.69.12.3,1.26.15,1.9.31,2.22.53,4.45,1,6.63,1.69,4.94,1.49,11-.07,13.48-3.85,2.93-4.54,1.33-8.48-2.14-12Z" transform="translate(-598.78 -448.37)"/><path class="cls-16" d="M1029,544l-5-12.06,1-3.59c3.89-1.69,6.92,1.56,10.44,2.06.35,0,.2,3.67.28,5.64-1,1.29-2.06,2.6-3.12,3.87S1030.18,542.61,1029,544Z" transform="translate(-598.78 -448.37)"/><path class="cls-6" d="M1030.08,512.11c-.38,3.08-.12,6.41-1.26,9.18-1.86,4.5-4.07,4.52-7.69.8-2.42-4.57-1.07-8.13,2.95-11Z" transform="translate(-598.78 -448.37)"/><path class="cls-17" d="M1125.3,514.15l1.59.12c1.07,3.84,0,8.53,5,10.75,1.88.84,3.44,2.68,4.82,4.33,2.9,3.48,5.59,7.13,8.37,10.72l14.63,7.59-4.17.82-11.86-7.17c-1.38-1.48-2.75-3-4.16-4.44-3.19-3.31-5-7.54-9.25-10.32-3-2-4.2-6.76-6.2-10.28Z" transform="translate(-598.78 -448.37)"/><path class="cls-16" d="M1030.08,512.11l-6-1c-.53-.79-1-1.59-1.58-2.39,1.18-.9,2.34-1.8,3.51-2.71.32-.07.87,0,.93-.21,1.58-4.48,5-4.63,8.84-3.79Q1038.81,511.2,1030.08,512.11Z" transform="translate(-598.78 -448.37)"/><path class="cls-18" d="M1026,506c-1.17.91-2.33,1.81-3.51,2.71-5.26-.16-9.32-4.84-8.41-9.87.1-.59,1.21-1,1.85-1.48,1.08,3.63,1.08,3.63,7.8,2.87-.46,1.09-.83,1.95-1.08,2.53Z" transform="translate(-598.78 -448.37)"/><path class="cls-11" d="M1061.42,480.1c-3.19-.42-4.74,1.14-5.66,4.1-1,3.32-1.69,7.18-6.27,7.74.77-2.36,2.38-4.82,2.12-7.07-.36-3.05-1.67-6,1.9-7.71S1059.47,477.27,1061.42,480.1Z" transform="translate(-598.78 -448.37)"/><path class="cls-18" d="M1216,528c-2.87,1.4-5.43,5.09-9,1.24.8-1.53,1.62-3,2.39-4.58s1.58-3.24,2.36-4.85l4.06-2.73Z" transform="translate(-598.78 -448.37)"/><path class="cls-19" d="M1015,584.51c1.07-.39,2.59-1.43,3.15-1,2.58,1.74,4.9,3.87,8,6.41l-5,3.13c-1.33-1-2.6-2.15-4-3.1C1015.2,588.56,1013.69,587.13,1015,584.51Z" transform="translate(-598.78 -448.37)"/><path class="cls-20" d="M1211.75,519.84c-.78,1.61-1.55,3.24-2.36,4.85s-1.59,3-2.39,4.58a2.33,2.33,0,0,0-.94-.16,69.45,69.45,0,0,0,1.53-8.27c.1-1.21-1-2.5-1.5-3.76-.07-.41-.13-.82-.2-1.23q2.58-3,5.14-6l2.09,1.42Q1212.45,515.56,1211.75,519.84Z" transform="translate(-598.78 -448.37)"/><path class="cls-11" d="M1015,584.51c-1.33,2.62.18,4,2.15,5.39,1.39,1,2.66,2.06,4,3.1-2.55,0-5.39.74-7.55-.17-1.65-.7-2.44-3.45-3.61-5.29Z" transform="translate(-598.78 -448.37)"/><path class="cls-13" d="M1281.52,458.5l-5.5.62a22.09,22.09,0,0,1,15.46-7.47l.85,1.54Z" transform="translate(-598.78 -448.37)"/><path class="cls-11" d="M1018,563.24a19.84,19.84,0,0,0,2.58,3.38c4.19,3.6,4.39,6.35.47,9.33-1.45-2.58-3.27-5-4.2-7.79C1016.34,566.81,1017.52,564.9,1018,563.24Z" transform="translate(-598.78 -448.37)"/><path class="cls-21" d="M1266.85,461.89c5,.26,2.27,4.37,3.75,6.72l-3.85-1.34-10.18-2.81v-.93Z" transform="translate(-598.78 -448.37)"/><path class="cls-11" d="M1049.21,584c1.53,6.1,3.1,6.79,9,4.14a6.84,6.84,0,0,1,2.41-.14c-2.27,2.8-4.07,7.22-8.59,5.46C1047.89,591.86,1049.32,587.45,1049.21,584Z" transform="translate(-598.78 -448.37)"/><path class="cls-22" d="M1251.93,487.24c-3,3.5-5.66,7.24-8.94,10.4-1.59,1.53-4.24,1.95-6.41,2.87Z" transform="translate(-598.78 -448.37)"/><path class="cls-23" d="M1211.75,519.84q.69-4.27,1.37-8.55l5.44-1.58c-.92,2.46-1.83,4.93-2.75,7.4Z" transform="translate(-598.78 -448.37)"/><path class="cls-24" d="M1215.81,517.11c.92-2.47,1.83-4.94,2.75-7.4l2.57-.55q-2.09,9.36-4.18,18.71a1.57,1.57,0,0,1-.93.16Z" transform="translate(-598.78 -448.37)"/><path class="cls-20" d="M1121,505.1a1.23,1.23,0,0,0,.07.78l.27,5.18L1119,510C1119.67,508.35,1120.32,506.72,1121,505.1Z" transform="translate(-598.78 -448.37)"/><path class="cls-12" d="M1270,474.74a2.15,2.15,0,0,1,.43-.47A.41.41,0,0,1,1270,474.74Z" transform="translate(-598.78 -448.37)"/><path class="cls-5" d="M1115,524.05c-6.64-3.78-13.26-7.58-19.91-11.33-4-2.27-4.57-4.68-1.91-8.68,4.45,2.61,9.26,4.77,13.26,7.95,5.27,4.18,9.93,9.12,14.8,13.8,1,1,3.21,2.37-.26,3.12Z" transform="translate(-598.78 -448.37)"/><path class="cls-14" d="M1115,524.05l6,4.86c-4.62.35-9.23.84-13.85,1-17.09.75-34.18,1.39-51.28,2.08l2.83-2.68c12.91-.31,25.82-.6,38.74-1,3.65-.1,7.38,0,10.91-.72C1110.68,527.18,1112.77,525.31,1115,524.05Z" transform="translate(-598.78 -448.37)"/><path class="cls-2" d="M1092.74,503.17c-2.48-1-5.69-1.36-7.32-3.14-6.24-6.82-14-7.62-22.43-7l-2-3h10.88c9.14,0,15.78,4.79,21.52,11.27C1093.2,501.94,1093,502.56,1092.74,503.17Z" transform="translate(-598.78 -448.37)"/><path class="cls-14" d="M1121.32,511.06l-.27-5.18q2.12,4.14,4.25,8.27l-1.23,2.12C1123.15,514.53,1122.24,512.79,1121.32,511.06Z" transform="translate(-598.78 -448.37)"/><path class="cls-3" d="M1054,560l-2.3-2Z" transform="translate(-598.78 -448.37)"/><path class="cls-5" d="M1044.21,559.93l-2.46,1.83Z" transform="translate(-598.78 -448.37)"/><path class="cls-25" d="M1145.08,540.07c-2.78-3.59-5.47-7.24-8.37-10.72-1.38-1.65-2.94-3.49-4.82-4.33-5-2.22-3.93-6.91-5-10.75q1.58-2.52,3.17-5l7.1-.9c-5.15-1.68-5.84-4-4.56-7.57.88-2.42,1-5.1,1.48-7.67l0,0,1-2,0,0,1-2,0,0,1-1,0,0c.36-1,.73-2,1.09-3l-.07.1,1-1,0,0,1-1-.06.06,6-4.09,0,0,7-4,0,0L1158,474l10-1.9,1.92,18.11c-5.09-.27-10.41-1.37-13.89,4l.08-.08c-5,4.69-5.12,10.12-2.36,16-1.23,2.8-3,5.5-3.55,8.42-1.08,6.32-1.37,12.77-2.27,19.13C1147.79,538.55,1146.07,539.25,1145.08,540.07Z" transform="translate(-598.78 -448.37)"/><path class="cls-26" d="M1187,527.94c3.47,3.5,5.07,7.44,2.14,12-2.45,3.78-8.54,5.34-13.48,3.85-2.18-.66-4.41-1.16-6.63-1.69-.64-.16-1.78,0-1.9-.31-2.45-6.18-7.8-2.88-11.87-3.69-1.72-5.92,3.49-7.78,6.45-11,.45.18,1,.62,1.33.49A32.82,32.82,0,0,1,1187,527.94Z" transform="translate(-598.78 -448.37)"/><path class="cls-9" d="M1167.58,515.91l-7.53-.84L1157,513l.1.09L1156,512l.08.08c-1.23-4.35-4.34-8.43-1.75-13.32a38.16,38.16,0,0,0,1.77-4.61l-.07.08c6.3-3,12.55-5.39,18,1.53-.13,6.32,1.91,13-3,18.56h.09Z" transform="translate(-598.78 -448.37)"/><path class="cls-27" d="M1187,527.94a32.82,32.82,0,0,0-24-.32c-.34.13-.88-.31-1.33-.49,6.78-5.38,17.72-5.44,26.3-.13C1187.7,527.31,1187.36,527.62,1187,527.94Z" transform="translate(-598.78 -448.37)"/><path class="cls-27" d="M1168,472.09l-10,1.9-2-.87c6.92-3.9,14.47-3.09,21.93-2.94l5.62,2.87Z" transform="translate(-598.78 -448.37)"/><path class="cls-17" d="M1174.05,495.71c-5.46-6.92-11.71-4.52-18-1.53,3.47-5.35,8.79-4.25,13.88-4l6.21,5.74-.66.65Z" transform="translate(-598.78 -448.37)"/><path class="cls-17" d="M1156.11,494.1a38.16,38.16,0,0,1-1.77,4.61c-2.59,4.89.52,9,1.75,13.32l-2.34-2C1151,504.22,1151.09,498.79,1156.11,494.1Z" transform="translate(-598.78 -448.37)"/><path class="cls-27" d="M1190,500l2.1,14C1187.48,510.17,1186.44,503.26,1190,500Z" transform="translate(-598.78 -448.37)"/><path class="cls-27" d="M1205.89,515.85c.07.41.13.82.2,1.23-5.88,2-10.65.95-14-3.13Z" transform="translate(-598.78 -448.37)"/><path class="cls-24" d="M1178.14,500a10.77,10.77,0,0,1-1.9,12.24l-.86-.81,1.65-11.4Z" transform="translate(-598.78 -448.37)"/><path class="cls-26" d="M1156.33,539.94l7.23-1.15.25,1.76-6,.47Z" transform="translate(-598.78 -448.37)"/><path class="cls-17" d="M1178.14,500l-1.11,0-1.56-3.46.66-.65Z" transform="translate(-598.78 -448.37)"/><path class="cls-14" d="M1167.58,515.91l3.6-1.65-1,1.42Z" transform="translate(-598.78 -448.37)"/><path class="cls-24" d="M1170.15,515.68l1-1.42h-.09l2.59-.49.46.39Z" transform="translate(-598.78 -448.37)"/><path class="cls-24" d="M1176.24,512.26l-2.1,1.91c-.15-.13-.3-.26-.46-.38l1.7-2.34Z" transform="translate(-598.78 -448.37)"/><path class="cls-17" d="M1157,513l3.06,2.12Z" transform="translate(-598.78 -448.37)"/><path class="cls-17" d="M1156,512l1.08,1.09Z" transform="translate(-598.78 -448.37)"/><path class="cls-19" d="M1056.48,571.92l0,.07-2.22-3c4.63-4,5-4,7.73,1l.06,0Z" transform="translate(-598.78 -448.37)"/><path class="cls-17" d="M1134.08,493.09c-.46,2.57-.6,5.25-1.48,7.67-1.28,3.53-.59,5.89,4.56,7.57l-7.1.9Z" transform="translate(-598.78 -448.37)"/><path class="cls-17" d="M1153.07,475.17l-7,4Z" transform="translate(-598.78 -448.37)"/><path class="cls-17" d="M1146.06,479.13l-6,4.09Z" transform="translate(-598.78 -448.37)"/><path class="cls-17" d="M1156,473.12l2,.87-4.93,1.22Z" transform="translate(-598.78 -448.37)"/><path class="cls-17" d="M1138.13,485.09c-.36,1-.73,2-1.09,3C1137.4,487.12,1137.77,486.11,1138.13,485.09Z" transform="translate(-598.78 -448.37)"/><path class="cls-17" d="M1135.07,491.09l-1,2Z" transform="translate(-598.78 -448.37)"/><path class="cls-17" d="M1136.09,489.11l-1,2Z" transform="translate(-598.78 -448.37)"/><path class="cls-17" d="M1140.12,483.16l-1,1Z" transform="translate(-598.78 -448.37)"/><path class="cls-17" d="M1137.07,488.1l-1,1Z" transform="translate(-598.78 -448.37)"/><path class="cls-17" d="M1139.11,484.15l-1,1Z" transform="translate(-598.78 -448.37)"/><path class="cls-19" d="M1029,544c1.18-1.36,2.38-2.7,3.53-4.08s2.08-2.58,3.12-3.87c5.13,1.29,1.33,4.91,2.94,8Z" transform="translate(-598.78 -448.37)"/><path class="cls-6" d="M1044,494.27c1.07,2.59,2,3.79,1.88,4.83s-1.39,2-2.15,3c-.87-1-2.33-1.95-2.44-3S1042.52,496.78,1044,494.27Z" transform="translate(-598.78 -448.37)"/><path class="cls-3" d="M1056.48,571.92l5.55-2c0,2.46.12,4.92-.11,7.36-.08.88-1,1.69-1.56,2.54-.84-.73-2.07-1.31-2.45-2.23A38.07,38.07,0,0,1,1056.48,571.92Z" transform="translate(-598.78 -448.37)"/><path class="cls-14" d="M1175.38,511.45l-1.7,2.34-2.59.48c4.87-5.57,2.83-12.24,3-18.56l1.42.88,1.56,3.46Z" transform="translate(-598.78 -448.37)"/><circle class="cls-28" cx="569.57" cy="55.96" r="0.77"/><circle class="cls-28" cx="605.78" cy="56.58" r="0.77"/></g><g id="Rick"><path class="cls-6" d="M887.24,597.72c-6.86,4.8-13.08,2.45-14.88-5.54-.11-.51-1-.84-1.46-1.26q-1.17-3.87-2.33-7.74l6.53,1.24a.41.41,0,0,0,.43.39l5.56-.78,3.58-1.17c3.69,1.4,4.74-1.77,5.93-3.89.34-.61-1.56-2.47-2.43-3.76-.08-1.36-.15-2.72-.23-4.08,3.76-2.86,5.23-5.81-.14-8.85,1.18-1.58,2.15-2.85,3.07-4.17,1.86-2.65.54-6-2.79-7.17l-4.22-7.85c.09-.68.17-1.36.26-2,4.38-1.47,5-4.79,1.74-8.92L879,528c-.67-1.79-2-3.62-1.88-5.36.32-5.32-1.87-7.36-7-6.64a29.33,29.33,0,0,1-4,0c-1.44-1.16-4.1-2.31-4.12-3.49-.07-5-1.43-8.21-7-8.68-1-.09-2-1.63-2.92-2.51-.22-5.1,3.05-6.89,7.34-7.27,4.79-.43,9.09,3.57,10.22,8.81,5.09.93,10.37,1,14.88,2.93,6.54,2.76,7.69,5.77,6.83,11.79,7.69,4.77,8.28,6.79,4,9.8-.51,5.23-1,9.66-1.43,14.61l5.39-2.16c-.49,3-.88,5.3-1.32,7.92l8,.68c-2.29,4.07-1.41,6.08,2.43,8.09,2.42,1.26,3.49,5,.25,5.8-.58,3.12-1,5.31-1.41,7.5l-1.88-.19-1.08-7.44-1.78.09c-.27,5.14-.53,10.28-.82,15.73,3.66,0,7.71,2.44,8.82-3.38.06-.34.7-.64,1.14-.82,5.56-2.31,5.71-3.21,2-8.22a5.65,5.65,0,0,1-.78-3.85c.64-4.3,1.57-8.56,2.38-12.84l6.2,3.49c.26,2,.53,4,.79,6,9.22-.29,11.1,4.49,8.68,9.68l-6.13,2.15L927,573.9c-.65.69-1.55,1.27-1.9,2.09-1.07,2.5-1.93,5.09-2.95,7.85l.87.28-9,1.91c.3-1.88.61-3.77,1-5.85l-7.86,7.11,4.18,1.49c-.81,2.61-1.52,4.86-2.22,7.11-3.49-.85-6.16.47-8.31,3.14-6.6,1.89-7.53,1.16-9.95-6.49-.37-1.17-2.61-2.8-3.49-2.54-1.92.56-3.53,2.2-5.27,3.4l3.28,2.77Z" transform="translate(-598.78 -448.37)"/><path class="cls-29" d="M888.08,550.94c3.33,1.16,4.65,4.52,2.79,7.17-.92,1.32-1.89,2.59-3.07,4.17,5.37,3,3.9,6,.14,8.85-4-.41-8-1.4-11.86-1.11-10.7.79-20.41-3.2-29.7-7-7.88-3.23-14.78-3.63-22.36-.86-4,.63-7.22,4-11.61,3.11,0,0-.28,1.16-.43,1.78l-7.62,2.25a21.34,21.34,0,0,0-15.27,5.58l-15.11,5c0-1.31,0-2.62,0-3.93h0l3-2.11,1-5,11.36-4c3.39-.64,6.93-.88,10.11-2.07,2.22-.83,6.74.24,5.69-4.75l1.08-.08,2-.87L824,553l4.71-2.23L823,546c.66-1,1.33-2,2-3.07l-.08.06,2-1,4.14-2,19.74-6.24,5.13,1.42c.19.77.15,2,.61,2.25,5.11,2.38,10.3,4.59,15.47,6.85.76.69,2,2.12,2.22,2,3.6-2.33,6.37.84,7.42,2.54C883.51,551.8,885.69,551,888.08,550.94Z" transform="translate(-598.78 -448.37)"/><path class="cls-30" d="M808.13,557.06l-2,.87a15.15,15.15,0,0,0-2.84-2.87,18,18,0,0,0-4.08-1.27q.45-6.35.91-12.69h-.06c.72-1,1.43-2,2.15-3.05q3.45-7,6.92-13.93,2-3.76,4-7.53c1-4.42,2.6-8.84,2.65-13.27,0-3.34-1.94-6.71-3-10.06-.72-1.25-1.44-2.5-2.17-3.75-.36-.63-.72-1.26-1.09-1.89l-1.36-1.71c-.71-1-1.22-2.22-2.15-2.9-3-2.16-6.07-4.11-9.13-6.14.1-3.94-.45-8.27,5.29-8.84l7.18-1.37c1.2-.12,2.41-.22,3.62-.38l18.13-2.3c-1,2.74-2,5.5-3.08,8.23-1.73,4.43-3.53,8.85-5.3,13.27-3.09,2.22-1.73,3.82.89,4.83,4.42,1.7,9,3,13.4,4.76,3.5,1.42,6.83,3.27,10.24,4.93-1.14,1.13-2.29,2.25-3.42,3.38L821,518l0,2.28,23.9,13c-1.25.59-2.51,1.17-3.76,1.77L831,539.92l-4.14,2-2,1,.08-.06-5,.83h-6.6c0,.53,0,1.07,0,1.6l3.51.74.91,1L821,551c-2.82,1-5.7,1.93-8.44,3.15A31.17,31.17,0,0,0,808.13,557.06Z" transform="translate(-598.78 -448.37)"/><path class="cls-31" d="M747.1,519.1c.17-.43.33-.87.5-1.29l1.53-1.81,5.79,1c.76.49,1.51,1,2.15,1.42-1.35,2.24-3,4.09-3.58,6.22s.11,4.33.24,6.51l5.74-1.6c.88-1,1.75-2,2.63-3l-.77-.61-2.55,2.8h-4.45l5.44-12.61,2.44-1.43c3.12-.07,4.82-1.76,5.28-4.74.71-4.62,2.5-9.48-2.58-13l0,.05-4.32-5.32c0-.26.1-.51.16-.76l18.39-2.07a26,26,0,0,1,17,13l3.79,6.12,0-.05,1.07,1.06-.07-.07c.33.43.66.86,1,1.28L797.05,526l-2.16,0a36.5,36.5,0,0,0,1.8-3.45c2.8-6.91-1.63-15.47-8.53-16.57l-7.89-1L776,509.05c-1.39,1.07-3.87,2-4,3.24-.42,4.1,0,8.29.09,12.45,1.7,3.49-.36,10.42,7.58,8.32.22,0,.8,1.26,1.21,1.93.29,0,.58,0,.88-.1l7.51-.73c0,2.47-.68,5.31.29,7.34,2.31,4.8.75,8.22-1.6,12.47-1,1.78-5.62,4.79-1.4,8.14-.48.44-.88,1.1-1.44,1.3-9.33,3.29-18.66,6.6-28.06,9.67-1.29.42-3-.4-4.51-.65a11,11,0,0,0-1-2.69c-1.59-2.31-3.33-4.51-5-6.75,2.27-.41,4.72-.62,4.27-4,1.63.7,3.22,1.52,4.9,2.06,4.81,1.54,9.53,5.16,14.71.92a.37.37,0,0,0,.49-.31c5-.88,8.44-4,11-8.13,2.46-4,.92-10.26-3.21-11.06-3.85-.74-7.93-.28-11.91-.34-6.55-.12-11.24-3.45-14.86-8.62l-9.16-8.39,3.4-2.19C747.57,521.89,750.84,521.25,747.1,519.1Z" transform="translate(-598.78 -448.37)"/><path class="cls-32" d="M852,501.34l-3-1.4c-.14-6.12,4.46-9.08,8.73-11.5,3.14-1.79,6.6-.19,9,2.93,1,1.25,2.62,2,4,3,.06,3.71,2.52,4.42,5.34,3.68,1.14-.3,2.88-2.5,2.62-3.15-.74-1.88-.73-5.4-4.55-4q0-3.39-.05-6.8c2.13,1.44,4.38,2.73,6.37,4.34,3.48,2.82,5.92,2.08,7.88-3.34l3.7,5,1,2.43c-2.49,1.53-5.07,2.94-7.46,4.62-2,1.42-.85,5.47,2.45,6.65,3.93,1.4,6.4,3.1,7.26,7.66.34,1.74,4.12,3.16,6.57,4.06,4.36,1.6,4.59,3.43,1.17,6.32-.93.78-1.48,2-2.53,3.5,3.83,1.12,9.3,1.09,7.88,6.47-.62,2.35-4.62,3.82-7.9,6.3.6.37,1.92,1.32,3.35,2.06s2.89,1.24,4.35,1.85c-3.57-.16-4.31,1.55-2.06,4,1.07,1.15,3.3,1.23,5,1.79l4.06,1.16c-.81,4.28-1.74,8.54-2.38,12.84a5.65,5.65,0,0,0,.78,3.85c3.74,5,3.59,5.91-2,8.22-.44.18-1.08.48-1.14.82-1.11,5.82-5.16,3.42-8.82,3.38.29-5.45.55-10.59.82-15.73l1.78-.09,1.08,7.44,1.88.19c.41-2.19.83-4.38,1.41-7.5,3.24-.79,2.17-4.54-.25-5.8-3.84-2-4.72-4-2.43-8.09l-8-.68c.44-2.62.83-4.95,1.32-7.92L893.89,542c.48-5,.92-9.38,1.43-14.61,4.25-3,3.66-5-4-9.8.86-6-.29-9-6.83-11.79-4.51-1.91-9.79-2-14.88-2.93-1.13-5.24-5.43-9.24-10.22-8.81C855.07,494.45,851.8,496.24,852,501.34Z" transform="translate(-598.78 -448.37)"/><path class="cls-33" d="M777.89,568.83l-1,5L774,576h0c-3.36,1.34-6.69,2.79-10.09,4-13.66,4.91-27.33,9.81-41,14.6-18.88,6.61-37.85,13-56.67,19.78-4.95,1.78-9.52,4.66-14.26,7l-3.81-3.47,0,0-1.18-2.69c.37-7.09,6.62-7.1,11.07-8.54,7.37-2.38,15.07-3.72,22.56-5.74,3.81-1,7.45-2.62,11.2-3.86,2.42-.79,4.9-1.39,7.36-2.08,5.63-1.38,11.33-2.57,16.88-4.26,1.79-.54,3.2-2.39,4.78-3.64l2.59-.24c4.94-1.07,9.93-2,14.78-3.32,1.18-.33,1.9-2.28,2.82-3.49l2.57.14L762.43,574Z" transform="translate(-598.78 -448.37)"/><path class="cls-34" d="M638,621.81c-.26.84-.34,2.28-.82,2.43-6,1.91-12.12,3.69-18.23,5.38-8.1,2.23-16.78-4.7-16.88-13.48a9.59,9.59,0,0,1,1-3c.65,1,1.3,1.9,1.94,2.86l5.4,6.24c.76-.93,2.09-1.87,2-2.48a71.88,71.88,0,0,0-3.41-12c-1.92-4.53-4.66-8.71-6.81-13.16-.55-1.13-.22-2.69-.34-4.95,2.89,1.74,6.44-.21,7,4.63.25,2.08,3.3,3.83,5.49,6.18,1-8-4.29-14.58-2.24-21.69l2.08-.6L618,588c.64,2.82,1.66,5.62,1.83,8.47.31,4.94.09,9.92.09,14.88l1.06,0V588c.27-1.83.55-3.65.82-5.47l1-.14c.39.89.79,1.78,1.19,2.67q1,9.61,2.13,19.22a6.67,6.67,0,0,0,1.5.32c.17-2.93.33-5.78.5-8.64l2.88-2a22.63,22.63,0,0,1-1.77,15.18c-.58,1.21.47,3.2.76,4.84l0,0,.73.87-.17,2.57,6.46.6C637.34,619.27,637.66,620.54,638,621.81Zm-23.09-19.94-.39.54.57-.36.4-.55Z" transform="translate(-598.78 -448.37)"/><path class="cls-6" d="M937.06,526.63c0,.47,0,.93,0,1.4l-3.73,2.6c2.54,3,2.54,3,8.71,1.34.37.49.73,1,1.1,1.49q-1.82,2.84-3.61,5.69l.33,1.32,10-2.68,2.71,8.15h4.38c.23.58.29,1.39.71,1.7,5.09,3.68,5,8.75-.31,12.4l-6.9-7.37-5,3.43c-1.13-2.08-2.25-4.17-3.61-6.71-2.53-.57-7.44-.32-8.46-2.19-2-3.73-4.9-3-7.83-3.49.13-1.32.24-2.51.36-3.73-12.08-.09-10.83,1.27-10.89-6.64l1.46-1.44,9.27-2.78c-.87-4.22-1.93-8.59-2.67-13-.82-5,1.63-8.51,6.7-10.25a73.08,73.08,0,0,1,6.32,5.84c1.33,1.55,2,3.63,3,5.47.37.91.75,1.83,1.12,2.75C936.24,520.8,937.17,524,937.06,526.63Z" transform="translate(-598.78 -448.37)"/><path class="cls-35" d="M742.88,525.15l9.16,8.39c-2.82,6.85-2.74,7.65,2.55,10.29,1.43.72,3.51.15,5.29.17l3-.13,1.52.87-.3.11,1.74.41,1-2.46a2.79,2.79,0,0,0,.07-.64c4,.06,8.06-.4,11.91.34,4.13.8,5.67,7.08,3.21,11.06-2.6,4.18-6,7.25-11,8.13-3.23-6.56-6.69-12.81-16.1-12.31l3,7.66L748.75,552,745.66,554l-6.76-7.35-.45-2.54L737,530.93l-.06,0,2-2.07,0,.06,1-1.27.91-1.84a6,6,0,0,0,.26-.92Z" transform="translate(-598.78 -448.37)"/><path class="cls-36" d="M802.12,468c-5.74.57-5.19,4.9-5.29,8.84l-7-.76-6.71,0c-4.28,1.37-8.6,2.62-12.82,4.16-2.57.93-5,2.3-7.46,3.47-.09-3.63-2.17-7.25,0-11,.25-.42-.75-1.58-1.17-2.39.76-2.42,1.53-4.83,2.29-7.25,5.3,1.86,1.24-3.33,3.07-4.08l3,1.05a1.41,1.41,0,0,1,.18.45,7.9,7.9,0,0,1-.12.83l4,10.55,1.63.18,4.08-9,16.1-13c3.14-2.42,3.78-.41,3.87,2.26.08,2.5,0,5,0,7.5.82,2.61,1.65,5.22,2.47,7.83Z" transform="translate(-598.78 -448.37)"/><path class="cls-37" d="M651.91,621.37c4.74-2.37,9.31-5.25,14.26-7,18.82-6.78,37.79-13.17,56.67-19.78,13.7-4.79,27.37-9.69,41-14.6,3.4-1.22,6.73-2.67,10.09-4,0,1.31,0,2.62,0,3.93-.69,1-1.22,2.66-2.08,2.85-11.57,2.57-22.19,7.72-33.21,11.82s-22.3,6.82-33.32,10.63c-12,4.17-23.82,9.06-35.84,13.28-5.57,1.95-11.44,3.06-17.18,4.55C652.2,622.46,652.06,621.91,651.91,621.37Z" transform="translate(-598.78 -448.37)"/><path class="cls-33" d="M824,562.14c7.58-2.77,14.48-2.37,22.36.86,9.29,3.82,19,7.81,29.7,7,3.91-.29,7.91.7,11.86,1.11.08,1.36.15,2.72.23,4.08.27,3.42-2.57,2.72-4.42,3.34a.45.45,0,0,0-.54-.11q-15.27-1.2-30.54-2.42c-4.12-.34-8.23-.77-12.35-1.15L839,575c0-1,0-1.93,0-2.9l6,.77L824,563C824,562.73,824,562.44,824,562.14Z" transform="translate(-598.78 -448.37)"/><path class="cls-38" d="M770,460.14l-3-1.06c-6.35.31-12.71.42-19,1A66.47,66.47,0,0,0,735,462.5c-1.6.49-2.61,2.94-3.89,4.49l0,0c-5.46.6-5-3.87-6-7,1.17-3.73,1.94-8,7.61-5a2,2,0,0,0,1.85-.31c3.66-4.21,9-1.65,13.45-3.21s10-.37,15-.39c1.56.37,3.12,1.08,4.66,1,7.53-.24,15-.69,22.58-1.07C784.91,457.13,778.86,461.67,770,460.14Z" transform="translate(-598.78 -448.37)"/><path class="cls-39" d="M666.93,458.29a50.08,50.08,0,0,1,28.25-5c2.84.29,5.86-1.33,8.75-1.17,1.16.07,3.9-4,4.09.85-.31.57-.51,1.53-.95,1.65-5.07,1.4-5.15,3.83-1.86,7.39.32.35-.74,2-1.16,3l-2.37-1.94L699,461.16c-2.54-2.51-4.24-.54-6,1.11-.67.36-1.94.79-1.91,1.07.22,1.91.11,4.73,1.27,5.48,1.94,1.27,5.15,2.18,7,1.38,1.3-.56,1.29-4.24,1.87-6.52l1.75,1.4c-.41,2.38-.83,4.77-1.24,7.14l-5.18,1.95c-3.36-.16-6.81-.86-10.08-.39-8.46,1.22-16.85,3-25.27,4.48-.74-.75-1.48-1.51-2.23-2.26-.33-.94-.67-1.88-1-2.83,4.15,2,8,.35,11-4.77S671.68,461.5,666.93,458.29Zm9.61,11.86c5,1,7.46-1.4,8.13-6.15,1.09-2.42,2.18-4.84,3.39-7.51-11-.61-13.29,1.53-16.75,16Z" transform="translate(-598.78 -448.37)"/><path class="cls-36" d="M796.19,501.93a26,26,0,0,0-17-13l-18.59.33.2,1.74c-.06.25-.11.5-.15.76l-10.11,1.12q-1.83-6.67-3.65-13.33l1.14-.83,11.51,8.53.62-1.21c1.79-.15,3.88.25,5.33-.54,10.91-6,27.35-.88,33.94,9,1.49,3.78,3.12,7.5,4.4,11.35.75,2.27-.63,3.26-2.88,3.13l.07.07L799.94,508l0,.05Z" transform="translate(-598.78 -448.37)"/><path class="cls-32" d="M914.93,533.34c.06,7.91-1.19,6.55,10.89,6.64-.12,1.22-.23,2.41-.36,3.73,2.93.53,5.8-.24,7.83,3.49,1,1.87,5.93,1.62,8.46,2.19,1.36,2.54,2.48,4.63,3.61,6.71a26.14,26.14,0,0,0-4.78,2c-1.87,1.25-3.71,2.89-.6,4.92l-5.17,6.73-4-1.72c2.42-5.19.54-10-8.68-9.68-.26-1.95-.53-4-.79-6l4.48-2.59c-1.37-1.63-2.49-3.63-4.19-4.78-2.22-1.53-5.32-1.91-7.27-3.64C911.58,538.91,910.83,535.76,914.93,533.34Z" transform="translate(-598.78 -448.37)"/><path class="cls-40" d="M762.21,514.73l-2.44,1.43-4.85.83-5.79-1-1-.84c-1-3.11-2.79-6.25-2.64-9.3.14-2.79,2.41-5.47,3.73-8.2.29-.58.57-1.16.85-1.74l-.1.1c5.17-1.91,10.26-2.72,15,1.06l0-.05c1.56,4.14,3.38,8.29.86,12.66C764.75,511.46,763.41,513.05,762.21,514.73Z" transform="translate(-598.78 -448.37)"/><path class="cls-41" d="M696,477c-2,1.47-3.87,3.51-6.14,4.3a107.24,107.24,0,0,1-14.69,3.87c-3.94.77-8,.74-12,1.32a121.24,121.24,0,0,0-14.71,2.69c-3.93,1.08-6.34-.26-8.38-3.27,6.21-1.58,12.36-3.4,18.63-4.67,6.84-1.39,14.11-1.32,20.56-3.65C685.06,475.49,690.33,476,696,477Z" transform="translate(-598.78 -448.37)"/><path class="cls-42" d="M642.26,465.87l3-6.59c-.49-1.2-1.43-3.47-2.24-5.46l3.33-5.32c8.4-1.2,12.55,6.39,18.92,9.66,1.25,6.36-2.15,10.69-9.29,11.82h-.09c-2.35-2.58-4.71-5.17-6.83-7.48Z" transform="translate(-598.78 -448.37)"/><path class="cls-43" d="M704.05,465c.42-1,1.48-2.67,1.16-3-3.29-3.56-3.21-6,1.86-7.39.44-.12.64-1.08.95-1.65a7.39,7.39,0,0,0,1.49,0c8.88-1.88,10.09-.94,10.41,8.12l-5.08,1L717,466l-3.25,4.85,2.74-.37.77.79-2.17,2.58c-4.28,1.33-8.52,2.75-12.85,3.87-.63.17-1.63-1.09-2.46-1.69l1.94-3.82c.41-2.38.83-4.77,1.24-7.15Z" transform="translate(-598.78 -448.37)"/><path class="cls-44" d="M642.26,465.87l6.85-3.38c2.12,2.31,4.48,4.9,6.83,7.48.35.68.7,1.35,1,2l1,1.17c.33.95.67,1.89,1,2.83h0l-1.85,3.55L637.94,484c-.29-.58-1-1.26-.81-1.71C638.77,476.81,640.53,471.34,642.26,465.87Z" transform="translate(-598.78 -448.37)"/><path class="cls-6" d="M892,490.09l-3.7-5c-2,5.42-4.4,6.16-7.88,3.34-2-1.61-4.24-2.9-6.37-4.34-.39-1-1.29-2.77-1.1-2.9,1.24-.81,2.87-2,4.08-1.7,2.57.57,5,2.81,7.4,2.73s4.53-2.31,6.87-3.41c1.48-.7,3.63-2,4.61-1.4,3.1,1.74,5.79,4.19,8.59,6.44.12.09-.33.87-.51,1.33C901.67,492.78,898.61,494,892,490.09Z" transform="translate(-598.78 -448.37)"/><path class="cls-6" d="M858.12,470a25,25,0,0,1-3-1.89c-1.55-1.32-2.75-3.39-4.5-4.05-2.58-1-4.22-2.23-3.51-5,.77-3,.29-7.05,5.11-7.23,7.63.07,8.48.66,8.33,5.81,2.76,1.1,7.78,1,5.76,5.56C865.05,466.15,861,467.81,858.12,470Z" transform="translate(-598.78 -448.37)"/><path class="cls-32" d="M929.69,505.84c-5.07,1.74-7.52,5.29-6.7,10.25.74,4.44,1.8,8.81,2.67,13l-9.27,2.78c3.21-3.19,2.19-6.95.41-10-2.51-4.26-2-7.9.89-11.3C920.77,507.05,924.59,504.65,929.69,505.84Z" transform="translate(-598.78 -448.37)"/><path class="cls-45" d="M858.12,470c2.83-2.22,6.93-3.88,8.22-6.78,2-4.55-3-4.46-5.76-5.56.15-5.15-.7-5.74-8.33-5.81,4-2.72,9.38-2.26,12.35.84a15,15,0,0,0,3.38,2,6.13,6.13,0,0,1,1.39.3c0,5.34,5.07,4.08,7.7,6l0,.05-.8,1c-4.85,2.82-9.64,5.73-14.59,8.36C860.8,470.91,859.31,470.2,858.12,470Z" transform="translate(-598.78 -448.37)"/><path class="cls-38" d="M824,562.14c0,.3,0,.59,0,.89.53.82.87,2,1.63,2.42,4.4,2.33,8.9,4.47,13.37,6.67,0,1,0,1.93,0,2.9-4.81-.39-9.37-1.07-13.81-3.58-4-2.24-8.79-3-13.23-4.41.15-.62.4-1.78.43-1.78C816.8,566.09,820.06,562.77,824,562.14Z" transform="translate(-598.78 -448.37)"/><path class="cls-46" d="M637.94,484l19.21-4.47,3.92-1.34.16.05c8.42-1.53,16.81-3.26,25.27-4.48,3.27-.47,6.72.23,10.07.39l-.51,2.84-.11,0c-5.62-1-10.89-1.54-16.76.59-6.45,2.33-13.72,2.26-20.56,3.65-6.27,1.27-12.42,3.09-18.63,4.67Z" transform="translate(-598.78 -448.37)"/><path class="cls-47" d="M840.32,574.87c4.12.38,8.23.81,12.35,1.15q15.27,1.25,30.54,2.42L881.5,581l-6.55.11L871,581l-7.14-.16-19.57-4.07-3.19-1.12Z" transform="translate(-598.78 -448.37)"/><path class="cls-48" d="M799.42,494.51c-6.59-9.89-23-15-33.94-9-1.45.79-3.54.39-5.33.54l.9-2.23,1.81,0c2.48-1.17,4.89-2.54,7.46-3.47,4.22-1.54,8.54-2.79,12.82-4.16L782,479c-.24,1-3.26,1.95.11,3.07,4,1.32,7.79,3,11.68,4.57q3.19,3.59,6.4,7.18Z" transform="translate(-598.78 -448.37)"/><path class="cls-37" d="M731.07,467c1.28-1.55,2.29-4,3.89-4.49A66.47,66.47,0,0,1,748,460.08c6.32-.58,12.68-.69,19-1-1.83.76,2.23,5.95-3.07,4.09l-5.07-.16c-7.38-2.7-14.19-.53-20.9,2.46Z" transform="translate(-598.78 -448.37)"/><path class="cls-49" d="M822.67,485.47c1.77-4.42,3.57-8.84,5.3-13.27,1.07-2.73,2.06-5.49,3.08-8.23L831,464l2.25-2.9c1.85-.52,4.25-.54,5.34-1.75.66-.73-.71-3.3-1.17-5,3.93,3.12,4.83,6.76,1.47,8.69-7.28,4.19-8.8,12.06-12.91,18.27C825,482.77,823.77,484.08,822.67,485.47Z" transform="translate(-598.78 -448.37)"/><path class="cls-45" d="M957.27,560c5.29-3.65,5.4-8.72.31-12.4-.42-.31-.48-1.12-.71-1.7,3-2,7.8-.45,9.12,3.95a12.19,12.19,0,0,1-1.31,9C964,560,960.47,564.53,957.27,560Z" transform="translate(-598.78 -448.37)"/><path class="cls-50" d="M658,473.17,657,472c-.31-.67-.63-1.35-1-2,7.14-1.13,10.54-5.46,9.29-11.82l1.61.13c4.75,3.21,5.13,5,2.12,10.11S662.15,475.18,658,473.17Z" transform="translate(-598.78 -448.37)"/><path class="cls-32" d="M887.24,597.72l-1.86-1.55-3.28-2.77c1.74-1.2,3.35-2.84,5.27-3.4.88-.26,3.12,1.37,3.49,2.54,2.42,7.65,3.35,8.38,9.95,6.49-.7,3-4.95,4-8.3,1.93Z" transform="translate(-598.78 -448.37)"/><path class="cls-48" d="M777.89,568.83,762.43,574l-7.27.9-2.55-2.68,0,.18c1.51.25,3.22,1.07,4.51.65,9.4-3.07,18.73-6.38,28.06-9.67.56-.2,1-.86,1.44-1.31l1.61-1.38,1,2.35v1.76Z" transform="translate(-598.78 -448.37)"/><path class="cls-42" d="M738.9,546.67l6.76,7.35,5.22,5c.45,3.35-2,3.56-4.27,4-1.46.7-1.41-5.46-3.74-.82-.07-5.86-4.58-10-6-15.3l.12-.33c0-.57.09-1.13.14-1.69Z" transform="translate(-598.78 -448.37)"/><path class="cls-6" d="M907.21,511.82c-5.93.56-5.62-5.32-8.18-8.19-.46-.52.74-2.52,1.18-3.84C907,500.14,910,505.36,907.21,511.82Z" transform="translate(-598.78 -448.37)"/><path class="cls-51" d="M716.53,470.5l-2.74.37L717,466c1.91.22,4,.92,5.68.45.73-.2.78-2.87,1.13-4.41l1.16-2.15c1,3.18.58,7.65,6,7,0,1-.09,2-.14,3-1.3,0-2.89.49-3.86-.08-5-3-7.31-.05-9.2,4h-2.72l2.17-2.58c.1-.37.21-.74.31-1.11Z" transform="translate(-598.78 -448.37)"/><path class="cls-49" d="M831.05,464l-18.13,2.3c-1.21.16-2.42.26-3.62.38,2.53-1.35,4.92-3.17,7.61-3.92,3.6-1,7.42-1.19,11.15-1.73l3.28.15c-.12,1-.25,1.92-.37,2.88Z" transform="translate(-598.78 -448.37)"/><path class="cls-32" d="M909.12,595.89c.7-2.25,1.41-4.5,2.22-7.11l-4.18-1.49,7.86-7.11c-.35,2.08-.66,4-1,5.85C915.7,593.33,915.56,593.6,909.12,595.89Z" transform="translate(-598.78 -448.37)"/><path class="cls-6" d="M831.34,461.15l-3.28-.15c.19-5.88,2-7.19,9.33-6.67.46,1.75,1.83,4.32,1.17,5.05-1.09,1.21-3.49,1.23-5.35,1.75Z" transform="translate(-598.78 -448.37)"/><path class="cls-44" d="M717.85,473.86c1.89-4,4.15-6.94,9.2-4,1,.57,2.56.08,3.86.08,1.56,3.34-.25,5.41-4.52,5C723.53,474.72,720.69,474.25,717.85,473.86Z" transform="translate(-598.78 -448.37)"/><path class="cls-45" d="M720.79,587.11c-1.58,1.25-3,3.1-4.78,3.64-5.55,1.69-11.25,2.88-16.88,4.26Z" transform="translate(-598.78 -448.37)"/><path class="cls-45" d="M892,490.09c6.6,3.94,9.66,2.69,12-4.93.39,2.39,1.41,4.93.89,7.1-.28,1.16-3.25,2.37-5,2.32-2.31-.06-4.59-1.31-6.89-2.06Z" transform="translate(-598.78 -448.37)"/><path class="cls-51" d="M770,460.14c8.82,1.53,14.87-3,20.16-9.21a.36.36,0,0,0,.12-.5l5.63-.23-16.1,13c-.43-.76-.86-2.16-1.3-2.17-2.82,0-5.63.25-8.45.43a7.9,7.9,0,0,0,.12-.83A1.41,1.41,0,0,0,770,460.14Z" transform="translate(-598.78 -448.37)"/><path class="cls-49" d="M628.17,596c-.17,2.86-.33,5.71-.5,8.64a6.67,6.67,0,0,1-1.5-.32q-1.11-9.6-2.13-19.22Q626.1,590.56,628.17,596Z" transform="translate(-598.78 -448.37)"/><path class="cls-36" d="M638,621.81c-.31-1.27-.63-2.54-1-3.81l0,0,1-.58,1.09-1.49,9,2,0,0a31.85,31.85,0,0,0-3.15,2.86c-.33.38-.1,1.25-.12,1.9Z" transform="translate(-598.78 -448.37)"/><path class="cls-45" d="M907.21,511.82c2.83-6.46-.2-11.68-7-12,6.26-2.14,12.26,2.43,11.63,9C911.59,511.43,910.09,512.83,907.21,511.82Z" transform="translate(-598.78 -448.37)"/><path class="cls-32" d="M868.56,583.18l2.34,7.74c-7.29-.1-9.13-2.57-6.62-8.84l3.8.79A2.19,2.19,0,0,1,868.56,583.18Z" transform="translate(-598.78 -448.37)"/><path class="cls-6" d="M877.07,461c-2.63-1.88-7.7-.62-7.7-6a6.13,6.13,0,0,0-1.39-.3c2.78-.09,5.71-.7,8.25,0C877.05,455,876.82,458.85,877.07,461Z" transform="translate(-598.78 -448.37)"/><path class="cls-6" d="M874.11,490.87c3.82-1.41,3.81,2.11,4.55,4,.26.65-1.48,2.85-2.62,3.15-2.82.74-5.28,0-5.34-3.68Z" transform="translate(-598.78 -448.37)"/><path class="cls-52" d="M742.87,562.17c2.33-4.64,2.28,1.52,3.74.82,1.67,2.24,3.41,4.44,5,6.75a11,11,0,0,1,1,2.69l0-.18C746.6,571.57,744.63,567,742.87,562.17Z" transform="translate(-598.78 -448.37)"/><path class="cls-53" d="M790.32,450.43a.36.36,0,0,1-.12.5c-7.53.38-15.05.83-22.58,1.07-1.54.05-3.1-.66-4.66-1a70.79,70.79,0,0,1,8-.93C777.43,450,783.88,450.29,790.32,450.43Z" transform="translate(-598.78 -448.37)"/><path class="cls-52" d="M738,465.47c6.71-3,13.52-5.16,20.9-2.46Z" transform="translate(-598.78 -448.37)"/><path class="cls-45" d="M923.06,584.12l-.87-.28c1-2.76,1.88-5.35,2.95-7.85.35-.82,1.25-1.4,1.9-2.09C930.21,579.22,928.86,582.69,923.06,584.12Z" transform="translate(-598.78 -448.37)"/><path class="cls-45" d="M755.16,574.93l7.27-.9-18.88,6.17Z" transform="translate(-598.78 -448.37)"/><path class="cls-52" d="M741,580.06c-.92,1.21-1.64,3.16-2.82,3.49-4.85,1.37-9.84,2.25-14.78,3.32Z" transform="translate(-598.78 -448.37)"/><path class="cls-54" d="M723.85,462.06c-.35,1.54-.4,4.21-1.13,4.41-1.72.47-3.77-.23-5.68-.45l-2.2-3.95,5.08-1Z" transform="translate(-598.78 -448.37)"/><path class="cls-50" d="M644.83,622.66c0-.65-.21-1.52.12-1.9a31.85,31.85,0,0,1,3.15-2.86l3.81,3.47c.15.54.29,1.09.44,1.64l-1.15,2.68Z" transform="translate(-598.78 -448.37)"/><path class="cls-52" d="M630,614c-.29-1.64-1.34-3.63-.76-4.84A22.63,22.63,0,0,0,631.05,594c.65.84,1.81,1.65,1.86,2.52C633.22,602.52,633.21,608.54,630,614Z" transform="translate(-598.78 -448.37)"/><path class="cls-6" d="M934.81,569.79l5.17-6.73,3.35,3.09c-.15.56-.31,1.13-.47,1.69Z" transform="translate(-598.78 -448.37)"/><path class="cls-52" d="M789.09,574.86a21.34,21.34,0,0,1,15.27-5.58Z" transform="translate(-598.78 -448.37)"/><path class="cls-47" d="M762.86,483.77l-1.81,0c-3.15-4.63-1.88-9.05.65-13.4.42.82,1.42,2,1.17,2.4C760.69,476.52,762.77,480.14,762.86,483.77Z" transform="translate(-598.78 -448.37)"/><path class="cls-45" d="M949.78,537.79l-10,2.68-.33-1.32q1.8-2.85,3.61-5.69C944.22,536.61,947.13,537,949.78,537.79Z" transform="translate(-598.78 -448.37)"/><path class="cls-6" d="M911.11,547.76c-1.7-.56-3.93-.64-5-1.79-2.25-2.41-1.51-4.12,2.06-4C912.66,542.13,910.18,545.82,911.11,547.76Z" transform="translate(-598.78 -448.37)"/><path class="cls-45" d="M937.06,526.63c.11-2.67-.82-5.83,3.12-6.73-.37-.92-.75-1.84-1.12-2.75,1.32.89,3.36,1.55,3.72,2.73.29,1-1.29,2.67-2.29,3.82A27.72,27.72,0,0,1,937.06,526.63Z" transform="translate(-598.78 -448.37)"/><path class="cls-50" d="M648.12,617.92l-9-2,3.49-4.08,2.11,1.75,2.22,1.59C647.33,616.12,647.72,617,648.12,617.92Z" transform="translate(-598.78 -448.37)"/><path class="cls-48" d="M765,497.08c-4.76-3.78-9.85-3-15-1.06l.6-3.14,10.11-1.12Z" transform="translate(-598.78 -448.37)"/><path class="cls-42" d="M942,532c-6.17,1.63-6.17,1.63-8.71-1.34L937,528c1,.89,1.93,1.82,3,2.66A21.06,21.06,0,0,0,942,532Z" transform="translate(-598.78 -448.37)"/><path class="cls-48" d="M621,588v23.27l-1.06,0c0-5,.22-9.94-.09-14.88-.17-2.85-1.19-5.65-1.83-8.47Z" transform="translate(-598.78 -448.37)"/><path class="cls-42" d="M740.86,525.85c-.31.61-.61,1.23-.91,1.84l-1,1.27,0-.06-2,2.07.06,0-1.41,3.21c-.19-1-.37-2-.55-3l4.05-6Z" transform="translate(-598.78 -448.37)"/><path class="cls-52" d="M599,610.05c.31-.72.62-1.44.92-2.16a12.67,12.67,0,0,1,2.82,2c.28.33-.23,1.57-.68,2.18a10.38,10.38,0,0,1-2,1.72Z" transform="translate(-598.78 -448.37)"/><path class="cls-39" d="M802.25,467.79c-.82-2.61-1.65-5.22-2.47-7.83C802.08,462.1,804,464.37,802.25,467.79Z" transform="translate(-598.78 -448.37)"/><path class="cls-47" d="M735,531.1c.18,1,.36,2,.55,3l.12,4.84-.83,3-.68-.06Z" transform="translate(-598.78 -448.37)"/><path class="cls-47" d="M696.06,477l.51-2.84,5.19-1.95-1.94,3.83Z" transform="translate(-598.78 -448.37)"/><path class="cls-50" d="M868.08,582.87l-3.8-.79c-.13-.4-.27-.8-.4-1.2L871,581v0l-2.95.93A4.22,4.22,0,0,0,868.08,582.87Z" transform="translate(-598.78 -448.37)"/><path class="cls-53" d="M734.18,541.88l.68.06,1.34-.21.7,1.47.06,3.34-.12.33Z" transform="translate(-598.78 -448.37)"/><path class="cls-47" d="M747.1,519.1c3.74,2.15.47,2.79-.82,3.86C746.55,521.67,746.83,520.39,747.1,519.1Z" transform="translate(-598.78 -448.37)"/><path class="cls-33" d="M644.72,613.63l-2.11-1.75,1.2-1.08Z" transform="translate(-598.78 -448.37)"/><path class="cls-34" d="M600.74,589.1c-.5.23-.9.54-1,.45a5.61,5.61,0,0,1-.93-1c.3-.1.65-.36.88-.27A4.67,4.67,0,0,1,600.74,589.1Z" transform="translate(-598.78 -448.37)"/><path class="cls-53" d="M599,610.05l1,3.74Z" transform="translate(-598.78 -448.37)"/><path class="cls-49" d="M605,616c-.64-1-1.29-1.91-1.94-2.86C603.72,614.1,604.37,615.05,605,616Z" transform="translate(-598.78 -448.37)"/><path class="cls-33" d="M841.12,575.68l3.19,1.12Z" transform="translate(-598.78 -448.37)"/><path class="cls-47" d="M748.09,515.16l1,.84-1.53,1.81C747.76,516.92,747.92,516,748.09,515.16Z" transform="translate(-598.78 -448.37)"/><path class="cls-32" d="M740.86,525.85l-1.79-.78,2-.14A6,6,0,0,1,740.86,525.85Z" transform="translate(-598.78 -448.37)"/><path class="cls-48" d="M750,495.92c-.28.58-.56,1.16-.85,1.74C749.47,497.08,749.75,496.5,750,495.92Z" transform="translate(-598.78 -448.37)"/><path class="cls-6" d="M876.25,462.09l.8-1Z" transform="translate(-598.78 -448.37)"/><path class="cls-52" d="M630.73,614.83,630,614Z" transform="translate(-598.78 -448.37)"/><path class="cls-34" d="M638,617.45l-1,.58Z" transform="translate(-598.78 -448.37)"/><path class="cls-37" d="M888.08,550.94c-2.39,0-4.57.86-6.46-2.23-1-1.7-3.82-4.87-7.42-2.54-.22.15-1.46-1.28-2.22-2l1-2.17,1.19-.07,6.22,0,3.51,1.18Z" transform="translate(-598.78 -448.37)"/><path class="cls-42" d="M877.16,538.64c-.62-2.37-.06-3.47,2.73-3.79,2.07-.24,4-1.77,6-2.72,3.29,4.13,2.64,7.45-1.74,8.92Z" transform="translate(-598.78 -448.37)"/><path class="cls-42" d="M879,528c-6.77-.58-2-6.67-4.44-9.14L866.05,516a29.33,29.33,0,0,0,4,0c5.17-.72,7.36,1.32,7,6.64C877,524.37,878.28,526.2,879,528Z" transform="translate(-598.78 -448.37)"/><path class="cls-47" d="M883.75,578.55c1.85-.62,4.69.08,4.42-3.34.87,1.29,2.77,3.15,2.43,3.76-1.19,2.12-2.24,5.29-5.93,3.9C884.37,581.44,884.06,580,883.75,578.55Z" transform="translate(-598.78 -448.37)"/><path class="cls-49" d="M883.75,578.55c.31,1.44.62,2.89.92,4.32L881.09,584l-5.56.78a.41.41,0,0,1-.43-.39l-2.51-2.3,2.37-.21,6.54-.91,1.71-2.56A.45.45,0,0,1,883.75,578.55Z" transform="translate(-598.78 -448.37)"/><path class="cls-51" d="M877.16,538.64l7,2.41c-.09.68-.17,1.36-.26,2l-3.51-1.18-6.24-2.26-1.88-.52a1.56,1.56,0,0,1-.64-.68l.49-.54Z" transform="translate(-598.78 -448.37)"/><path class="cls-48" d="M872.59,582.12l2.51,2.3-6.53-1.24a2.53,2.53,0,0,0-.49-.31,4.22,4.22,0,0,1,0-.94h3.33Z" transform="translate(-598.78 -448.37)"/><path class="cls-48" d="M875.53,584.81l5.56-.78Z" transform="translate(-598.78 -448.37)"/><path class="cls-54" d="M789.24,563.07l-1-2.35-1.61,1.38c-4.22-3.34.42-6.35,1.4-8.13,2.35-4.25,3.91-7.67,1.6-12.47-1-2-.25-4.87-.29-7.34,4.68-.72,7.36-3.36,7.76-8.16l4.89-15.73c6.67-1.08,2.64-5.75,3-8.95l-1.18-3.21,0,.07c-.6-5.05.54-10.66-4.55-14.27v-1.79l1.87-.15,4,3Q808,492,810.87,499a34.59,34.59,0,0,1-3.69,19.91c-2.5,4.95-4.11,10.34-6.11,15.53L798,541c-.39,1-1.37,2.24-1.07,2.92,2.5,5.67,1.66,8.14-4,11.24-.79.44-1.26,1.45-1.88,2.2.32.4.63.8,1,1.19l7.23-4.75a18,18,0,0,1,4.08,1.27,15.15,15.15,0,0,1,2.84,2.87l-1.08.08Z" transform="translate(-598.78 -448.37)"/><path class="cls-49" d="M789.24,563.07,805.05,558c1.05,5-3.47,3.92-5.69,4.75-3.18,1.19-6.72,1.43-10.11,2.07C789.25,564.25,789.24,563.66,789.24,563.07Z" transform="translate(-598.78 -448.37)"/><path class="cls-49" d="M872.94,542l-1,2.17c-5.17-2.25-10.36-4.46-15.47-6.84-.46-.21-.42-1.48-.61-2.25l9.34,3,2-.12-.18,0,3.21,2.15Z" transform="translate(-598.78 -448.37)"/><path class="cls-48" d="M831,539.92l10.1-4.92c1.25-.6,2.51-1.18,3.76-1.77l2.78-1.18.3-.08,2.8,1.71Z" transform="translate(-598.78 -448.37)"/><path class="cls-51" d="M850.77,533.68,848,532c.48-.33,1.12-1,1.4-.91,5.32,2.3,10.59,4.69,15.87,7.07l-9.34-3Z" transform="translate(-598.78 -448.37)"/><path class="cls-48" d="M808.13,557.06a31.17,31.17,0,0,1,4.44-3c2.74-1.22,5.62-2.12,8.44-3.15l2.78-1.58L824,553Z" transform="translate(-598.78 -448.37)"/><path class="cls-51" d="M824,553l-.21-3.63-6-2.3-.91-1,1.76-.2,4.37.1,5.71,4.8Z" transform="translate(-598.78 -448.37)"/><path class="cls-44" d="M823,546l-4.37-.1-1.88-1.66,3.25-.48,5-.83C824.33,543.93,823.66,545,823,546Z" transform="translate(-598.78 -448.37)"/><path class="cls-37" d="M774,576l3-2.11Z" transform="translate(-598.78 -448.37)"/><path class="cls-44" d="M824.91,543l2-1Z" transform="translate(-598.78 -448.37)"/><path class="cls-49" d="M847.67,532.05l-2.78,1.18-23.9-13,0-2.28,22.81-14.62c-2.19,2.27-4.22,4.7-6.58,6.75-2.54,2.23-5.39,4.11-8.12,6.12-4.49,3.31-4.49,3.31.33,5.92Z" transform="translate(-598.78 -448.37)"/><path class="cls-48" d="M799.21,553.79,792,558.54c-.32-.39-.63-.79-1-1.19.62-.75,1.09-1.76,1.88-2.2,5.65-3.1,6.49-5.57,4-11.24-.3-.68.68-1.93,1.07-2.92l2.15.11Q799.66,547.45,799.21,553.79Z" transform="translate(-598.78 -448.37)"/><path class="cls-51" d="M800.12,541.1,798,541l3.1-6.52,7.19-11.14.87.78q-3.46,7-6.92,13.93c-.72,1-1.43,2-2.15,3.05Z" transform="translate(-598.78 -448.37)"/><path class="cls-54" d="M812.73,493.25c1.09,3.35,3.07,6.72,3,10.06,0,4.43-1.69,8.85-2.66,13.28l.66-4.85q.06-4.39.1-8.78Z" transform="translate(-598.78 -448.37)"/><path class="cls-48" d="M805.06,484.94l-4-3-3.08-2-8.13-3.83,7,.76c3.06,2,6.17,4,9.13,6.14.93.68,1.44,1.92,2.15,2.9l-.77.78Z" transform="translate(-598.78 -448.37)"/><path class="cls-51" d="M813.76,511.74l-.66,4.85-4,7.52-.87-.78Q811,517.54,813.76,511.74Z" transform="translate(-598.78 -448.37)"/><path class="cls-48" d="M812.73,493.25q.57,4.85,1.13,9.71c-.43-1.73-.87-3.45-1.31-5.18l-2.83-7.54.84-.74Z" transform="translate(-598.78 -448.37)"/><path class="cls-47" d="M817.78,547.07l6,2.3L821,551Z" transform="translate(-598.78 -448.37)"/><path class="cls-48" d="M820,543.73l-3.25.48,1.88,1.66-1.76.2-3.51-.74c0-.53,0-1.07,0-1.6Z" transform="translate(-598.78 -448.37)"/><path class="cls-48" d="M800.06,541.09c.72-1,1.43-2,2.15-3.05C801.49,539.06,800.78,540.08,800.06,541.09Z" transform="translate(-598.78 -448.37)"/><path class="cls-48" d="M809.47,487.61c.37.63.73,1.26,1.09,1.89l-.84.74-1-2Z" transform="translate(-598.78 -448.37)"/><path class="cls-48" d="M808.11,485.9l1.36,1.71-.77.64-1.36-1.57Z" transform="translate(-598.78 -448.37)"/><path class="cls-33" d="M781.78,534.89c-.3.05-.59.08-.88.1-1.25-1.5,3.11-4.34-1.22-5.09-1.85-2.06-4.22-3.85-5.45-6.22-2.64-5.09-1.26-10,1.78-14.63l4.26-4.07,7.89,1c8.78,6.69,10,11.31,5.11,20-2.09,1.38-4,3.47-6.3,4C783.9,530.59,782.34,532,781.78,534.89Z" transform="translate(-598.78 -448.37)"/><path class="cls-55" d="M757.89,557l-3-7.66c9.41-.5,12.87,5.75,16.1,12.31a.38.38,0,0,1-.5.31c-1.79-.38-4.55-.19-5.18-1.26-1.36-2.31-2.46-3.16-5-2.15C759.75,558.79,758.69,557.6,757.89,557Z" transform="translate(-598.78 -448.37)"/><path class="cls-48" d="M757.89,557c.8.56,1.86,1.75,2.38,1.55,2.58-1,3.68-.16,5,2.15.63,1.07,3.39.88,5.18,1.26-5.18,4.24-9.9.62-14.71-.92-1.68-.54-3.27-1.36-4.9-2.06l-5.22-5,3.09-2.06Z" transform="translate(-598.78 -448.37)"/><path class="cls-39" d="M781.78,534.89c.56-2.89,2.12-4.3,5.19-5,2.28-.51,4.21-2.6,6.3-4l1.62,0,2.16,0c-.4,4.8-3.08,7.44-7.76,8.16Z" transform="translate(-598.78 -448.37)"/><path class="cls-48" d="M764.37,544.74l-1.52-.87-3,.13c-1.78,0-3.86.55-5.29-.17-5.29-2.64-5.37-3.44-2.55-10.29,3.62,5.17,8.31,8.5,14.86,8.62a2.79,2.79,0,0,1-.07.64Z" transform="translate(-598.78 -448.37)"/><path class="cls-51" d="M754.92,517l4.85-.83-5.44,12.61h4.45l.69.77-5.74,1.6c-.13-2.18-.77-4.5-.24-6.51s2.23-4,3.58-6.22C756.43,518,755.68,517.48,754.92,517Z" transform="translate(-598.78 -448.37)"/><path class="cls-48" d="M776,509.05c-3,4.58-4.42,9.54-1.78,14.63,1.23,2.37,3.6,4.16,5.45,6.22l-7.57-5.16c-.1-4.16-.51-8.35-.09-12.45C772.14,511.09,774.62,510.12,776,509.05Z" transform="translate(-598.78 -448.37)"/><path class="cls-39" d="M772.11,524.74l7.57,5.16c4.33.75,0,3.59,1.22,5.09-.41-.67-1-2-1.21-1.93C771.75,535.16,773.81,528.23,772.11,524.74Z" transform="translate(-598.78 -448.37)"/><path class="cls-48" d="M794.89,526l-1.62,0c4.85-8.68,3.67-13.3-5.11-20,6.9,1.1,11.33,9.66,8.53,16.57A36.5,36.5,0,0,1,794.89,526Z" transform="translate(-598.78 -448.37)"/><path class="cls-50" d="M760.79,491l-.2-1.74,18.59-.33Z" transform="translate(-598.78 -448.37)"/><path class="cls-48" d="M762.21,514.73c1.2-1.68,2.54-3.27,3.56-5,2.52-4.37.7-8.52-.86-12.66,5.08,3.48,3.29,8.34,2.58,13C767,513,765.33,514.66,762.21,514.73Z" transform="translate(-598.78 -448.37)"/><path class="cls-48" d="M805,501.32c-.37,3.2,3.66,7.87-3,8.95-.34-.42-.67-.85-1-1.28,2.25.13,3.63-.86,2.88-3.13-1.28-3.85-2.91-7.57-4.4-11.35l.78-.68,3.53,4.35,0-.07C804.16,499.18,804.55,500.25,805,501.32Z" transform="translate(-598.78 -448.37)"/><path class="cls-48" d="M796.19,501.93l3.79,6.12Z" transform="translate(-598.78 -448.37)"/><path class="cls-51" d="M758.78,528.77l2.55-2.8.77.61c-.88,1-1.75,2-2.63,3Z" transform="translate(-598.78 -448.37)"/><path class="cls-48" d="M799.94,508l1.07,1.06Z" transform="translate(-598.78 -448.37)"/><path class="cls-48" d="M867.27,538l3.72-.91,0,1-3.93-.12Z" transform="translate(-598.78 -448.37)"/><path class="cls-51" d="M871,538.1l0-1,1.09.81-.49.54A.57.57,0,0,1,871,538.1Z" transform="translate(-598.78 -448.37)"/><path class="cls-56" d="M615.06,602.05l-.57.36.39-.54Z" transform="translate(-598.78 -448.37)"/><path class="cls-56" d="M614.88,601.87l.58-.37-.4.55Z" transform="translate(-598.78 -448.37)"/><path class="cls-48" d="M736.9,543.2l-.7-1.47-.51-2.75-.12-4.84,1.41-3.21q.74,6.6,1.46,13.2l-1.32-.19A1.49,1.49,0,0,1,736.9,543.2Z" transform="translate(-598.78 -448.37)"/><path class="cls-34" d="M764.37,544.74l2.46-1.94-1,2.46-1.74-.41Z" transform="translate(-598.78 -448.37)"/><path class="cls-38" d="M759.88,544l3-.13Z" transform="translate(-598.78 -448.37)"/><path class="cls-50" d="M737.12,543.94l1.32.19c.16.85.31,1.7.46,2.54l-1.8-1.82A1.35,1.35,0,0,1,737.12,543.94Z" transform="translate(-598.78 -448.37)"/><path class="cls-48" d="M736.92,531l2-2.07Z" transform="translate(-598.78 -448.37)"/><path class="cls-48" d="M764.07,544.85l1.74.41Z" transform="translate(-598.78 -448.37)"/><path class="cls-48" d="M738.91,529l1-1.27Z" transform="translate(-598.78 -448.37)"/><path class="cls-38" d="M770.1,461.42c2.82-.18,5.63-.46,8.45-.43.44,0,.87,1.41,1.3,2.17l-4.08,9-1.63-.18Z" transform="translate(-598.78 -448.37)"/><path class="cls-52" d="M789.85,476.1l8.13,3.83-3,.29L782,479l1.13-2.87Z" transform="translate(-598.78 -448.37)"/><path class="cls-48" d="M839,572.12c-4.47-2.2-9-4.34-13.37-6.67-.76-.4-1.1-1.6-1.63-2.42l21,9.86Z" transform="translate(-598.78 -448.37)"/><path class="cls-55" d="M684.67,464c-.67,4.75-3.15,7.1-8.12,6.15-4.25-3.68,2.27-6.44.61-10C679.78,461.6,685.52,456.38,684.67,464Z" transform="translate(-598.78 -448.37)"/><path class="cls-35" d="M684.67,464c.85-7.62-4.89-2.4-7.51-3.9,1.66,3.61-4.86,6.37-.61,10l-5.24,2.37c3.46-14.5,5.71-16.64,16.75-16C686.85,459.16,685.76,461.58,684.67,464Z" transform="translate(-598.78 -448.37)"/><path class="cls-50" d="M699,461.16l2.69,1.91c-.14.21-.29.41-.43.61-.58,2.28-.57,6-1.87,6.52-1.89.8-5.1-.11-7-1.38-1.16-.75-1.05-3.57-1.27-5.48,0-.28,1.24-.71,1.91-1.07-.46,3.42,1,5.49,4.38,4.4C698.39,466.33,698.47,463.08,699,461.16Z" transform="translate(-598.78 -448.37)"/><path class="cls-53" d="M699,461.16c-.52,1.92-.6,5.17-1.63,5.51-3.33,1.09-4.84-1-4.38-4.4C694.75,460.62,696.45,458.65,699,461.16Z" transform="translate(-598.78 -448.37)"/><path class="cls-44" d="M659,476c.75.75,1.49,1.51,2.23,2.26l-.16-.05L659,476Z" transform="translate(-598.78 -448.37)"/><path class="cls-53" d="M701.25,463.68c.14-.2.29-.4.43-.61l2.37,1.94-1,.07Z" transform="translate(-598.78 -448.37)"/><path class="cls-39" d="M656,470c.32.67.64,1.35,1,2-.34-.68-.69-1.35-1-2Z" transform="translate(-598.78 -448.37)"/><path class="cls-39" d="M659,476l2.07,2.21-3.92,1.34Z" transform="translate(-598.78 -448.37)"/><path class="cls-44" d="M881.5,581l-6.54.91a2.38,2.38,0,0,0,0-.8Z" transform="translate(-598.78 -448.37)"/><path class="cls-38" d="M875,581.11a2.38,2.38,0,0,1,0,.8l-2.37.21-1.2-.19L871,581v0Z" transform="translate(-598.78 -448.37)"/><path class="cls-39" d="M782,479l13,1.21,4.19,1.9c0,.6,0,1.19,0,1.79-2,.41-5-.94-5.37,2.74-3.89-1.54-7.72-3.25-11.68-4.57C778.75,481,781.77,480,782,479Z" transform="translate(-598.78 -448.37)"/><path class="cls-31" d="M793.8,486.65c.39-3.68,3.33-2.33,5.37-2.74,5.1,3.61,4,9.22,4.56,14.27l-3.53-4.35Q797,490.23,793.8,486.65Z" transform="translate(-598.78 -448.37)"/><path class="cls-30" d="M831.34,461.15l1.87,0L831,464C831.09,463.07,831.22,462.11,831.34,461.15Z" transform="translate(-598.78 -448.37)"/><path class="cls-6" d="M737.12,543.94a1.35,1.35,0,0,0,0,.91c-.05.56-.09,1.12-.14,1.69l-.06-3.34A1.49,1.49,0,0,0,737.12,543.94Z" transform="translate(-598.78 -448.37)"/><path class="cls-43" d="M716.53,470.5l1.08-.32c-.1.37-.21.74-.31,1.11Z" transform="translate(-598.78 -448.37)"/><path class="cls-38" d="M735.69,539l.51,2.75-1.34.21C735.14,541,735.42,540,735.69,539Z" transform="translate(-598.78 -448.37)"/><path class="cls-52" d="M871,581l.37.93h-3.32Z" transform="translate(-598.78 -448.37)"/><path class="cls-45" d="M874.11,539.65l6.24,2.26-6.22,0C874.12,541.18,874.11,540.42,874.11,539.65Z" transform="translate(-598.78 -448.37)"/><path class="cls-42" d="M874.11,539.65c0,.77,0,1.53,0,2.3l-1.19.07-2.64-1.89,1.93-1Z" transform="translate(-598.78 -448.37)"/><path class="cls-45" d="M872.23,539.13l-1.93,1L867.09,538l3.93.12a.57.57,0,0,0,.57.35A1.56,1.56,0,0,0,872.23,539.13Z" transform="translate(-598.78 -448.37)"/><path class="cls-32" d="M812.55,497.78c.44,1.73.88,3.45,1.31,5.18q0,4.38-.1,8.78-2.75,5.79-5.5,11.59l-7.19,11.14c2-5.19,3.61-10.58,6.11-15.53a34.57,34.57,0,0,0,3.69-19.9Z" transform="translate(-598.78 -448.37)"/><path class="cls-52" d="M812.55,497.78,810.87,499q-2.91-7.05-5.81-14.1l2.28,1.74,1.36,1.57,1,2Z" transform="translate(-598.78 -448.37)"/><path class="cls-31" d="M799.19,482.12l-4.19-1.9,3-.29,3.08,2Z" transform="translate(-598.78 -448.37)"/><path class="cls-31" d="M805,501.32c-.4-1.07-.79-2.14-1.18-3.21Z" transform="translate(-598.78 -448.37)"/><circle class="cls-28" cx="181.17" cy="66.81" r="0.77"/><circle class="cls-28" cx="152.9" cy="55" r="0.77"/></g></svg>