<svg id="Capa_1" data-name="Capa 1" xmlns="http://www.w3.org/2000/svg" viewBox="0 0 860.15 364.78"><defs><style>.cls-1,.cls-3,.cls-4{fill:#02adc4;}.cls-2{fill:#12465c;}.cls-3,.cls-4{stroke:#12465c;stroke-miterlimit:10;}.cls-3{stroke-width:0.75px;}.cls-4{stroke-width:2px;}</style></defs><path class="cls-1" d="M607.59,74.48c-11,11.7-6.54,26.78-17.62,35.51-7.86,5.48-6,16.56-11.34,23.72-5.24,6.54-6.22,14.34-8.7,22l-2.18-.17c-.68-5.78,1.25-14.16-3.52-18.35-3.53-1.88-3.14-4.21-2.86-7.46a211.8,211.8,0,0,0,.56-21.23c-.64-7.6-.39-16.16-2.63-23.36C555,78.25,550.24,71.76,554.59,63c.81-1.61.51-4,.18-5.89-4.48-11.66-17,17.55-15.69,22.52a54.8,54.8,0,0,1-2.39,14.54c-3.64,12.23-7.65,24.36-11.76,36.44-4.2,9.34-15.29,13-13.27,25.21,1.08,11.09-7.4,18.37-10.67,27.71,0,.11-.58.05-1.06.07.71-10.83,4.73-21.82,6.43-32.73,1.94-8.82-.83-18.21.48-26.9,9.56-8.16,15.95-15.11,16.79-28.07,1.22-7.48,1.53-15.31,4.09-22.32,3-8.35,8.53-15.78,12-24,2.39-5.64,3.78-11.41,11-11.74l3,3.86c10-8,15-20.95,24-30.24l1.55,1c-2.75,10.55-15.81,20.85-8.75,32,.94,1.25.36,3.74.25,5.64-.71,11.14-1.88,22.17-.26,33.17-2,12.25-3.11,25.19-1.53,37.52,12.14-5.08,10.12-38.1,24.68-47.62,12.93-10.92,12.12-29.6,25.16-40.48a27.43,27.43,0,0,0,7.6-11.84c2.57-9,11-12.33,16.26-18.7-5.89,14.05-19,25.83-17.31,42,.72,14.85-4.24,29.37-1.2,44.15-.09,6-2.62,12.85-1.31,18.66a14.37,14.37,0,0,1-1.07,10.85c-3.32,8.58,3,8-6.55,21.25-5,6.76.2,14.31-1.59,21.53-3.09,8.52,2.13,11.11,1.7,17.14-7.89,13.79,4.39,24.91-2.2,29.57h-1.42c3.28-8.4-6.45-10.08-5.49-17.87-.19-2.26.91-5.56-.22-6.63-4.7-4.43-2.21-8.51-.13-12.59,4.55-6.78-2.73-12.45-2.64-19.29.32-10.54.45-21.18,2-31.58.58-10.64,13.61-20.92,6.29-31.45-4.41-6.29,2.28-13.34-2.69-17.58l-1.14.81Z" transform="translate(0 0)"/><path class="cls-2" d="M110.82,279.06c-5.56-3.93-5.12-12.47-12.8-14.06-3.49-11.36-8.73-14.52-16.9-22.07-7.74-6.22-3.41-17.71-12-23.67-3-2.54-4.57-4.59-4.85-8.88-.4-10-9.5-16.06-13.27-24.82-1.22-1.84-2.53-4-4.35-5-7.2-3.88-6.77-12.9-12.6-18.62-3.68-7-1.33-14.38-10.72-17.49-7.28-2.91-10.15-8.58-10.33-16,1-11-12.53-7.17-13-16.67,0-4,5.13-6.17,7-9.06,4-10.35,12.25-7.17,18.82-13.26,7.75-9.64,12.06-22.09,27-19,7.24.63,15,3.43,22,.56,3.08-1.31,5-1,6.36,2.21s3.32,4,6.57,1.65c6.51-4.72,12.43-2.26,13.55,5.76.6,4.33,1.73,7.38,6.24,9.07,7,7.21,8.22,19.72,8.35,29.54,0,.61-.78,1.38-.6,1.84,2,5.24.1,10.64.66,15.72.85,7.82.2,14-6.72,18.66-1.25,1.47-11.09,17.63-4.6,15.56,8.11-3.91,10.26,10.59,16.65,5.81a1.47,1.47,0,0,1,1.41,0c7,7,10-3.8,21.77,6.35,8.92,4.22,15,12.37,24,16.47,7.87,3.76,16.35,6.67,22.77,12.82a148.33,148.33,0,0,1,17.65,19c.76,1.09-.4,3.52-.68,5.33a31.66,31.66,0,0,1-20.69-15.08c-4.79-4.62-11.47-1-19.3-9.86-1.22-1.17-3.34-2.43-4.76-2.15-10.39,3.23-14.23-13.83-21.17-6.64-8.06,6.1-3.62-8-23.78-8.09a2.78,2.78,0,0,0-2.27.81c-3.08,4.9-6,2.47-8.85-.12-4-3.62-8-5.28-13.47-2.42-3.51.81-9-2.31-13.26-1.38-.54,8.13.89,6.43,5.23,11.45.2,8,8.86,13.13,7,22-.47,2.24,2.33,6.15,4.67,7.79,12.32,7.35,5.36,13.32,13,20.94,7.08,6.22-2.5,11.53,1.9,18.85.67,1.69.29,3.8.38,5.72ZM78,72.64c-.2.41-.4.82-.61,1.23-10.29.44-20.6-1.3-30.81-1.5C39,72.78,35.64,79,32.14,84.74S24.85,95.06,17.44,96.2c-5.25,2-9.91,9-13.8,13.37-3,3.64,1.26,6.47,4.14,7.8,12.45,4.23,2.85,21,16.13,24.9,10.72,4.08,8.18,10.6,12.24,19A106.88,106.88,0,0,0,53,184.85c4.12,8.6,12.68,15,13.33,24.91.36,7.73,10.57,10.7,10.91,17.87-.56,16.1,18.76,19.2,21.84,33.8,3.41,4.47,8.35,8.59,10.91,13.87l1.16-.44c-6.06-9.16,2.92-12-2.34-19.25-1.42-2.74-4.4-5.34-4.41-8,.56-10.46-12.64-12.24-13.76-21.73-.48-4.86.2-9.62-4.19-13.14-3.17-4.81,1-6-6.34-12.22a7.63,7.63,0,0,1-1.19-10.08c2.53-4,5.48-.95,8.38-.34,13.49,3.12,9.1-6.89,24.31,6,5.94-5.6,20.64-3.54,25,3.87.63,1,4.1,1.56,4.78.87,8.64-7.87,12.31,9.36,22.3,6.74,6.61.72,10.75,8.89,18.09,9.17C192.28,219,190.19,228,208,235.23c-2-5.42-4.3-9-8.29-11.89-8.17-7.63-16-15.6-26.77-19.56-5.07-3-8.92-.69-12.61-6.45-4.63-5.35-11.52-8.35-17.16-12.5-3.16-2.6-6.47-6.07-10.48-4-4.52,2.37-7.42,1.38-10.53-2.43-6.72,7.25-9.45-7.61-17.59-5.11-3.92.65-5.64-3.25-3.63-6.86,1-1.87,3-3.74,3-5.58-.08-4.37,2.34-7,5.44-8.82,5.73-3.34,5.17-8.3,4.47-13.53a111,111,0,0,1-.15-19.12c3.4-8-3.08-15.25-4.43-23.11-2.59-7.56-9.25-4.64-10-14.55C96.35,64.5,84,86.89,78,72.64Z" transform="translate(0 0)"/><path class="cls-2" d="M607.59,74.48l.18-3.41,1.14-.81c5,4.15-1.7,11.38,2.69,17.58,7.32,10.53-5.71,20.82-6.29,31.45-1.58,10.4-1.71,21-2,31.58-.09,6.83,7.19,12.51,2.64,19.29-2.08,4.08-4.57,8.16.13,12.59,1.13,1.07,0,4.37.22,6.63-1,7.78,8.77,9.47,5.49,17.87h1.42c6.54-4.29-5.63-16.07,2.2-29.57.43-6.07-4.79-8.57-1.7-17.14,1.79-7.22-3.37-14.76,1.59-21.53,9.61-13.27,3.22-12.64,6.55-21.25a14.42,14.42,0,0,0,1-10.78c-1.31-5.8,1.22-12.66,1.31-18.66-3-14.78,1.92-29.3,1.2-44.15-1.64-16.18,11.42-28,17.31-42-5.29,6.37-13.69,9.66-16.26,18.7a27.43,27.43,0,0,1-7.6,11.84c-13,10.89-12.19,29.56-25.12,40.48-14.61,9.61-12.5,42.48-24.68,47.62-1.58-12.33-.44-25.27,1.53-37.52-1.62-11-.45-22,.26-33.17.11-1.9.69-4.39-.25-5.64-7-11.19,6-21.46,8.75-32l-1.55-1c-9,9.29-14,22.21-24,30.24l-3-3.86c-7.27.33-8.66,6.1-11,11.74-3.49,8.24-9,15.67-12,24-6.07,20.77-.58,35.7-20.88,50.39,1.12-2.09,1.72-4.9,3.45-6.15,9.66-7,11-17.36,11.64-27.89,1.09-18.6,13.12-34.46,20.57-51.09,1.25-2.22,5.85-2.79,9-3.49.74-.17,2.05,2.26,3.3,3.74,4-5.42,8.24-11.15,12.47-16.89,4.19-4.7,6.14-12.55,13.61-12.24,1.37,12.21-16.37,21.86-7.77,34.16.39,7.54-2.84,15.34-.71,23.31.54,3.13-1.76,6.47,1,9.8.86,1-.36,3.78-.6,5.75-.39,11.56-5.65,23-1,34.24,5.27-9.68,6.57-20.78,10.44-31,4.7-12.6,17.85-19.77,21.39-33.43,3.15-8,6.63-15.35,13.27-21.24a30.21,30.21,0,0,0,7.76-11.71c1.71-4.56,3.83-8.29,7.58-11.36,4-3.16,6.3-8.65,12.16-8.5,2.24,10.81-20.19,24.87-17.07,51.51,0,15-1.57,30-1.85,45-.76,6.17-1.42,8.82.77,14.88-4.64,9.24-2,20.66-9.17,29.34-1.81,2.21-1.37,6.43-1.56,9.75.14,6.61-.93,14.29.76,20.56a11.21,11.21,0,0,1,0,10.94,15.84,15.84,0,0,0-.37,14c2.16,5.71,3.38,17.13-6.54,12.09,2.8-6.7-1.82-8.59-4.88-13.1,2.14-8.81-7-17.35-.49-26.42,2.11-8.1-3.25-17.76-3.08-26.16a82.38,82.38,0,0,1,1.51-20.61C603,111.06,616.77,97,609.24,88.2,607.17,84.64,607.87,78.73,607.59,74.48Z" transform="translate(0 0)"/><path class="cls-2" d="M690.23,145.21c-.66,1.51-1.92,3-1.87,4.51.33,10.32-6.54,18.32-8.72,27.82-.84,3.63-3.66,2.23-6.74,1.08,3.43-11.88,4.8-23.87,7.67-35.71.95-2.64,1.61-4.2-.45-7-4-10.24,5.73-27.4,8-38.26.56-1.69,2.45-2.94,3.73-4.39,3.32,5.75,1.34,10.3,1.07,17.47,5.47-4.2,8.18-8.81,13.42-10.64,4.26,2,19.06,2.6,16.91,9-5.11,9.69,11.85,15-3.63,28.07,7-.87,13.73,2.52,15.64-5.47,6.49-16.11,13.25-33.81,25.25-46.39,15.31-1-6.4,13-2.48,18.79,5.22,6.77-10.29,24.7-12.86,32.87-.09,6.4,8.24,3.09,11.9,8.5,8.42-1.22,12,7.64,18.89,9.58.34.1.57,1.87.3,2.67-1,3-9.54,5.91-11.91,3.89-4.76-5-11.82-2.61-16.75-8.12-3.55-2.57-4.61-2.13-5.61,2-4.18,14.13-6.8,28.54-13.17,42-3.13,5.59-3.13,14.59-10.13,16.5-2.88-7.15,3-14.3,4-21.49,2-14.59,3.69-28.93,10.37-42.36-6.63-4.33-15-4.49-16.43-13.56-30.35,8.67-4.1,8.1-9.49,26.09a3.47,3.47,0,0,0,.48,2.37c5.76,10.61-.61,21.72,1.94,33,.48,7.63-6.86,8.53-7.3,1.17,2.79-34.58-14-32.53-10.59-53.66Zm16.25,57.21,1.11-.32c-2-11.84,2.79-24-1.54-35.27a10.47,10.47,0,0,1-.59-6.23c4.13-9-14.82-16-2.77-21.52,8.42-4,27.5-4.61,20-18.38-3.45-6-3.18-13.35-10.19-16.73-9-6-13.5,6.86-20.44,10.33l-1.26-.82c.26-5.75.52-11.51.82-18.35-5,10.33-6.86,21.73-10.46,32.66-.56,2-.79,5.3.36,6.45,3.85,3.82,2.2,7,.25,10.74-3.21,10.26-3.52,21.49-6.18,32l1.38.37c3.63-9.43,9.21-18.76,9.46-29.33.32-2.89,3.58-4.35,5.4-6.33,3,4.73.78,10.55,2,15.31,2.4,6,6.14,11.36,8.81,17.22,3.49,7.41-1.18,22.84,3.84,28.2ZM764.24,88.21l-1.5-1.7C749.87,98.73,744,116.86,737.29,133c-2.41,9.39-10,4.37-18,6.75,4.29,2.66,7.75,5.2,11.55,7.08,4.68,2.31,4.82,3.09,2.81,7.91-2.39,5.72-7.5,10.86-4.66,18-3,12.79-5.17,26.08-10.09,38.49l1.3.44c5.76-6.71,6.73-15.47,9.16-23.51,2.17-7.16,7.22-13.23,7-21.37.59-5.18,3-12.76,6.79-16.55,3.75-.93,7.76,3.72,11,5.17,4.39,1.68,9,2.87,14.28,4.5L775.2,156c-8.37-1.06-11.68-11.32-21.06-7-.26-2-.45-3.31-.62-4.63-5-.75-13.72-1.72-10.5-8.6,4.36-8.14,8.84-16.23,12.94-24.51C757.91,97,748,108,764.24,88.21Z" transform="translate(0 0)"/><path class="cls-2" d="M798.38,185.49c.56.33,1.58.63,1.6,1,.34,7.1,6.74,14.34-.94,21.39.92.18,1.55.48,1.74.31,7.19-6.47,16.68-5.22,25.06-7.7,7.52-1.41,28.77-14.54,34.31-10.11.11,7.32-28.59,14.9-35.32,19.34-7,4.49-14.13,10.44-22.15,12.81a32.8,32.8,0,0,0-15.36,8.35c-8.41,8.93-23.88,7.53-28.91,20.2C748.53,261,738,270.28,726,277.7a22.33,22.33,0,0,1-14.77,4.63c-11.34-1.17-18.19,9.91-29,9.26.56-1.84.54-4.64,1.75-5.37,6.63-4,13.61-7.38,20.37-11.15,10.9-6.17,21-13.63,31.55-20.36,13-8.29-8-9,19.26-21C754.21,221,773,232.46,774,218.85c2.3-7.4,7.32-13.72,10-21.36-8.62-2.75-1.63-10.92-4-16.79-3-10.78,1.45-21.21,1.37-32a17.9,17.9,0,0,1,3.23-9.44c3.29-4.92,1.89-12.47,5.65-17.53,8.53,6.09,3.53,27.15,8.23,35.29,6.43,10,.77,19-.07,28.62-3.46-7.15,3.24-15.15.71-22.23-6.91-11.67-4.38-25.79-7.35-38.62-1.9,4.08-2.55,8-3.46,11.9-1.13,3.88-4.07,7.48-4.84,11.43-2,14.94-2.68,31.27-.82,46,4.64,2.15,3,5.23,1.56,8.31-3.18,6.64-6.73,13.29-8.56,20.44-2.25,7.92-11.38,5.38-17.88,7.35,4.77,10.19-18.25,6.74-15.34,17.47.66,6.05-5.76,9.23-10.21,12-8.32,5.69-15.9,12.63-25.11,16.87-7.82,4-16.73,6.07-23,12.52l1,1.35c8.93-4.59,16.93-11,27.63-10.38,18.19-2.81,31-19.64,44.23-30.77,6.21-13.21,22.51-11.49,31.52-22,7.76-7.46,20.92-5.9,28-14.58,12-9.4,28.92-11.74,41.33-21.23-11.24,2.8-21.83,7.54-32.73,11.31-7.56,2.38-16.16,1.22-22.79,7-1.09,1-3.3.63-5,.89C799.48,202.17,801.19,194.06,798.38,185.49Z" transform="translate(0 0)"/><path class="cls-2" d="M405.4,138.54c3.13-7.12,6.33-14.47,9.61-21.79.22-.48,1-.69,1.7-1.09,5.21,4,2.18,9,1.66,13.4-.77,6.46-2.33,12.83-3.56,19.3,5.29-4.45,10.27-8.61,15.19-12.83,5.61-11.55,4.69-26.06,12-37.15,10-4.38.84,12.4,2.35,16.14,4.88,7-.14,13.39-.88,20-4.41,20.2,8.68,29.74,2.3,41.07-6.16-1.55-7.56-5.39-9-11.34-3.26,3-5.43,8.18-11.24,5.67-4.19-1.81-9.08-2.49-11-7.64-3.81,5-4.43,4.78-7.48-.38a106.2,106.2,0,0,0-12.26-17v18.73c-8.82,5.3-6.74-6.74-9.29-11.8l-1.55.37c-.52,7,1.51,14.43-1.61,20.88-8.2-4.78-6.71-17.91-15.09-26-6.84,9.09-6.39,17.42-11,26.41-1.46-.66-3.91-1-4.21-2-6.79-14.33,8.14-22.21,3.73-36.48-2.36-10,8.86-13.06,11.12-21.19,1.3-2.81.82-7.58,5.36-7.09s2.55,5.09,3.18,7.81c3,12.19,5,24.75,8.17,36.88a18.69,18.69,0,0,0,2.36-3.84c4.29-9.39-.55-19.53,4.63-28.27,4.21,2,5,5.61,6.17,9.64C399.88,131.92,402.92,134.76,405.4,138.54Zm39.51-38.47-1.83-.67c-5.14,11-6.53,23.33-9.89,35a6.19,6.19,0,0,1-2.73,3.33c-8.19,4.68-13,11-13.34,21-.21,5.48,2.64,6.54,6.1,8.05,3.64,1.6,7.25,2.88,9.85-1.84.94-1.71,2.39-3.14,4.11-5.34l6.34,15.4c4.5-4.74,2.23-8.31,1-11.37-6.94-15.69-2.81-28-.34-43.24-4.34-6.7,0-13.39.73-20.3ZM372.46,109l-1.39-.25c-3.2,16.69-13.83,12.91-13.26,27.11,2.2,12.94-8.46,21.85-4,35.11,7.82-6.91,4.41-19.23,13.84-25.29,7.59,6.28,9.49,15.59,12.88,24.45l1.94-.44C382.09,149,375.32,129.4,372.46,109Zm17.75,53.77,2.53-.1c1.64-7.92-3.47-16.32,2.23-23l16,23.71c2.17-15,4.29-29.58,6.41-44.21l-2-.41c-3.17,7.09-4.44,16.83-9.13,22.76-3.51-.56-4.88-3.29-5.06-6.79-9.5.68-5.15-9.58-10.58-13.25-.36,14.46-3.64,27.13-.4,41.31Z" transform="translate(0 0)"/><path class="cls-2" d="M248.49,95c3.51-4.65,7-9.61,10.37-14.28,7-3.89,8.44-11.52,12.21-17.58,3.75-4.56,5.72-12.41,12.63-12.32.67,8-4.26,16-8.34,22.61-3.38,3.86-5.29,8.16-4.61,13.15.84,6.14-2.38,10.07-6.37,13.79-4.13,3-9.06,8.51-3.13,12.43,7.08,4.13,13.2,12.22,21.83,12.38,3.57-.26,6.22,0,8.31,3.69,10.91,10.72,19.89,23.26,28.34,36.14,5,5.58,1.11,9.12-5.63,9.29l-48.52-44.55c-7,4.7-6.87,10.06-5.72,16.41,1.4,7.75,1.7,15.73,2.1,23.63-.3,4-4.73,5.42-7,1.82-3.53-10-3.47-21.17-5.37-31.61-7-8.95-3.52-20.24-9.11-29.61-1.41,4.8-2.74,7-6.57,9.5-5.75-8.19-3.06-25-5.86-35.34-1-9.2-6.6-19.08-7.15-28,2.59-3.2,7.1-9.73,11.09-4.26a14.54,14.54,0,0,1,2.6,7c.14,7.55,3.88,13.29,8.09,19.07,2.2,4.8,2.23,11.14,3.66,16.38Zm8.43,77,2.08-.22c1.93-10.26-1.95-21.57-2.36-32.15.06-3.36,5.19-14.08,9.85-10.8,11.64,5.87,17.22,17.9,28.52,24,6.59,5.91,12.61,12.84,19.1,19,.5-1.27,1-2.56,1.67-4.22l4.16,2.82a160.19,160.19,0,0,0-30.79-41c-1.21-1.11-3.33-2.63-4.42-2.24-9.06,2.48-17.54-9.07-25.17-13-6.3-4.74-1.92-12.31,3.54-15.63,3.63-3.2,5.8-6.73,5.68-12,.82-12,8.94-22.43,13.75-33.19C271.9,57.17,270,77.27,259.3,84.17,255,88.25,252.49,94.41,247,97.56c-7-9.75-3.06-9.33-5.9-17.79-5-6.2-8.4-12.86-8.86-21-.13-2.23-1.76-4.39-2.74-6.67-7.67,5.09-7.56,5-4.19,12.23,6.88,16.62,4.77,35.52,8.57,53,2.87-3.08,3.59-5.89,6.7-8.45,8,8.05,5,19.86,10.27,29.71,4.48,9.84,2.54,22.8,6,33.46Z" transform="translate(0 0)"/><path class="cls-2" d="M506.34,125.13c.18,8.55,1.47,17.25,0,25.73-1.7,10.9-5.72,21.9-6.43,32.73a3.45,3.45,0,0,0,1.06-.07c3.27-9.34,11.75-16.62,10.67-27.71-2-12.3,9.06-15.84,13.27-25.21,4.11-12.08,8.12-24.21,11.76-36.44,3.59-15.32,1.56-25.83,12.88-38.78,4.57-4.31,6.7,4.56,5,7.61-4.35,8.78.45,15.27,4.71,22.16,2.24,7.21,2,15.76,2.63,23.36a211.8,211.8,0,0,1-.56,21.23c-.28,3.25-.67,5.58,2.86,7.46,4.78,4.2,2.83,12.55,3.52,18.35l2.18.17c2.48-7.67,3.45-15.47,8.7-22,5.31-7.16,3.48-18.24,11.34-23.72,9.29-6.41,7.12-18.24,12.19-27.31C599.62,113.6,592,102.75,585,123.07c-1,4.56-3.7,8.74-5.47,13.16-3.51,7.24-4.23,16.2-10.51,21.71-8.73-6.25,1.27-17.11-8.56-20.67-1-.32-1.79-4.23-1.37-6.22a57.41,57.41,0,0,0-.21-25.49c.24-11.54-1.09-20.72-7.7-30.42-1.94-5.75,1.44-12.2,1.08-18.31-5.85,5.91-10.64,12.57-10.82,20.83-.93,18.28-9.75,34.92-14.12,52.56-3.41,9.83-15.59,14.17-13.67,26.1a21.74,21.74,0,0,1-4.61,15.87c-3,4.7-3.68,10.8-9.16,13.77-2.13-8.37-1.25-18.76,1.38-26.52C507.5,148,501,135.49,506.34,125.13Z" transform="translate(0 0)"/><path class="cls-2" d="M235.69,144.58c6.18,13.79-6.7,11.62-13.7,20.92-9.08,2.08-5.42,12.56-9.62,19-5-4.31-9.08-9.46-13.68-14.12-9.61-1.5-10.8,6.38-11.13-9.28-5.17-.22-6.88-2.19-5.26-6.92,5.64-11.66-6.58-27.61,3.83-35.6,5.87-5.66,1.94-15.93,15-17.7,5,.73,13.21-7.08,16.19-2.18,2.44,3.82-1.31,6-3.86,7.84-3.38,3.25-15,3.92-10.58,10.78.15,5.4-5.4,11.32-7.36,16.48-4.19,8,8.47,5.06,5.53,14.15a30.2,30.2,0,0,0-.76,8.32c.6,2.75,3.81,4.18,5.9,1.33C217.54,144.42,224.14,155.4,235.69,144.58Zm-19.76-44.24L215.18,99c-4.23,1.33-8.64,3.93-13,4.33-6-.19-10.18,3.76-10.27,9.81,0,1.74-.9,4.19-2.21,5.06-9.68,6.64-4.74,9.3-4.61,18.24.48,6.89,1.64,13.81-1.15,20.53-.13.3.34.85.67,1.61,1.09-1.37,2-2.55,3.6-4.54a14.06,14.06,0,0,1,1.5,9.84c-.59,9.87,6.57.48,11.62,6.24,3.66,3.69,6.74,8,10.6,12.67,2.26-7.64-.74-16.56,9.21-19.29,5.35-10.12,16.26-6.29,14.2-14.38-9.73,4.44-19.81,1.13-27.2,9.28-5.44,5.22-8.66,2.12-10.25-3.75-.5-2.26,1-4.9.9-7.33-.16-6.52-9.36-6.32-5.47-13.6,1.79-3.92,4.07-7.62,5.92-11.53,3.39-5.42-3.23-11.12,5.71-12.59,5.38-1.25,8.39-5.07,11-9.29Z" transform="translate(0 0)"/><path class="cls-2" d="M627.88,145.75c-5.57-22.68,6.57-34.37,24.65-45.49,19.74-11,30.74,20,18.61,33.44-1,1.35-.55,4.58.29,6.48,4.44,10,4.08,12.63-4.79,19.5-7,5.75-15.77,11.11-25,7.77-2.84-.92-4.82-4.48-7.2-6.85-9.31-6.45-9.87-1.07-8.15-14.73Zm2.31-.7-1.23.16c-3.6,15.64-.32,6.88,7,14,8.55,11,20.43,7.54,29.36-1.11,7.46-5.62,7.87-8.58,4.35-17-1.11-2.66-1.44-7.21.09-9.12,10.51-11.6,1.86-39.24-16.24-29.91-9.51,6.13-18.6,12.52-23.57,23.11C627,131.36,629.85,138.53,630.19,145.05Z" transform="translate(0 0)"/><path class="cls-2" d="M165.5,167c-3.18-18.52-11.22-8.14-10.61-22.34.24-4.15.56-8-4.48-9.78-2.36-3-2.49-8.57-3.88-12.29-.53-1.87,3.63-7.26,6.59-8.38,6.32-2.5,11.86,18.07,11.84,22.8-.13,9,13.1,4.68,10.7,13.75-3.27,9.77,5.79,11.72,6,21.31.11,4.74,6.5,22.24,2.89,23.87a4.86,4.86,0,0,1-5.64-3.23c-4.53-8.55-9.33-17-13.69-25.62Zm-10.94-51.64c-2,2.07-5.14,3.85-5.18,5.69-.08,4,.13,9.83,2.58,11.54,5.4,3.75,5.09,8.26,5.17,13.42,0,2,.73,5.15,2,5.64,5.92,2.32,6.31,7.64,7.85,12.45,4.28,10.4,10,20.25,15.55,30l1.38-.54c-2.44-9.12-2.68-20.21-6.43-28.62-8.53-6.23-.85-14.56-6.35-18.67-12.75-3-4.44-14.27-16.57-30.94Z" transform="translate(0 0)"/><path class="cls-2" d="M142,84.91c4.89-1.28,6.63,1,7,5.62,1,5.33,5.52,15.74-3.82,15.25-12.66-1-9.29-8.78-12.13-18.12-1.78-4.64-1.32-9,4.22-9C139.35,79.57,140.45,82.63,142,84.91Zm3.72,2.29-1.18,1-8.84-7.52c-3.37,7.16,2.81,5.84,1.15,15.08-1.74,7,13.39,12.06,12,2.85-1-3.82-2.08-7.63-3.15-11.41Z" transform="translate(0 0)"/><path class="cls-1" d="M78,72.64c6,14.26,18.36-8.15,21.2,9.08.83,10,7.43,7,10,14.55,1.35,7.86,7.83,15.07,4.43,23.11a111.34,111.34,0,0,0,.18,19.15c.7,5.23,1.26,10.19-4.47,13.53-3.1,1.81-5.52,4.45-5.44,8.82,0,1.84-2,3.71-3,5.58-2,3.61-.29,7.51,3.63,6.86,8.15-2.49,10.86,12.35,17.59,5.11,3.11,3.81,6,4.8,10.53,2.43,4-2.1,7.32,1.37,10.48,4,5.64,4.12,12.51,7.16,17.18,12.5,3.71,5.76,7.53,3.46,12.61,6.45,10.81,4,18.61,11.94,26.77,19.56,4,2.9,6.3,6.47,8.29,11.89-17.73-7.26-15.7-16.26-26.19-18.51-7.34-.28-11.48-8.45-18.09-9.16-10,2.61-13.64-14.62-22.3-6.75-.68.69-4.15.11-4.78-.87-4.36-7.39-19.07-9.48-25-3.87-15.24-12.94-10.79-2.92-24.31-6-2.9-.61-5.85-3.63-8.38.34a7.63,7.63,0,0,0,1.19,10.08c7.42,6.32,3.15,7.34,6.34,12.22,4.39,3.52,3.71,8.28,4.19,13.14,1.13,9.49,14.31,11.26,13.76,21.73,0,2.66,3,5.26,4.41,8,5.27,7.32-3.73,10,2.34,19.25l-1.16.44c-2.56-5.29-7.5-9.39-10.91-13.87-3.07-14.6-22.4-17.7-21.84-33.8-.35-7.19-10.55-10.14-10.91-17.87-.66-9.92-9.21-16.31-13.33-24.9a107.46,107.46,0,0,1-16.83-23.59c-4.08-8.38-1.46-14.82-12.24-19-13.28-3.93-3.67-20.66-16.13-24.9-2.87-1.32-7.18-4.18-4.14-7.8,3.87-4.42,8.55-11.37,13.8-13.37,7.41-1.14,11.3-5.86,14.7-11.46,3.5-5.76,6.82-12,14.42-12.37,10.21.2,20.52,1.94,30.81,1.5Q77.68,73.26,78,72.64ZM98.76,122l-1.75.17c-2.34-4.38-2.21-11-7.1-13.35-3.48-1.82-7-3.12-8.54-7.6-1.26-3.65-6.93-5.47-8.6-3.26-2.94,3.9-5.28,2.3-7.68,0-3.53-4.12-7.34-.22-11.44.32-5.17.59-8.09,3.67-10.59,8C40.34,112.72,31.17,111.4,31,116c-.11,6.61,4.51,11.76,7.82,17,1.43,2.87,2.48,5.4,6,6.71,3.25,2.9,5.61,8.84,9.32,12,.48.53,2,.64,2,1,.62,6.67,8.89,9.32,8.63,16.57,0,1.3,1.79,3.28,3.19,3.81,2.15-.17,6.33-4.8,8.86-4.15,8,2.29,9.29-9.81,15.63-12.59,4.34-2.84,5.75-6.45,4.65-11C94.58,137.51,98.69,130,98.76,122Z" transform="translate(0 0)"/><path class="cls-1" d="M706.48,202.42c-5-5.28-.36-20.85-3.81-28.22-2.67-5.86-6.41-11.26-8.81-17.22-1.21-4.75,1-10.58-2-15.31-1.81,2-5.08,3.44-5.4,6.33-.26,10.59-5.83,19.89-9.46,29.33l-1.38-.37c2.66-10.49,3-21.72,6.18-32,2-3.77,3.6-6.92-.25-10.74-1.15-1.15-.92-4.42-.36-6.45,3.61-10.93,5.43-22.32,10.46-32.66-.3,6.84-.56,12.6-.82,18.35l1.26.82C699,110.8,703.57,98,712.53,104c7,3.39,6.74,10.72,10.19,16.74,7.45,13.77-11.62,14.42-20,18.37-12,5.5,6.9,12.49,2.77,21.52a10.47,10.47,0,0,0,.59,6.23c4.33,11.22-.43,23.44,1.54,35.27ZM703,133.08c7.25-4.82,3.69-10.76,9.21-13.54,7.84-5.3-9-8.22-12.47-2.31-2,1.53-6.23,5.19-6.08,7.17,1.44,3.67,3.91,7,6.17,10.27A24.07,24.07,0,0,0,703,133.08Z" transform="translate(0 0)"/><path class="cls-1" d="M764.24,88.21C748,108,757.93,97,756.07,111.33c-4.1,8.28-8.58,16.37-12.94,24.51-3.22,6.88,5.53,7.85,10.5,8.6.17,1.32.36,2.68.62,4.63,9.38-4.34,12.69,5.92,21.06,7L768.54,160c-5.31-1.63-9.89-2.82-14.28-4.5-3.26-1.45-7.29-6.11-11-5.17-3.78,3.79-6.2,11.37-6.79,16.55.17,8.14-4.88,14.21-7,21.37-2.43,8-3.4,16.8-9.16,23.51l-1.3-.44c4.92-12.41,7-25.7,10.08-38.49-2.83-7.17,2.28-12.31,4.67-18,2-4.82,1.87-5.6-2.81-7.91-3.8-1.88-7.26-4.42-11.55-7.08,8-2.39,15.54,2.65,18-6.75,6.65-16.16,12.58-34.29,25.45-46.51Z" transform="translate(0 0)"/><path class="cls-1" d="M857.29,192c-5.83,3.12-11.55,6.49-17.54,9.29-7.66,3.94-17,5.12-23.32,11.41-7,8.68-20.21,7.12-28,14.58-9,10.47-25.3,8.75-31.52,22-13.2,11.13-26,28-44.23,30.77-10.7-.58-18.71,5.79-27.63,10.38l-1-1.35c6.28-6.45,15.19-8.54,23-12.52,11.73-5.93,21.92-14.92,32.8-22.14,4.56-3.56-.07-10.52,5.08-12.84,4-3.63,16.65-4,12.78-11.34,6.49-1.94,15.63.55,17.88-7.35,1.83-7.15,5.38-13.8,8.56-20.44,1.42-3.08,3.08-6.16-1.56-8.31-1.86-14.73-1.13-31,.82-46,.77-4,3.71-7.55,4.84-11.43.91-3.88,1.56-7.82,3.46-11.9,3,12.83.44,27,7.34,38.62.83,1.09.71,3.18.48,4.72-.53,5.89-3.73,11.74-1.18,17.51v-.11c2.81,8.57,1.1,16.68-1.14,25.14,1.69-.26,3.9.06,5-.89,6.63-5.77,15.23-4.61,22.79-7,10.67-3.7,21-8.29,32-11.14Z" transform="translate(0 0)"/><path class="cls-1" d="M857,191.61l.71-.17-.46.53Z" transform="translate(0 0)"/><path class="cls-1" d="M444.91,100.07c-.76,6.91-5.07,13.6-.74,20.3-2.47,15.26-6.59,27.59.35,43.24,1.23,3.06,3.5,6.63-1,11.37l-6.34-15.36c-4.74,5.56-6.27,11.48-14,7.18-3.46-1.51-6.31-2.57-6.1-8.05.38-10.09,5.15-16.36,13.34-21a6.19,6.19,0,0,0,2.73-3.33c3.36-11.65,4.75-23.94,9.89-35Zm-7.46,50.21c-2.46-2.45-4-5.36-5.68-5.4-4.37-.11-9.12,7.67-8,12C428.21,166.22,433.77,155.27,437.45,150.28Z" transform="translate(0 0)"/><path class="cls-1" d="M372.46,109c2.86,20.4,9.63,39.94,10,60.69l-1.94.44c-3.39-8.86-5.29-18.17-12.88-24.45-9.44,6.07-6,18.37-13.84,25.29-4.42-13.27,6.24-22.16,4-35.11-.59-14.16,10.08-10.48,13.26-27.11Zm-2,32.68c3.69-3.13,2-6.53,1.07-9.74-.7-2.52-1.49-6.89-2.68-7-4.22-.54-3.47,4-4.38,6.46-5,11.45,1.58,5.24,6,10.3Z" transform="translate(0 0)"/><path class="cls-1" d="M390.21,162.77c-3.24-14.18,0-26.85.48-41.32,5.43,3.67,1.08,13.93,10.58,13.25.18,3.5,1.55,6.23,5.06,6.78,4.69-5.92,6-15.65,9.13-22.75l2,.41c-2.12,14.63-4.24,29.26-6.41,44.21l-16-23.71c-5.7,6.71-.59,15.12-2.23,23Z" transform="translate(0 0)"/><path class="cls-1" d="M256.92,172.05c-3.5-10.66-1.56-23.63-6-33.46-5.3-9.85-2.33-21.66-10.28-29.71-3.11,2.56-3.82,5.37-6.7,8.45-3.8-17.43-1.69-36.33-8.57-53-3.37-7.2-3.48-7.14,4.19-12.23,1,2.28,2.61,4.44,2.74,6.67.46,8.14,3.9,14.8,8.86,21,2.84,8.42-1.12,8.06,5.9,17.79,5.46-3.15,8-9.31,12.27-13.39,10.71-6.93,12.57-27,23.23-30.82-4.81,10.75-12.93,21.21-13.75,33.19.12,5.32-2.05,8.85-5.68,12-5.45,3.32-9.86,10.88-3.54,15.62,7.63,4,16.11,15.54,25.17,13.06,1.09-.39,3.21,1.13,4.42,2.24a160,160,0,0,1,30.79,41l-4.16-2.82c-.65,1.66-1.17,3-1.67,4.22-6.49-6.21-12.51-13.14-19.1-19.05-11.3-6.12-16.89-18.16-28.52-24-4.66-3.29-9.79,7.44-9.85,10.8.41,10.58,4.3,21.89,2.36,32.15Z" transform="translate(0 0)"/><path class="cls-1" d="M216,100.34c-2.6,4.22-5.61,8-11,9.29-5.06,1.19-5.88,2.86-4.55,7.59,0,5.88-5.09,11.1-7.08,16.54-3.89,7.27,5.31,7.06,5.47,13.59.13,2.43-1.4,5.07-.9,7.33,1.59,5.84,4.8,9,10.25,3.75,7.39-8.15,17.47-4.84,27.2-9.28,2.08,8.07-8.83,4.25-14.2,14.38-10,2.73-6.94,11.65-9.21,19.29-3.86-4.71-6.94-9-10.6-12.67-5-5.77-12.21,3.64-11.62-6.24a14.06,14.06,0,0,0-1.5-9.84c-1.57,2-2.51,3.17-3.6,4.54-.33-.76-.8-1.31-.67-1.61,2.79-6.72,1.63-13.64,1.15-20.53-.13-8.94-5.06-11.6,4.61-18.24,1.31-.87,2.18-3.32,2.21-5.06.09-6,4.31-10,10.27-9.82,4.34-.39,8.75-3,13-4.32Z" transform="translate(0 0)"/><path class="cls-1" d="M630.19,145.05c-.35-6.52-3.24-13.7-.21-19.88,5-10.59,14.06-17,23.58-23.1,18.09-9.34,26.74,18.3,16.23,29.9-1.53,1.91-1.2,6.46-.09,9.12,3.52,8.44,3.11,11.4-4.35,17-8.93,8.63-20.81,12.12-29.36,1.11-7.36-7.1-10.64,1.56-7-14Zm17.86,8.3c6.18,1.29,7.86-.37,8.21-6.28.13-5.78,4.22-13.31.88-18.55-6.29-5.37-.27-9.46-1.16-16-1.84.36-4.54.06-5.39,1.18-4.48,6.17-9.25,12.47-13,19-2.4,9,6.88,12.82,8.75,19.94C646.41,153.13,647.77,153.26,648.05,153.35Z" transform="translate(0 0)"/><path class="cls-1" d="M154.56,115.31c12.12,16.62,3.82,28,16.54,30.95,5.49,4.06-2.16,12.49,6.35,18.67,3.75,8.41,4,19.49,6.43,28.62l-1.38.54c-5.51-9.79-11.27-19.65-15.55-30-1.54-4.82-1.93-10.14-7.85-12.46-1.24-.49-1.93-3.68-2-5.64-.08-5.16.23-9.67-5.17-13.42-2.45-1.71-2.66-7.58-2.58-11.54C149.42,119.16,152.57,117.38,154.56,115.31Z" transform="translate(0 0)"/><path class="cls-1" d="M145.69,87.2c1.05,3.8,2.14,7.59,3.13,11.41,1.36,9.21-13.78,4.19-12-2.85,1.67-9.2-4.52-7.92-1.15-15.08l8.88,7.52Z" transform="translate(0 0)"/><path class="cls-2" d="M98.76,122c-.1,8-4.18,15.52-1.69,23.4,1.1,4.56-.31,8.17-4.65,11-6.34,2.79-7.6,14.86-15.63,12.59-2.53-.66-6.71,4-8.86,4.15-1.4-.53-3.24-2.51-3.19-3.81.26-7.25-8-9.9-8.63-16.57,0-.4-1.51-.51-2-1-3.71-3.14-6.08-9.08-9.32-12-3.51-1.31-4.56-3.84-6-6.71-3.29-5.28-7.93-10.43-7.81-17,.12-4.5,9.45-3.32,12.07-9.74,2.5-4.36,5.42-7.44,10.59-8,4.1-.53,7.9-4.45,11.44-.32,2.4,2.35,4.74,4,7.68,0,1.67-2.21,7.34-.39,8.6,3.26,1.54,4.48,5.06,5.78,8.54,7.6,4.9,2.3,4.75,9,7.1,13.35ZM66.93,170.45c10-6,12.64-.57,16.41-7,3-7.24,13.73-9.68,11.68-18.25-.6-3.3-1.77-7.61-.29-10,6-9.57-3.83-15.78-4.28-23.83,0-.56-2-.94-3-1.53-3.17-1.91-6.82-3-7.94-7.54-.32-1.3-5-3-5.53-2.51-5.09,5.85-8.4,0-12.73-1.89-5.6,2.92-13.32,1.83-16.49,9.56-8.85,12.2-18.5,3.92-5.33,21.54,3.14,10.37,7.74,6.27,11.47,16.06.93,1.5,1.85,4.07,3,4.18,3.48.36,4.11,2.73,5.23,5.18,2.65,5.33,8.16,9.74,7.8,16Z" transform="translate(0 0)"/><path class="cls-2" d="M703,133.09a25.3,25.3,0,0,1-3.17,1.58c-2.26-3.31-4.73-6.6-6.17-10.27-.15-2,4.1-5.63,6.08-7.17,3.5-5.91,20.31-3,12.47,2.31-5.41,2.86-2,7.43-8.08,12.76l-.73-1c3.23-4.47,4.64-9.36,6.33-14.67-6.2-3.32-9.64,4.16-14.09,8.22,2.67,2,1.51,7.5,6.65,7.2Z" transform="translate(0 0)"/><path class="cls-2" d="M704.15,132.3l-1.13.78c-.24-.35-.47-.71-.71-1.07l1.11-.75Z" transform="translate(0 0)"/><path class="cls-2" d="M437.45,150.28c-3.69,5-9.24,15.94-13.66,6.61-1.14-4.34,3.61-12.12,8-12C433.41,144.92,435,147.83,437.45,150.28Zm-5.34-4.48c-2.58,3.55-4.57,6-6.19,8.74C426.24,162.49,436.89,153.82,432.11,145.8Z" transform="translate(0 0)"/><path class="cls-2" d="M370.48,141.68c-4.43-5.06-11,1.14-6-10.32.91-2.48.16-7,4.38-6.46,1.19.15,2,4.52,2.68,7C372.45,135.15,374.17,138.55,370.48,141.68Zm.14-4.42c-.62-3.57-1.16-6.63-1.69-9.68l-1.06-.11-3.22,9.2Z" transform="translate(0 0)"/><path class="cls-2" d="M648.05,153.35c-.28-.09-1.64-.22-1.75-.66-1.87-7.12-11.15-11-8.75-19.94,3.79-6.53,8.56-12.83,13-19,.85-1.12,3.55-.82,5.39-1.18.89,6.49-5.13,10.57,1.16,16,3.34,5.25-.75,12.76-.88,18.55C655.91,153,654.23,154.64,648.05,153.35Zm6.08-38-1-.87c-1.48,1.17-4.09,2.22-4.23,3.53-.62,5.68-4.92,8.66-8,12.64-4.79,8.6,2.33,10.9,4.92,16.67.87,3.2,2.45,5.1,5.43,3.85,3.87-3,2.25-10.55,4.16-14.65C660.32,126.14,646.25,130.09,654.13,115.35Z" transform="translate(0 0)"/><path class="cls-2" d="M384.43,151.24" transform="translate(0 0)"/><path class="cls-2" d="M384,150.25" transform="translate(0 0)"/><path class="cls-2" d="M391.93,169" transform="translate(0 0)"/><path class="cls-2" d="M389.77,300.81a5.19,5.19,0,0,0-2.26,6.52c2.65,6-.27,5.47.24,9.36,1.64,3.46-.19,6.17-1.34,9.28-2.14,6.14,5.41,11.15,2,17.39-.79,1.63.26,4.1.32,6.2,1,6-5.28,5.07-4.3,12.47l-.84-.07c0-4-1.79-8-2.55-11.73,2.46-9.85-8.44-17.49-3.31-27.17,1.92-4.48-3.44-9.34-1.36-14.18,2.55-6.26-.79-12.71-.75-19.2a72.84,72.84,0,0,1-3.29-19.43c0-6.32,3.5-9.55-1.85-15.24-7-6.35,3.9-13.73-2.46-20-1.37-1.67-3.15-4.67-.22-6,3.69-1.54,8.61-4.42,12.42-4.08,10.54,3.52,15.61-9.59,24.9-5.91,6.19,3.15,12,7.28,18.4,10.08l.75-.58c-.56,10.51,13.65.48,10.27,11.86-2.47,6.29,2.47,6.49,1.81,11.88-1.51,5.22.31,11.55-4.17,15.46a75.35,75.35,0,0,0-5.57,11.77c-1,3.47-2.23,5.12-3.57,6-2.06,1.29-3.16.28-6.73,2a13.22,13.22,0,0,0-4.39,3.2c-.82,1-.82,1.27-1.51,2.09-.85,1,.58.63,3.69-1.21a47.79,47.79,0,0,0,4.65-3.06c5.62-.8,7.86-4.38,9.66-9.41,1.17-3.27,4-6,4.27-9.81,0-.34.75-.57.92-1,2.83-6,5.79-14.08,3.67-20.55-2.26-2.38-2-4.58-1.12-7.41,1.7-5.24-1.19-8.5-6.58-7.55-2.69.48-3.63-.57-3.53-3s-1-3.14-3.23-3.25c-5.16-.34-9.05-4.34-13.3-6.88-8.21-6.35-14.55,0-22.15,3.59-5.84,1.76-10-2.64-15.46,2.51-2,1.21-5.77,1-7,3.46-2.56,5.94,6.85,7.6,3,14-2.12,4.63-2,9,1.55,12.89,4.82,4.7,1.18,8.51,1.35,13.89,1.87,5.23-1.08,10.62,2.17,15.14a10.12,10.12,0,0,1,1.18,4.34c-.29,6.47,3.47,12.9.74,19.13-1.1,2.7-.73,4.43.33,6.87,3.51,6.22-2.55,12,.33,18.06,2.76,7,5,10.54,3.78,18.53,4.22,3.26,1.42,8.35,3.65,12.41l1.36.31c.51-1.21,1.37-2.38,1.46-3.61-.51-5.79,6.93-6.19,4.45-12.1-2.43-6.94,3.6-8.52-1.75-16.69-.94-1.7-1.49-4.92-.54-6.15,3.8-4.9,0-10.62,2.28-15.57-1.16-4.36-2.54-3.75.21-8.56,4.38-1.78,10.4-3.85,11-4.61s12.66-6,12.45-6.6c-.33-1-14.29,4.43-15,5.24S391.27,299.83,389.77,300.81Z" transform="translate(0 0)"/><path class="cls-2" d="M403.42,294.84" transform="translate(0 0)"/><path class="cls-2" d="M415.69,296" transform="translate(0 0)"/><path class="cls-2" d="M469.55,320c4.41-22.81-9.42-14.32-2.51-30.47,2.09-4.69,4.14-9-.91-13.26-1.42-4.5.85-11,.87-15.9.21-2.4,7.37-6.81,11.29-6.82,8.39-.13,5.82,26.07,3.73,31.54-4.07,10.32,13.11,11.12,6.37,20.57-8,9.86,1.59,16.07-2.38,27.24-1.94,5.54-2.19,28.57-7.07,28.87a6,6,0,0,1-5.11-6.2c-1.51-11.87-3.38-23.7-4.65-35.59Zm9.9-64.49c-3.21,1.52-7.63,2.2-8.48,4.31-1.82,4.55-4.14,11.44-2,14.48,4.61,6.69,2.28,11.77.12,17.77-.82,2.28-1.4,6.28-.18,7.38,5.82,5.27,4,11.6,3.63,17.83.41,13.88,2.78,27.79,4.87,41.52h1.83c1.16-11.62,5.73-24.55,5.06-35.9-7.14-10.93,5.38-17.21.81-24.37-13.42-9,1.1-18.53-5.66-43.06Z" transform="translate(0 0)"/><path class="cls-2" d="M478.17,214.81c6.22.66,7.22,4.12,5.65,9.56-1.11,6.62-.49,20.6-11.07,16-14.19-6.72-6.91-14.2-6.12-26.25,0-6.13,2.39-11,8.82-8.59C477.45,207.49,477.39,211.51,478.17,214.81Zm3.32,4.28-1.81.63-7-12.57c-7,6.81.71,8-5.25,17.94-5.08,7.38,10.23,19.8,12.68,8.55C480.69,228.8,481,224,481.49,219.09Z" transform="translate(0 0)"/><path class="cls-3" d="M434.5,240.35c3.38-11.37-10.81-1.37-10.27-11.86l-.75.58c-6.42-2.8-12.21-6.93-18.4-10.08-9.27-3.68-14.38,9.43-24.9,5.91-3.8-.33-8.73,2.53-12.42,4.08-2.93,1.31-1.14,4.34.22,6,6.36,6.3-4.49,13.68,2.46,20,5.36,5.74,1.85,8.9,1.85,15.24a72.84,72.84,0,0,0,3.29,19.43c0,6.49,3.3,12.94.75,19.2-2.08,4.84,3.28,9.68,1.36,14.18-5.13,9.68,5.77,17.33,3.31,27.17.76,3.76,2.56,7.73,2.55,11.73l.84.07c-1-7.43,5.34-6.42,4.3-12.47-.06-2.1-1.11-4.57-.32-6.2,3.45-6.24-4.09-11.24-2-17.39,1.15-3.11,3-5.82,1.34-9.28-.5-3.93,2.41-3.29-.24-9.36a5.19,5.19,0,0,1,2.26-6.52,2.46,2.46,0,0,1,2.27-.4,3.69,3.69,0,0,1,1-.43c.57-.14,1.14-.32,1.7-.5a12.43,12.43,0,0,1,1.58-.58,39.89,39.89,0,0,0,6.5-3.42,26.64,26.64,0,0,1,4.2-2.59,35.21,35.21,0,0,1,4.53-1.11,3.82,3.82,0,0,1,.57-.11,3.87,3.87,0,0,0,1.7-1.48c3.81-7.21,9.55.41,12.71-10.73a74.09,74.09,0,0,1,5.58-11.77c4.47-3.91,2.65-10.24,4.16-15.46C437,246.81,432,246.71,434.5,240.35Zm-20.23,38.32c-.68,3.12-2.62,4.91-6.11,5.36-4.71-.19-9.08,6.84-13.31,3.05-1.35-1.15-5.29.44-6.66-.1-.7-.73-1.23-2.49-.81-3.28,2.31-4.35-2-8.43-.35-12.7.09-.25-.78-.76-.91-1.23-1.34-3-1-7.35-2.15-10.09-1.75-1.85-1.64-3.71-1.67-5.89-.45-4.21-1.75-8.74.29-12.75,1.46-2.73,6.68.8,10.28-2.37,2.82-1.92,5.52-2.94,8.86-1.77,2.67.89,6.16-.36,7.1,3.21.77,2.15,1.72,3.83,4.68,2.32,1.68-.86,4.61,1.94,4.29,4.55-.38,3.2,1.38,5,3,7.18,2.31,2.87.24,6.91.37,10.28l1.13.42C419.82,269.75,415.09,273.11,414.27,278.67Z" transform="translate(0 0)"/><path class="cls-4" d="M334.21,209.89c6,50.18,20.11,98.25,20.82,149.29l-4,1.07c-7.07-21.78-11-44.67-26.89-60.12-19.7,14.92-12.55,45.18-28.88,62.19-9.24-32.64,13-54.5,8.44-86.36-1.24-34.82,21-25.77,27.67-66.67Zm-4.13,80.38c7.7-7.69,4.1-16.06,2.24-23.95-1.46-6.18-3.12-16.94-5.59-17.31-8.82-1.33-7.25,9.78-9.16,15.89C307,293.1,320.83,277.82,330.08,290.27Z" transform="translate(0 0)"/><path class="cls-1" d="M479.45,255.45c6.76,24.51-7.8,34,5.61,43,4.57,7.09-8,13.51-.81,24.37.67,11.36-3.9,24.27-5.06,35.9h-1.83c-2.09-13.73-4.46-27.64-4.87-41.52.33-6.23,2.19-12.56-3.63-17.83-1.22-1.1-.64-5.1.18-7.38,2.16-6,4.49-11.08-.12-17.77-2.09-3,.23-9.93,2-14.48C471.82,257.65,476.24,257,479.45,255.45Z" transform="translate(0 0)"/><path class="cls-1" d="M481.49,219.09c-.46,4.85-.85,9.71-1.37,14.55-2.45,11.25-17.76-1.17-12.68-8.55,6-9.9-1.76-11.13,5.25-17.94l7,12.57Z" transform="translate(0 0)"/><path class="cls-2" d="M422.27,264.86c-2.45,4.89-7.18,8.25-8,13.81-.68,3.12-2.62,4.91-6.11,5.36-4.72-.18-9.07,6.83-13.31,3.05-1.35-1.15-5.29.45-6.66-.1-.7-.73-1.23-2.49-.81-3.28,2.31-4.35-2-8.43-.35-12.7.09-.25-.78-.76-.91-1.23-1.34-3-1-7.36-2.15-10.09-1.75-1.85-1.65-3.71-1.67-5.89-.45-4.21-1.75-8.74.29-12.75,1.41-2.72,6.76.78,10.28-2.37,2.82-1.92,5.52-2.94,8.86-1.77,2.67.9,6.16-.37,7.1,3.21.77,2.15,1.72,3.83,4.68,2.32,1.68-.86,4.61,1.94,4.29,4.55-.38,3.2,1.38,5,3,7.18,2.31,2.87.24,6.91.37,10.28Zm-33.89,20.19c7.88-.69,7.9,3.41,12.11.62,4-3.56,11.28-1.84,12.57-7.7.61-2.2,1.18-5.18,2.79-6.18,6.52-4.06,2.34-10.79,4.46-15.85.15-.35-.94-1.16-1.36-1.82-1.37-2.11-3.27-3.89-2.62-7,.19-.89-2.19-3.36-2.64-3.19-4.85,2.07-5.12-2.51-7.22-4.93-4.3.11-8.7-2.85-12.93.94-9,4.84-12.49-3.1-9.67,11.59-1.16,7.28,2.87,6.14,2.24,13.24.13,1.19-.07,3,.58,3.44,2,1.26,1.71,2.9,1.66,4.73C388.42,277,390.47,281.3,388.38,285.05Z" transform="translate(0 0)"/><path class="cls-2" d="M450.27,287.18" transform="translate(0 0)"/></svg>